<svg width="90" height="90" viewBox="0 0 90 90" fill="none" xmlns="http://www.w3.org/2000/svg">
<circle cx="45" cy="45" r="45" fill="#8A86F1"/>
<path d="M19.8675 45.2358C18.5475 43.4569 18.7575 40.8002 20.3364 39.3019C21.9153 37.8037 24.2654 38.0312 25.5854 39.8102L38.3967 57.0758C39.7167 58.8548 39.5068 61.5115 37.9279 63.0097C36.3489 64.508 33.9989 64.2804 32.6789 62.5015L19.8675 45.2358Z" fill="white"/>
<path d="M38.4714 63.0022C36.8866 64.506 34.5278 64.2776 33.2029 62.492C31.878 60.7065 32.0887 58.04 33.6735 56.5362L65.8608 25.9939C67.4456 24.4901 69.8044 24.7185 71.1292 26.5041C72.4541 28.2896 72.2434 30.9562 70.6586 32.46L38.4714 63.0022Z" fill="white"/>
</svg>
