<svg width="328" height="328" viewBox="0 0 328 328" fill="none" xmlns="http://www.w3.org/2000/svg">
<path d="M272.712 280.919H274.956L279.836 274.11V269.616C279.836 269.616 283.3 269.406 282.893 275.258C282.487 281.109 282.926 279.62 282.926 279.62C282.926 279.62 290.273 279.62 290.883 280.276C291.33 280.735 291.539 288.037 291.605 291.992C291.653 292.948 291.381 293.892 290.83 294.674C290.28 295.456 289.483 296.032 288.568 296.309C288.311 296.379 288.047 296.414 287.781 296.414C285.944 296.414 276.583 294.925 276.583 294.925H272.712V280.919Z" fill="#E0E0E0"/>
<path d="M266.303 279.692L267.681 295.003H271.518V280.001L266.303 279.692Z" fill="#E0E0E0"/>
<path d="M158.234 50.6695L167.877 64.4455C168.124 64.7893 168.451 65.0681 168.83 65.2581C169.208 65.4481 169.627 65.5436 170.051 65.5365C170.474 65.5295 170.89 65.42 171.262 65.2174C171.634 65.0148 171.951 64.7253 172.187 64.3734L181.522 50.0332L158.234 50.6695Z" fill="#E0E0E0"/>
<path d="M182.689 27.585H155.616C151.428 27.585 148.033 30.9801 148.033 35.1683V50.7221C148.033 54.9103 151.428 58.3054 155.616 58.3054H182.689C186.878 58.3054 190.273 54.9103 190.273 50.7221V35.1683C190.273 30.9801 186.878 27.585 182.689 27.585Z" fill="#E0E0E0"/>
<path d="M177.428 40.1209C176.07 37.6478 173.827 37.2607 172.318 37.8249C171.254 38.2901 170.376 39.0984 169.825 40.1209C169.274 39.0984 168.397 38.2901 167.332 37.8249C165.824 37.2607 163.58 37.6478 162.229 40.1209C159.408 45.2639 169.825 52.0076 169.825 52.0076C169.825 52.0076 180.249 45.2639 177.428 40.1209Z" fill="white"/>
<path d="M52.3488 265.621H74.5938C76.9686 265.621 79.2462 266.564 80.9255 268.244C82.6048 269.923 83.5482 272.201 83.5482 274.575V285.872C83.5482 288.247 82.6048 290.524 80.9255 292.204C79.2462 293.883 76.9686 294.826 74.5938 294.826H68.7816L64.6882 300.678C64.4564 301.01 64.1467 301.28 63.7862 301.464C63.4258 301.648 63.0255 301.741 62.6207 301.735C62.2159 301.728 61.8189 301.623 61.4645 301.427C61.1101 301.231 60.8092 300.951 60.5882 300.612L56.8227 294.826H52.3488C49.974 294.826 47.6964 293.883 46.0171 292.204C44.3378 290.524 43.3944 288.247 43.3944 285.872V274.575C43.3944 272.201 44.3378 269.923 46.0171 268.244C47.6964 266.564 49.974 265.621 52.3488 265.621Z" fill="#E0E0E0"/>
<path d="M62.6809 274.595V286.115L54.4349 280.355L62.6809 274.595Z" fill="white"/>
<path d="M73.7148 287.02C73.7148 287.02 73.1703 278.839 66.6234 278.715H62.4381V282.231L66.5644 282.29C66.5644 282.29 70.848 282.192 73.7148 287.02Z" fill="white"/>
<path d="M65.7595 145.019C66.5105 141.849 64.55 138.671 61.3807 137.92C58.2114 137.17 55.0334 139.13 54.2824 142.299C53.5315 145.469 55.492 148.647 58.6613 149.398C61.8306 150.148 65.0086 148.188 65.7595 145.019Z" fill="#E0E0E0"/>
<path d="M60.024 148.86C57.3499 148.86 54.7853 149.922 52.8944 151.813C51.0036 153.704 49.9413 156.268 49.9413 158.942H70.1067C70.1067 156.268 69.0444 153.704 67.1536 151.813C65.2627 149.922 62.6981 148.86 60.024 148.86Z" fill="#E0E0E0"/>
<path d="M225.172 32.8788C225.172 33.6897 224.932 34.4824 224.481 35.1567C224.031 35.8309 223.39 36.3564 222.641 36.6667C221.892 36.977 221.068 37.0582 220.272 36.9C219.477 36.7418 218.746 36.3513 218.173 35.778C217.6 35.2046 217.209 34.474 217.051 33.6787C216.893 32.8834 216.974 32.059 217.284 31.3098C217.594 30.5606 218.12 29.9203 218.794 29.4698C219.468 29.0193 220.261 28.7788 221.072 28.7788C221.611 28.7779 222.144 28.8834 222.642 29.0891C223.14 29.2949 223.592 29.5969 223.973 29.9778C224.354 30.3586 224.656 30.811 224.862 31.3088C225.067 31.8066 225.173 32.3402 225.172 32.8788Z" fill="#E0E0E0"/>
<path d="M236.547 42.476C236.547 43.2869 236.307 44.0796 235.856 44.7538C235.406 45.4281 234.765 45.9536 234.016 46.2639C233.267 46.5742 232.443 46.6554 231.647 46.4972C230.852 46.339 230.121 45.9485 229.548 45.3751C228.975 44.8017 228.584 44.0712 228.426 43.2758C228.268 42.4805 228.349 41.6562 228.659 40.907C228.969 40.1578 229.495 39.5175 230.169 39.067C230.843 38.6164 231.636 38.376 232.447 38.376C233.534 38.376 234.577 38.8079 235.346 39.5768C236.115 40.3457 236.547 41.3886 236.547 42.476Z" fill="#E0E0E0"/>
<path d="M225.238 52.2636C225.238 53.0745 224.997 53.8672 224.547 54.5414C224.096 55.2157 223.456 55.7412 222.707 56.0515C221.957 56.3618 221.133 56.443 220.338 56.2848C219.542 56.1266 218.812 55.7361 218.238 55.1627C217.665 54.5893 217.275 53.8588 217.116 53.0634C216.958 52.2681 217.039 51.4438 217.35 50.6946C217.66 49.9454 218.186 49.3051 218.86 48.8545C219.534 48.404 220.327 48.1636 221.138 48.1636C222.225 48.1636 223.268 48.5955 224.037 49.3644C224.806 50.1333 225.238 51.1762 225.238 52.2636Z" fill="#E0E0E0"/>
<path d="M221.354 52.5128L220.921 52.0142L231.942 42.4825L220.862 33.1345L221.282 32.6294L232.952 42.476L221.354 52.5128Z" fill="#E0E0E0"/>
<path d="M295.922 129.068C294.15 125.827 291.212 125.329 289.244 126.064C287.845 126.67 286.69 127.728 285.964 129.068C285.237 127.728 284.082 126.67 282.684 126.064C280.716 125.329 277.777 125.827 276.005 129.068C272.345 135.792 286.016 144.615 286.016 144.615C286.016 144.615 299.615 135.792 295.922 129.068Z" fill="#E0E0E0"/>
<path d="M279.797 160.556C278.531 158.247 276.445 157.893 275.035 158.418C274.044 158.851 273.226 159.604 272.712 160.556C272.199 159.604 271.381 158.851 270.39 158.418C268.986 157.893 266.894 158.247 265.634 160.556C263.01 165.365 272.712 171.629 272.712 171.629C272.712 171.629 282.428 165.365 279.797 160.556Z" fill="#E0E0E0"/>
<path d="M290.444 48.7734H246.702C244.126 48.7734 241.656 49.7961 239.834 51.6167C238.013 53.4372 236.988 55.9067 236.987 58.4822V84.9978C236.987 86.2733 237.238 87.5363 237.726 88.7147C238.215 89.893 238.93 90.9636 239.833 91.8652C240.735 92.7669 241.806 93.4819 242.985 93.9694C244.163 94.4569 245.426 94.7074 246.702 94.7066H260.222L267.799 105.55C268.039 105.891 268.36 106.168 268.732 106.357C269.104 106.546 269.516 106.641 269.934 106.634C270.351 106.627 270.76 106.518 271.125 106.317C271.491 106.115 271.801 105.827 272.03 105.478L279.036 94.7066H290.444C291.719 94.7074 292.982 94.4569 294.16 93.9693C295.339 93.4817 296.409 92.7666 297.311 91.8648C298.213 90.9631 298.928 89.8925 299.416 88.7142C299.903 87.5359 300.154 86.273 300.153 84.9978V58.4822C300.153 57.2073 299.902 55.9448 299.414 54.7668C298.926 53.5889 298.211 52.5186 297.309 51.6171C296.408 50.7155 295.337 50.0004 294.159 49.5125C292.981 49.0246 291.719 48.7734 290.444 48.7734Z" fill="white"/>
<path d="M290.444 48.7736H290.772C291.094 48.7757 291.416 48.7976 291.736 48.8392C292.987 48.9832 294.195 49.3828 295.285 50.0134C296.726 50.8299 297.935 51.9995 298.799 53.4122C299.664 54.8249 300.154 56.4343 300.225 58.0888C300.264 59.4467 300.225 60.8768 300.225 62.3856C300.225 68.4339 300.225 75.7286 300.264 84.0336C300.304 85.0958 300.221 86.1591 300.015 87.2021C299.774 88.2767 299.35 89.3019 298.762 90.2328C297.534 92.1867 295.665 93.6525 293.475 94.3787C292.343 94.7294 291.163 94.8956 289.978 94.8707H279.036L279.167 94.7985L275.159 100.965L273.093 104.147C272.732 104.684 272.437 105.216 272.023 105.76C271.594 106.31 270.969 106.674 270.279 106.777C269.585 106.871 268.881 106.698 268.311 106.292C268.03 106.086 267.788 105.833 267.595 105.544L267.031 104.73L264.748 101.45L260.084 94.792L260.229 94.8641H247.312C246.392 94.8894 245.473 94.8124 244.57 94.6345C243.673 94.429 242.807 94.1093 241.992 93.6833C240.402 92.8188 239.079 91.5362 238.166 89.9742C237.252 88.4121 236.783 86.6301 236.809 84.8208C236.809 77.8606 236.809 71.1497 236.809 64.7537C236.809 63.1531 236.809 61.5787 236.809 60.0174C236.809 59.2368 236.809 58.4693 236.849 57.6886C236.881 57.3013 236.934 56.9159 237.006 56.5341C237.098 56.1536 237.183 55.7797 237.301 55.4123C237.785 53.9721 238.585 52.6586 239.643 51.5681C240.692 50.5059 241.968 49.6961 243.376 49.2C243.712 49.0744 244.056 48.9714 244.406 48.8917C244.751 48.8029 245.101 48.7393 245.455 48.7014C246.15 48.6254 246.849 48.5948 247.548 48.6096H259.12L282.027 48.6686H288.253H289.873H290.424C290.424 48.6686 290.241 48.6686 289.873 48.6686H288.253H282.027L259.12 48.8917H251.53H247.496C246.81 48.8763 246.124 48.907 245.442 48.9835C245.097 49.0209 244.755 49.0845 244.419 49.1737C244.08 49.2522 243.747 49.353 243.422 49.4755C242.078 49.9631 240.861 50.7454 239.86 51.7649C238.833 52.8222 238.059 54.0984 237.597 55.4976C237.479 55.8518 237.4 56.2192 237.308 56.5865C237.216 56.9539 237.17 57.3278 237.157 57.7017C237.105 58.4561 237.124 59.2368 237.124 60.0109V64.7472C237.124 71.1432 237.124 77.8672 237.124 84.8142C237.101 86.5623 237.555 88.2837 238.438 89.7924C239.322 91.3011 240.6 92.5399 242.136 93.375C242.921 93.7889 243.757 94.0977 244.622 94.2934C245.501 94.4704 246.397 94.5453 247.292 94.5165H260.275L260.327 94.5886L264.985 101.247L267.267 104.527L267.832 105.334C268.009 105.59 268.231 105.813 268.488 105.99C268.986 106.356 269.608 106.512 270.221 106.426C270.833 106.341 271.388 106.019 271.768 105.531C272.122 105.032 272.47 104.468 272.817 103.943C273.521 102.876 274.212 101.816 274.89 100.762L278.911 94.5952L278.957 94.523H290.011C291.164 94.5559 292.314 94.3985 293.416 94.0573C295.545 93.3608 297.362 91.9403 298.552 90.0425C299.129 89.1418 299.544 88.1473 299.779 87.1037C299.986 86.0809 300.07 85.0369 300.028 83.9942C300.028 75.6958 300.028 68.4011 300.067 62.3462C300.067 60.8374 300.067 59.4008 300.067 58.056C300.014 56.8074 299.715 55.5815 299.188 54.448C298.359 52.6235 296.984 51.1014 295.252 50.0921C294.176 49.4557 292.982 49.0429 291.743 48.8785C291.425 48.8312 291.106 48.8006 290.785 48.7867L290.444 48.7736Z" fill="#263238"/>
<path d="M269.819 62.8843V81.003L282.788 71.9436L269.819 62.8843Z" fill="#8A86F1"/>
<path d="M252.462 82.4328C252.462 82.4328 253.321 69.562 263.614 69.3652H270.174V74.9019L263.686 74.9937C263.686 74.9937 256.922 74.8363 252.462 82.4328Z" fill="#8A86F1"/>
<path d="M231.312 255.079H305.827C309.979 255.079 313.345 251.713 313.345 247.561V189.886C313.345 185.734 309.979 182.368 305.827 182.368H231.312C227.16 182.368 223.794 185.734 223.794 189.886V247.561C223.794 251.713 227.16 255.079 231.312 255.079Z" fill="white"/>
<path d="M264.971 252.855C264.053 255.079 246.295 271.774 246.295 271.774V252.855H264.971Z" fill="#455A64"/>
<path d="M258.097 237.63C258.097 235.334 258.097 233.418 258.097 233.182C258.097 233.182 250.336 232.447 249.779 224.765C249.51 221.052 249.575 213.351 249.719 206.397C249.794 202.791 251.224 199.346 253.724 196.747C256.225 194.148 259.613 192.586 263.213 192.372L263.955 192.326C271.991 192.326 276.484 199.129 276.274 207.158L275.992 237.288L263.003 247.725L262.059 247.64L258.097 237.63Z" fill="#FFBF9D"/>
<path d="M258.083 233.182C261.637 232.959 265.051 231.723 267.923 229.62C267.923 229.62 265.818 235.386 258.083 235.156V233.182Z" fill="#FF9A6C"/>
<path d="M262.794 209.71C262.944 209.868 263.837 209.166 265.122 209.146C266.408 209.126 267.366 209.769 267.504 209.605C267.641 209.441 267.412 209.251 266.999 208.949C266.441 208.563 265.775 208.363 265.096 208.379C264.423 208.391 263.771 208.621 263.24 209.035C262.846 209.349 262.721 209.638 262.794 209.71Z" fill="#263238"/>
<path d="M263.745 213.2C263.757 213.471 263.875 213.726 264.074 213.91C264.273 214.095 264.537 214.193 264.808 214.184C264.94 214.187 265.073 214.164 265.196 214.116C265.32 214.067 265.432 213.994 265.527 213.901C265.622 213.808 265.697 213.697 265.748 213.574C265.799 213.451 265.825 213.32 265.824 213.187C265.811 212.916 265.692 212.661 265.494 212.476C265.295 212.291 265.033 212.191 264.762 212.196C264.628 212.194 264.496 212.218 264.372 212.267C264.249 212.316 264.136 212.39 264.041 212.484C263.947 212.577 263.872 212.689 263.821 212.812C263.77 212.935 263.744 213.067 263.745 213.2Z" fill="#263238"/>
<path d="M259.455 218.612C258.811 218.453 258.15 218.376 257.487 218.382C257.185 218.382 256.896 218.33 256.831 218.127C256.787 217.814 256.84 217.496 256.981 217.215C257.218 216.473 257.467 215.686 257.736 214.866C258.779 211.521 259.514 208.772 259.376 208.733C259.238 208.693 258.287 211.357 257.244 214.722C256.995 215.542 256.752 216.329 256.529 217.083C256.36 217.459 256.33 217.882 256.443 218.277C256.493 218.381 256.565 218.472 256.655 218.544C256.745 218.616 256.85 218.666 256.962 218.691C257.132 218.725 257.306 218.738 257.48 218.73C258.14 218.781 258.805 218.741 259.455 218.612Z" fill="#263238"/>
<path d="M263.43 205.577C263.554 205.866 264.584 205.663 265.818 205.748C267.051 205.833 268.061 206.109 268.206 205.833C268.271 205.708 268.081 205.439 267.668 205.177C267.12 204.862 266.505 204.68 265.874 204.646C265.243 204.611 264.612 204.726 264.033 204.98C263.594 205.197 263.377 205.446 263.43 205.577Z" fill="#263238"/>
<path d="M251.366 206.312C251.497 206.548 252.507 206.312 253.721 206.279C254.935 206.246 255.945 206.424 256.076 206.181C256.135 206.069 255.938 205.859 255.518 205.669C254.95 205.433 254.336 205.324 253.721 205.348C253.099 205.357 252.486 205.5 251.924 205.768C251.504 205.984 251.307 206.201 251.366 206.312Z" fill="#263238"/>
<path d="M275.979 212.885C276.104 212.82 281.168 211.002 281.319 216.27C281.47 221.538 276.143 220.6 276.13 220.449C276.117 220.298 275.979 212.885 275.979 212.885Z" fill="#FFBF9D"/>
<path d="M277.685 218.409C277.685 218.409 277.777 218.474 277.934 218.54C278.155 218.629 278.402 218.629 278.623 218.54C279.174 218.317 279.613 217.425 279.613 216.473C279.616 216.02 279.517 215.572 279.325 215.161C279.27 214.998 279.176 214.85 279.051 214.73C278.927 214.61 278.775 214.522 278.61 214.473C278.504 214.447 278.392 214.46 278.295 214.509C278.197 214.559 278.121 214.641 278.078 214.742C278.013 214.892 278.078 214.991 278.019 215.004C277.96 215.017 277.901 214.919 277.941 214.702C277.967 214.57 278.036 214.45 278.137 214.361C278.207 214.304 278.288 214.261 278.375 214.236C278.462 214.211 278.553 214.205 278.643 214.217C278.859 214.255 279.063 214.347 279.235 214.485C279.407 214.622 279.542 214.801 279.627 215.004C279.86 215.456 279.981 215.958 279.981 216.467C279.981 217.53 279.463 218.533 278.708 218.776C278.568 218.822 278.419 218.836 278.272 218.817C278.126 218.797 277.986 218.745 277.862 218.664C277.698 218.533 277.665 218.448 277.685 218.409Z" fill="#FF9A6C"/>
<path d="M261.088 223.093C261.029 222.961 262.065 222.666 262.807 221.702C263.115 221.282 263.367 220.823 263.555 220.337C263.712 219.957 263.83 219.721 263.889 219.74C263.948 219.76 263.922 220.016 263.837 220.396C263.716 220.953 263.477 221.477 263.135 221.931C262.782 222.385 262.312 222.734 261.777 222.942C261.37 223.132 261.088 223.138 261.088 223.093Z" fill="#263238"/>
<path d="M283.09 204.449C282.014 202.573 281.778 200.355 281.214 198.276C280.65 196.196 279.515 194.032 277.495 193.284H277.449C275.631 192.523 273.381 192.483 271.866 193.736C271.531 190.994 269.163 188.79 266.5 188.055C263.837 187.321 259.546 187.688 256.968 188.711C255 189.479 253.032 191.093 250.684 193.461C249.689 194.459 248.776 195.536 247.955 196.682L245.541 203.819L247.509 207.604C247.627 207.867 247.745 208.123 247.889 208.378L249.582 216.329C249.726 214.171 249.667 206.647 249.805 204.488C251.431 204.46 253.035 204.104 254.521 203.441C256.007 202.778 257.343 201.823 258.451 200.631C259.645 199.319 260.596 197.712 262.184 196.951C264.237 195.967 266.651 196.734 268.789 197.502L268.698 197.423C269.811 197.954 270.812 198.696 271.643 199.608C271.105 203.873 271.492 208.205 272.778 212.308C272.975 212.924 273.506 214.197 274.09 214.433C275.271 214.906 275.605 213.705 276.32 213.075C276.955 212.652 277.722 212.474 278.479 212.577C279.095 210.792 279.601 208.972 279.994 207.125C280.707 207.357 281.464 207.418 282.205 207.303L281.549 205.669C281.827 205.879 282.147 206.029 282.487 206.109C282.657 206.144 282.835 206.126 282.995 206.058C283.156 205.99 283.292 205.875 283.385 205.728C283.582 205.328 283.313 204.836 283.09 204.449Z" fill="#263238"/>
<path d="M269.439 194.602C269.711 194.82 269.966 195.059 270.2 195.317C270.797 196.059 271.192 196.943 271.348 197.882C271.472 198.531 271.53 199.19 271.518 199.85C271.518 200.559 271.446 201.313 271.381 202.114C271.299 202.951 271.269 203.792 271.289 204.633C271.313 205.073 271.366 205.511 271.446 205.945C271.506 206.42 271.687 206.871 271.971 207.257C272.104 207.407 272.273 207.521 272.463 207.588C272.652 207.655 272.855 207.671 273.053 207.637C273.431 207.569 273.777 207.381 274.037 207.099C274.463 206.523 274.725 205.843 274.798 205.131H274.641C274.864 205.713 275.171 206.259 275.553 206.751C275.92 207.211 276.452 207.509 277.035 207.585C277.306 207.617 277.581 207.574 277.829 207.46C278.058 207.342 278.248 207.16 278.374 206.935C278.487 206.735 278.546 206.509 278.544 206.279C278.54 206.056 278.456 205.842 278.308 205.676L278.223 205.748C278.675 206.276 279.231 206.704 279.856 207.007C280.022 207.086 280.193 207.153 280.368 207.211C280.426 207.236 280.488 207.252 280.551 207.257L280.381 207.184C280.263 207.132 280.099 207.066 279.882 206.955C279.279 206.636 278.744 206.201 278.308 205.676L278.229 205.748C278.352 205.911 278.421 206.109 278.427 206.313C278.433 206.518 278.375 206.719 278.262 206.889C278.15 207.091 277.978 207.254 277.77 207.355C277.544 207.457 277.294 207.494 277.048 207.46C276.508 207.382 276.018 207.1 275.677 206.673C275.309 206.188 275.011 205.653 274.792 205.085L274.687 204.836L274.634 205.098C274.556 205.772 274.305 206.413 273.906 206.961C273.673 207.212 273.364 207.38 273.027 207.44C272.859 207.472 272.686 207.459 272.525 207.403C272.364 207.346 272.22 207.248 272.109 207.119C271.844 206.763 271.677 206.345 271.623 205.905C271.538 205.472 271.486 205.034 271.466 204.593C271.445 203.759 271.471 202.925 271.545 202.094C271.604 201.294 271.669 200.533 271.669 199.818C271.671 199.157 271.605 198.497 271.472 197.85C271.304 196.894 270.883 196.002 270.252 195.265C270.019 195.001 269.744 194.777 269.439 194.602Z" fill="#455A64"/>
<path d="M245.587 201.772C245.587 201.772 245.587 201.772 245.646 201.825L245.836 201.969C245.938 202.047 246.045 202.117 246.157 202.179C246.307 202.273 246.462 202.356 246.623 202.428C247.645 202.916 248.772 203.141 249.903 203.084C251.583 202.994 253.2 202.42 254.561 201.431C256.202 200.208 257.577 198.663 258.602 196.892C259.172 195.973 259.638 195.022 260.15 194.15C260.622 193.299 261.211 192.52 261.901 191.834C262.524 191.217 263.29 190.766 264.132 190.522C264.512 190.422 264.906 190.382 265.299 190.404C265.662 190.429 266.02 190.504 266.362 190.627C266.956 190.838 267.497 191.173 267.95 191.611C268.296 191.939 268.584 192.322 268.803 192.746C268.971 193.116 269.101 193.503 269.19 193.9C269.191 193.874 269.191 193.848 269.19 193.822C269.19 193.756 269.19 193.677 269.19 193.585C269.126 193.286 269.031 192.993 268.907 192.713C268.693 192.277 268.407 191.88 268.061 191.539C267.34 190.799 266.375 190.347 265.345 190.266C264.937 190.238 264.527 190.278 264.132 190.384C263.264 190.621 262.47 191.072 261.823 191.696C261.118 192.387 260.517 193.175 260.038 194.038C259.52 194.924 259.054 195.868 258.484 196.78C257.471 198.532 256.117 200.062 254.502 201.28C253.161 202.261 251.568 202.837 249.91 202.94C248.797 203.012 247.684 202.816 246.663 202.369C245.934 202.048 245.6 201.746 245.587 201.772Z" fill="#455A64"/>
<path d="M251.058 210.038C251.209 210.196 252.107 209.494 253.393 209.48C254.679 209.467 255.63 210.104 255.768 209.94C255.906 209.776 255.683 209.579 255.263 209.284C254.705 208.897 254.039 208.698 253.36 208.713C252.687 208.728 252.037 208.957 251.504 209.369C251.117 209.677 250.986 209.972 251.058 210.038Z" fill="#263238"/>
<path d="M253.026 213.377C253.039 213.648 253.158 213.903 253.356 214.088C253.555 214.273 253.817 214.373 254.088 214.368C254.222 214.37 254.354 214.346 254.478 214.297C254.601 214.248 254.714 214.174 254.809 214.08C254.903 213.987 254.979 213.875 255.029 213.752C255.08 213.629 255.106 213.497 255.105 213.364C255.092 213.094 254.973 212.839 254.774 212.656C254.576 212.472 254.313 212.373 254.043 212.38C253.91 212.376 253.778 212.4 253.654 212.448C253.53 212.497 253.418 212.57 253.323 212.663C253.228 212.756 253.153 212.867 253.102 212.99C253.051 213.113 253.025 213.244 253.026 213.377Z" fill="#263238"/>
<path d="M248.624 195.796C247.968 196.662 246.964 197.45 245.888 197.331C245.498 197.249 245.114 197.137 244.74 196.997C244.367 197.226 244.452 198.512 244.74 198.866C244.984 199.167 245.254 199.446 245.547 199.7C244.281 200.356 243.133 200.047 241.788 199.555C241.924 200.705 242.358 201.799 243.049 202.728C243.74 203.657 244.662 204.389 245.724 204.849C246.049 205.023 246.411 205.118 246.779 205.125C247.148 205.132 247.512 205.051 247.843 204.889C248.352 204.474 248.686 203.884 248.781 203.235C249.384 200.93 249.701 198.559 249.726 196.177L248.624 195.796Z" fill="#263238"/>
<path d="M240.516 246.302L240.654 246.125C246.807 239.61 258.136 237.433 258.136 237.433C258.136 237.433 258.831 241.697 265.181 242.175C271.531 242.654 276.176 236.16 276.176 236.16L284.704 237.367C284.704 237.367 288.968 237.872 291.618 239.433C297.601 242.95 300.802 255.079 300.802 255.079L235.465 255.348L240.516 246.302Z" fill="#455A64"/>
<path d="M234.54 182.368L234.08 182.401L233.516 182.44C233.293 182.44 233.037 182.512 232.742 182.558C231.013 182.853 229.385 183.574 228.006 184.657C227 185.442 226.143 186.399 225.474 187.485C224.667 188.787 224.152 190.248 223.965 191.768C223.877 192.623 223.847 193.482 223.873 194.34C223.873 195.226 223.873 196.151 223.873 197.095C223.873 198.998 223.873 201.031 223.873 203.144C223.873 211.672 223.873 221.958 223.906 233.707C223.906 236.645 223.906 239.672 223.906 242.786C223.906 243.56 223.906 244.347 223.952 245.121C224.01 245.903 224.151 246.677 224.372 247.43C224.846 248.962 225.662 250.367 226.76 251.537C227.868 252.749 229.252 253.678 230.794 254.246L231.378 254.456L231.981 254.613C232.387 254.714 232.799 254.789 233.215 254.836C234.058 254.917 234.906 254.947 235.753 254.928H246.42V255.079C246.42 260.36 246.42 265.995 246.42 271.774L246.151 271.656C248.915 269.032 251.72 266.343 254.567 263.587C257.401 260.806 260.301 257.985 263.063 254.968L263.115 254.915H301.38C302.081 254.915 302.777 254.915 303.459 254.876C305.503 254.703 307.452 253.94 309.069 252.678C310.686 251.417 311.9 249.712 312.564 247.771C312.985 246.503 313.183 245.171 313.148 243.835V239.768C313.148 229.042 313.148 218.691 313.148 208.831C313.148 203.907 313.148 199.096 313.148 194.399C313.194 193.249 313.124 192.097 312.938 190.962C312.703 189.859 312.3 188.8 311.744 187.819C311.195 186.853 310.493 185.983 309.665 185.241C308.862 184.502 307.945 183.898 306.949 183.45C305.972 183.002 304.932 182.708 303.866 182.578C302.808 182.488 301.746 182.457 300.684 182.486H294.459H282.756L247.443 182.434L237.839 182.401H247.443L282.756 182.348H294.459H300.684C301.759 182.32 302.834 182.351 303.905 182.44C304.999 182.572 306.066 182.873 307.067 183.332C308.091 183.79 309.035 184.41 309.862 185.169C310.71 185.924 311.432 186.81 312 187.793C312.57 188.801 312.984 189.889 313.227 191.021C313.422 192.175 313.497 193.347 313.45 194.517C313.45 199.188 313.45 203.998 313.45 208.949C313.45 218.789 313.45 229.16 313.45 239.886V243.927C313.487 245.307 313.285 246.683 312.853 247.994C312.15 249.96 310.897 251.683 309.243 252.957C307.589 254.232 305.605 255.005 303.525 255.184C302.81 255.236 302.108 255.236 301.412 255.23H263.227L263.351 255.177C260.57 258.202 257.67 261.022 254.823 263.804C251.976 266.585 249.155 269.268 246.394 271.873L246.118 272.128V271.755C246.118 265.975 246.118 260.34 246.118 255.059L246.276 255.217H235.78C234.919 255.242 234.058 255.211 233.201 255.125C232.776 255.079 232.355 255 231.942 254.889L231.319 254.731L230.715 254.515C229.132 253.927 227.711 252.972 226.569 251.727C225.45 250.519 224.616 249.075 224.129 247.502C223.902 246.73 223.759 245.936 223.703 245.134C223.644 244.334 223.663 243.553 223.663 242.779C223.663 239.665 223.663 236.639 223.663 233.7C223.663 221.951 223.663 211.652 223.696 203.137C223.696 201.005 223.696 198.991 223.696 197.089C223.696 196.144 223.696 195.219 223.696 194.333C223.672 193.468 223.705 192.603 223.794 191.742C223.976 190.334 224.435 188.976 225.143 187.746C225.851 186.515 226.795 185.437 227.921 184.572C229.317 183.489 230.964 182.776 232.709 182.499C233.005 182.46 233.26 182.407 233.49 182.394H234.054L234.54 182.368Z" fill="#263238"/>
<path d="M31.6454 112.642L121.891 112.642C126.967 112.642 131.082 108.527 131.082 103.451V33.6398C131.082 28.564 126.967 24.4492 121.891 24.4492L31.6454 24.4492C26.5696 24.4492 22.4549 28.564 22.4549 33.6398L22.4549 103.451C22.4549 108.527 26.5696 112.642 31.6454 112.642Z" fill="white"/>
<path d="M72.4026 109.946C71.2874 112.642 49.7444 132.906 49.7444 132.906V109.946H72.4026Z" fill="#455A64"/>
<path d="M98.7542 63.1533C98.8067 58.5613 99.5349 53.9693 99.3577 49.3773C99.1806 44.7853 97.967 39.99 94.7657 36.6969C91.5645 33.4037 85.9885 32.1049 82.2361 34.801L81.4686 38.737C82.9468 56.4796 84.425 74.2201 85.9032 91.9583C86.0934 94.2871 86.3033 96.6881 87.3661 98.7676C88.4288 100.847 90.5542 102.572 92.8896 102.428C95.94 102.244 97.9473 99.1481 98.892 96.242C102.336 85.6607 98.6165 74.2463 98.7542 63.1533Z" fill="#263238"/>
<path d="M87.6875 39.3009C87.0745 38.1322 86.287 37.0638 85.3521 36.1324C84.8785 35.6712 84.307 35.3225 83.6801 35.1124C83.0532 34.9023 82.387 34.8362 81.731 34.9188C81.4221 34.9571 81.128 35.0736 80.8766 35.2573C80.6252 35.441 80.4248 35.6857 80.2944 35.9684C80.091 36.5588 80.524 37.3395 81.1472 37.2804L81.2784 37.3919C82.656 38.6121 84.0533 39.806 85.4833 40.9671C85.8216 41.2833 86.2182 41.5306 86.651 41.6953C86.8732 41.7791 87.1148 41.7978 87.3472 41.7489C87.5797 41.7001 87.7933 41.5859 87.963 41.4198C88.4485 40.8556 88.0745 39.9634 87.6875 39.3009Z" fill="#8A86F1"/>
<path d="M90.2853 43.8208C85.6933 38.212 79.5465 34.991 72.3043 34.8664C68.224 34.8008 66.5315 35.647 63.5926 36.4408C60.6436 37.156 58.0403 38.8861 56.2389 41.328C54.1593 44.2865 52.4078 47.5993 52.0142 51.2008C51.6206 54.8022 51.2008 58.5873 51.4829 62.32C51.7649 66.0526 52.7949 69.759 54.9465 72.7701L64.3798 74.4035C69.5885 74.5806 74.8758 74.7512 79.9401 73.5638C85.0045 72.3765 89.9507 69.6278 92.6665 65.1998C96.432 58.9941 94.8707 49.423 90.2853 43.8208Z" fill="#263238"/>
<path d="M64.3404 91.1185C64.406 87.8385 64.5175 83.6598 64.5175 83.6794C64.5175 83.6991 56.8292 82.8332 54.6775 72.9735C53.6214 68.0732 53.4246 59.9519 53.477 53.2935C53.523 47.3108 58.6201 39.1567 66.0132 39.1305L69.2932 38.75L81.8622 43.7487C82.7385 43.7941 83.5661 44.1661 84.1818 44.7915C84.7974 45.4168 85.1565 46.2501 85.1881 47.1271L85.6604 90.469L77.6047 103.924L63.1727 92.7716L64.3404 91.1185Z" fill="#B56760"/>
<path d="M69.4835 70.671C69.4142 70.1592 69.157 69.6915 68.7619 69.359C68.4019 69.0484 67.9492 68.8658 67.4745 68.8397C66.9998 68.8136 66.5298 68.9454 66.1379 69.2146C65.7324 69.5261 65.4177 69.9403 65.2262 70.4144C65.0347 70.8885 64.9735 71.4051 65.0489 71.9108C65.2659 72.2136 65.5448 72.4667 65.8672 72.6533C66.1895 72.84 66.5479 72.9558 66.9185 72.9932H67.2662C67.8567 72.9799 68.4208 72.7459 68.8472 72.3372C69.0698 72.1238 69.2424 71.8636 69.3524 71.5755C69.4624 71.2874 69.5072 70.9785 69.4835 70.671Z" fill="#8A4A43"/>
<path d="M57.4722 61.0079C57.4858 61.3426 57.6316 61.6583 57.8775 61.8857C58.1234 62.1132 58.4494 62.2339 58.7842 62.2215C58.9455 62.2241 59.1057 62.1947 59.2556 62.135C59.4055 62.0752 59.5421 61.9863 59.6574 61.8735C59.7727 61.7606 59.8645 61.626 59.9274 61.4774C59.9903 61.3288 60.0232 61.1693 60.024 61.0079C60.0007 60.6761 59.8523 60.3655 59.6087 60.139C59.3651 59.9125 59.0446 59.7869 58.712 59.7878C58.5501 59.7851 58.3893 59.8148 58.239 59.8749C58.0887 59.9351 57.9519 60.0245 57.8365 60.1381C57.7211 60.2517 57.6294 60.3871 57.5669 60.5364C57.5043 60.6857 57.4721 60.846 57.4722 61.0079Z" fill="#263238"/>
<path d="M55.76 56.6263C55.9306 56.7837 56.8555 56.0162 58.2266 55.9703C59.5976 55.9243 60.6472 56.5279 60.785 56.3573C60.9227 56.1867 60.6734 55.9834 60.2208 55.7013C59.604 55.321 58.8841 55.1422 58.161 55.1896C57.4422 55.2234 56.7528 55.4853 56.193 55.9375C55.7994 56.2458 55.6747 56.5541 55.76 56.6263Z" fill="#263238"/>
<path d="M64.5766 67.3912C63.8396 67.2008 63.0812 67.106 62.32 67.1091C61.9657 67.1091 61.6312 67.037 61.559 66.8074C61.5068 66.4455 61.5687 66.0763 61.7361 65.7512L62.6217 63.0288C63.855 59.1519 64.7275 55.9703 64.5897 55.9243C64.452 55.8784 63.2777 58.9747 62.0773 62.8583L61.2179 65.6003C61.02 66.0347 60.9828 66.5252 61.1129 66.9845C61.1693 67.1058 61.2532 67.2122 61.358 67.2954C61.4628 67.3785 61.5855 67.436 61.7165 67.4634C61.9122 67.5076 62.113 67.5253 62.3134 67.5159C63.07 67.5699 63.8305 67.528 64.5766 67.3912Z" fill="#263238"/>
<path d="M64.5176 83.6794C69.2026 83.4905 73.7437 82.0078 77.6376 79.3958C77.6376 79.3958 74.4691 86.4806 64.4651 86.1001L64.5176 83.6794Z" fill="#8A4A43"/>
<path d="M68.6635 68.1127C68.4405 68.1127 68.5192 69.6018 67.3056 70.7367C66.092 71.8715 64.4913 71.7862 64.4913 71.9962C64.4913 72.0946 64.8587 72.2651 65.5344 72.252C66.4063 72.2114 67.2368 71.8681 67.8829 71.2811C68.4988 70.7137 68.8743 69.9321 68.9325 69.0967C68.9521 68.4603 68.7685 68.0995 68.6635 68.1127Z" fill="#263238"/>
<path d="M56.2257 51.8243C56.4749 52.1458 57.5377 51.8637 58.7447 51.8965C59.9518 51.9293 61.0145 52.1982 61.2637 51.8965C61.3753 51.739 61.2244 51.4242 60.7849 51.1093C60.176 50.731 59.4753 50.5262 58.7586 50.5169C58.0418 50.5077 57.3361 50.6944 56.7177 51.0568C56.2716 51.352 56.1141 51.6669 56.2257 51.8243Z" fill="#263238"/>
<path d="M73.0849 60.654C73.0956 60.9872 72.9752 61.3113 72.7495 61.5567C72.5238 61.802 72.2108 61.949 71.8778 61.966C71.7175 61.9785 71.5563 61.9592 71.4035 61.9092C71.2506 61.8592 71.1092 61.7795 70.9872 61.6747C70.8653 61.5698 70.7653 61.4419 70.693 61.2982C70.6207 61.1546 70.5775 60.9981 70.5658 60.8377C70.5551 60.5045 70.6755 60.1804 70.9012 59.935C71.127 59.6897 71.4399 59.5427 71.7729 59.5257C71.9332 59.5132 72.0944 59.5324 72.2473 59.5824C72.4001 59.6324 72.5416 59.7122 72.6635 59.817C72.7854 59.9219 72.8854 60.0498 72.9577 60.1934C73.0301 60.3371 73.0733 60.4936 73.0849 60.654Z" fill="#263238"/>
<path d="M74.3247 56.0945C74.1673 56.2651 73.1898 55.5632 71.8188 55.596C70.4478 55.6288 69.4506 56.3241 69.2932 56.1601C69.1357 55.9961 69.3785 55.7862 69.8114 55.4582C70.3992 55.0374 71.1025 54.8083 71.8253 54.8022C72.5398 54.7906 73.2398 55.004 73.8262 55.4123C74.2526 55.7206 74.4034 56.0224 74.3247 56.0945Z" fill="#263238"/>
<path d="M73.4719 51.6993C73.2095 52.0141 72.1599 51.6993 70.8479 51.6993C69.5359 51.6993 68.4995 51.9485 68.2239 51.6271C68.1124 51.4697 68.2764 51.1548 68.7422 50.853C69.3821 50.4853 70.1087 50.295 70.8467 50.3019C71.5848 50.3089 72.3076 50.5127 72.9406 50.8924C73.4719 51.2269 73.6163 51.5418 73.4719 51.6993Z" fill="#263238"/>
<path d="M83.5153 63.8423C83.4759 63.101 84.2303 61.3035 84.9585 61.1527C86.9265 60.7394 90.423 60.7066 90.7247 65.6594C91.1446 72.4359 84.2565 71.4584 84.2303 71.2682C84.2041 71.0779 83.6465 66.3941 83.5153 63.8423Z" fill="#B56760"/>
<path d="M85.9359 68.6768C85.9359 68.6768 86.0606 68.749 86.2639 68.8277C86.5482 68.9412 86.8652 68.9412 87.1495 68.8277C87.8449 68.5194 88.3762 67.3452 88.3369 66.125C88.3254 65.5308 88.1773 64.9471 87.9039 64.4194C87.8276 64.2112 87.7017 64.0247 87.5371 63.8761C87.3725 63.7275 87.1742 63.6213 86.9593 63.5666C86.8245 63.5446 86.6862 63.5689 86.5671 63.6356C86.4479 63.7024 86.3549 63.8075 86.3033 63.934C86.2246 64.1308 86.3033 64.262 86.2377 64.2751C86.1721 64.2882 86.0868 64.1701 86.1261 63.888C86.1512 63.7185 86.2347 63.563 86.3623 63.4485C86.5445 63.2937 86.7798 63.2161 87.0183 63.232C87.3022 63.2696 87.5718 63.3791 87.8014 63.5502C88.031 63.7213 88.2131 63.9482 88.3303 64.2095C88.6576 64.7771 88.838 65.4175 88.8551 66.0725C88.8945 67.4436 88.2778 68.7621 87.3135 69.1032C87.1356 69.1692 86.9449 69.1935 86.7561 69.1742C86.5673 69.1548 86.3854 69.0924 86.2246 68.9917C85.9687 68.8408 85.9359 68.69 85.9359 68.6768Z" fill="#8A4A43"/>
<path d="M85.234 61.172L83.5153 62.976C76.0959 55.8387 61.5458 38.048 62.3593 39.0844C65.7469 37.8159 69.3989 37.4189 72.9799 37.9299C78.51 38.8745 88.9929 41.6363 88.8354 48.1569C88.678 54.6776 85.234 61.172 85.234 61.172Z" fill="#263238"/>
<path d="M95.0807 59.6961C95.0613 59.5612 95.026 59.4291 94.9757 59.3025C94.8546 58.9332 94.7009 58.5753 94.5165 58.2332C93.8163 56.9761 92.849 55.8878 91.6826 55.0451C89.9535 53.8111 88.0253 52.8835 85.9819 52.303C83.7122 51.5683 81.1603 50.991 78.6544 49.9151C76.2858 48.9269 74.0385 47.6701 71.9567 46.1694C70.26 44.9381 68.679 43.5548 67.2334 42.0366C66.2598 41.0078 65.3464 39.9236 64.4979 38.7894L63.8419 37.8578C63.7673 37.7465 63.6839 37.6412 63.5927 37.543C63.638 37.6699 63.7022 37.7893 63.7829 37.8972C63.9272 38.1202 64.1306 38.4548 64.4389 38.8681C65.2479 40.0396 66.1379 41.1532 67.1023 42.2006C68.5351 43.757 70.1147 45.1717 71.8189 46.4252C73.9096 47.9592 76.1757 49.2387 78.5691 50.2366C80.9824 51.1541 83.4412 51.9467 85.936 52.6113C87.9537 53.1654 89.8648 54.0523 91.5907 55.2353C92.7442 56.0467 93.7179 57.0874 94.4509 58.2922C94.897 59.1451 95.0478 59.6961 95.0807 59.6961Z" fill="#455A64"/>
<path d="M93.1061 60.7392C93.1272 60.234 93.0376 59.7302 92.8437 59.2632C92.3367 57.9661 91.4495 56.8525 90.2984 56.0685C88.888 55.0123 86.8675 54.3629 84.6437 53.8512C82.226 53.3717 79.8695 52.6236 77.6179 51.6208C75.3766 50.5993 73.272 49.3013 71.3531 47.757C69.7855 46.4934 68.3462 45.0784 67.0563 43.5323C66.1917 42.4891 65.392 41.3937 64.6619 40.2523L64.0912 39.2946C64.0305 39.1786 63.9555 39.0706 63.8682 38.9731C63.905 39.0976 63.9579 39.2167 64.0256 39.3274L64.5504 40.3114C65.2374 41.4934 66.0114 42.6227 66.8661 43.6898C68.144 45.2701 69.5793 46.7164 71.1498 48.0063C73.0831 49.58 75.2079 50.9025 77.4736 51.9423C79.747 52.9519 82.1285 53.698 84.5715 54.1661C86.7888 54.6515 88.7699 55.2682 90.1606 56.2719C91.2878 57.0172 92.1761 58.0718 92.719 59.3091C92.8912 59.7731 93.0207 60.2518 93.1061 60.7392Z" fill="#455A64"/>
<path d="M85.011 72.6455C85.011 72.5995 85.5883 72.5208 86.5919 72.2584C87.9998 71.848 89.2962 71.1235 90.3836 70.1395C91.9711 68.6513 93.179 66.8046 93.9063 64.7538C94.8292 62.2476 95.3259 59.6045 95.3758 56.9343C95.4045 55.5557 95.2946 54.1777 95.0478 52.8211C94.7904 51.5654 94.4125 50.3374 93.9195 49.1541C93.0643 47.1467 91.8779 45.2973 90.4099 43.6831C89.0223 42.2304 87.5001 40.9125 85.8638 39.7471C85.9968 39.7924 86.1227 39.8565 86.2377 39.9373C86.4739 40.0882 86.8347 40.285 87.2611 40.5933C88.492 41.4381 89.6271 42.4148 90.646 43.506C92.1727 45.1207 93.4089 46.9872 94.2999 49.0229C94.8161 50.2312 95.2095 51.4883 95.4742 52.7752C95.7374 54.1586 95.854 55.5658 95.8219 56.9736C95.7744 59.6949 95.255 62.3873 94.2868 64.9309C93.5206 67.034 92.2502 68.9171 90.587 70.4151C89.4584 71.4035 88.1083 72.1055 86.651 72.4618C86.2563 72.556 85.855 72.6197 85.4505 72.652C85.3044 72.6706 85.1565 72.6684 85.011 72.6455Z" fill="#455A64"/>
<path d="M42.7319 101.995L42.9024 101.778C50.3677 93.9064 64.1109 91.2365 64.1109 91.2365C64.1109 91.2365 64.9506 96.4058 72.6389 96.9831C80.3272 97.5604 86.0016 89.7146 86.0016 89.7146L96.2811 91.1578C96.2811 91.1578 101.45 91.7679 104.671 93.6572C111.927 97.9277 115.777 112.642 115.777 112.642L36.5195 112.963L42.7319 101.995Z" fill="#455A64"/>
<path d="M35.483 24.4492L34.932 24.4886L34.276 24.5279C34.007 24.5279 33.6921 24.6198 33.3379 24.6723C31.2272 25.0252 29.2383 25.9001 27.552 27.2175C24.8372 29.3324 23.0706 32.4364 22.6385 35.8505C22.5397 36.886 22.5047 37.9267 22.5336 38.9665C22.5336 40.0489 22.5336 41.1641 22.5336 42.3187C22.5336 44.6212 22.5336 47.0681 22.5336 49.6462C22.5336 59.9782 22.5336 72.475 22.5729 86.7233C22.5729 90.2876 22.5729 93.959 22.5729 97.7375C22.5729 98.6756 22.5729 99.6334 22.6254 100.571C22.698 101.523 22.8694 102.464 23.1371 103.379C23.7137 105.243 24.705 106.952 26.0366 108.378C26.7089 109.101 27.4591 109.748 28.2736 110.306C29.1088 110.86 30.0046 111.315 30.9435 111.664L31.652 111.927L32.3867 112.11C32.8785 112.237 33.3781 112.332 33.8824 112.393C34.3875 112.471 34.8992 112.458 35.4108 112.491H49.8953V112.648C49.8953 119.044 49.8953 125.88 49.8953 132.893L49.6264 132.774C52.9763 129.613 56.381 126.35 59.8403 122.987C63.2777 119.615 66.7939 116.191 70.146 112.53L70.1985 112.478H116.597C117.45 112.478 118.296 112.478 119.123 112.419C121.61 112.212 123.983 111.285 125.95 109.75C127.918 108.216 129.396 106.141 130.203 103.779C130.714 102.229 130.952 100.602 130.905 98.9708V94.0705C130.905 81.0555 130.905 68.4865 130.905 56.5407C130.905 50.5668 130.905 44.7415 130.905 39.0649C130.96 37.6689 130.872 36.2709 130.642 34.8927C130.368 33.5562 129.892 32.2689 129.232 31.0748C127.887 28.7391 125.849 26.8797 123.4 25.7547C122.214 25.2113 120.95 24.855 119.654 24.6985C118.37 24.5892 117.08 24.5519 115.791 24.587H108.24H94.0441L51.168 24.5148L94.0048 24.4623H108.201H115.751C117.051 24.428 118.352 24.4652 119.648 24.5739C120.973 24.7298 122.266 25.0928 123.479 25.6497C125.981 26.7995 128.064 28.6974 129.442 31.0814C130.138 32.3096 130.642 33.6369 130.938 35.0174C131.166 36.4155 131.254 37.833 131.2 39.2486C131.2 44.9339 131.2 50.7592 131.2 56.7244C131.2 68.6833 131.2 81.2391 131.2 94.2542V99.1545C131.249 100.824 131.004 102.489 130.478 104.074C129.651 106.498 128.135 108.628 126.116 110.204C124.097 111.779 121.662 112.731 119.11 112.944C118.251 113.003 117.404 113.003 116.558 112.996H70.2772L70.4019 112.944C67.0366 116.611 63.5204 120.035 60.0764 123.44C56.6324 126.844 53.2081 129.849 49.856 133.011L49.5804 133.273V132.893C49.5804 125.88 49.5804 119.044 49.5804 112.648L49.7379 112.799H35.424C34.8992 112.76 34.3744 112.799 33.8627 112.694C33.3474 112.632 32.8368 112.535 32.3342 112.406L31.5798 112.215L30.832 111.94C29.8747 111.581 28.9614 111.115 28.1096 110.549C27.2758 109.978 26.506 109.318 25.8136 108.581C24.4601 107.12 23.4514 105.374 22.8616 103.471C22.5903 102.536 22.4145 101.575 22.3368 100.604C22.304 99.6268 22.304 98.6822 22.304 97.7441C22.304 93.9655 22.304 90.2941 22.304 86.7299C22.304 72.4815 22.304 59.9847 22.3433 49.6527C22.3433 47.0747 22.3433 44.6278 22.3433 42.3252C22.3433 41.1707 22.3433 40.0555 22.3433 38.9731C22.3192 37.9264 22.3586 36.8793 22.4614 35.8374C22.9111 32.3925 24.7088 29.2666 27.4601 27.1454C29.1538 25.8327 31.1501 24.9665 33.2657 24.6263C33.62 24.5804 33.9217 24.5214 34.2104 24.5017L34.8664 24.4689L35.483 24.4492Z" fill="#263238"/>
<path d="M82.9316 175.5H19.7063C15.5724 175.5 12.2213 178.851 12.2213 182.984V231.502C12.2213 235.636 15.5724 238.987 19.7063 238.987H82.9316C87.0654 238.987 90.4165 235.636 90.4165 231.502V182.984C90.4165 178.851 87.0654 175.5 82.9316 175.5Z" fill="white"/>
<path d="M54.448 237.045C55.2483 239.013 70.7627 253.563 70.7627 253.563V237.045H54.448Z" fill="#8A86F1"/>
<path d="M65.3574 189.584C64.974 188.343 64.3472 187.192 63.5138 186.196C62.6803 185.2 61.6568 184.381 60.503 183.785C57.8984 182.572 54.953 182.303 52.1718 183.024C49.4162 183.753 46.7974 184.925 44.4179 186.494C43.0168 187.269 41.7731 188.299 40.7508 189.531C38.9993 191.86 37.3199 195.658 37.2281 198.571C37.1494 200.926 38.2187 206.784 39.2748 208.89C39.8357 209.76 40.6414 210.445 41.5905 210.858C42.7225 212.945 44.2175 214.813 46.0054 216.375C46.5039 214.783 47.0047 213.189 47.5076 211.593L65.3574 189.584Z" fill="#263238"/>
<path d="M63.9207 186.737L59.2631 186.042C61.9658 191.998 63.0482 205.774 64.6816 212.111C66.3151 209.585 70.0674 201.923 69.7722 198.925C69.477 195.927 69.4114 186.068 63.9207 186.737Z" fill="#263238"/>
<path d="M42.2399 197.403C42.2734 195.709 42.8497 194.07 43.8841 192.727C44.9185 191.384 46.3565 190.409 47.9865 189.945L58.5809 186.921C63.1729 186.265 66.4135 191.873 66.8531 196.492C67.3319 201.621 67.6927 207.047 67.2007 210.924C66.2167 218.677 60.3324 219.845 60.3324 219.845C60.3324 219.845 60.4374 223.512 60.4964 225.749L58.7711 235.845L44.8049 223.919L42.1809 197.495C42.2071 197.364 42.2334 197.581 42.2399 197.403Z" fill="#FFBF9D"/>
<path d="M64.5177 202.914C64.5303 203.171 64.4408 203.423 64.2689 203.614C64.0969 203.806 63.8563 203.922 63.5993 203.937C63.4736 203.952 63.3463 203.941 63.2249 203.905C63.1035 203.87 62.9905 203.81 62.8926 203.73C62.7947 203.65 62.7139 203.551 62.655 203.439C62.5961 203.327 62.5603 203.204 62.5497 203.078C62.5405 202.821 62.6309 202.57 62.802 202.378C62.9731 202.186 63.2118 202.068 63.4681 202.048C63.5942 202.034 63.7216 202.046 63.8431 202.083C63.9645 202.119 64.0774 202.179 64.1752 202.26C64.273 202.341 64.3537 202.44 64.4125 202.552C64.4713 202.665 64.5071 202.788 64.5177 202.914Z" fill="#263238"/>
<path d="M65.7772 199.548C65.6591 199.68 64.8916 199.148 63.8092 199.188C62.7268 199.227 61.979 199.778 61.8412 199.647C61.7034 199.516 61.9002 199.358 62.2348 199.096C62.6865 198.764 63.2291 198.578 63.7895 198.564C64.3425 198.548 64.8867 198.706 65.3442 199.017C65.7182 199.26 65.8362 199.489 65.7772 199.548Z" fill="#263238"/>
<path d="M54.9269 202.914C54.9394 203.171 54.85 203.423 54.6781 203.614C54.5061 203.806 54.2655 203.922 54.0085 203.937C53.8828 203.952 53.7555 203.941 53.6341 203.905C53.5127 203.87 53.3997 203.81 53.3018 203.73C53.2039 203.65 53.1231 203.551 53.0642 203.439C53.0053 203.327 52.9695 203.204 52.9589 203.078C52.9497 202.82 53.041 202.568 53.2135 202.376C53.386 202.184 53.6263 202.066 53.8838 202.048C54.0095 202.034 54.1367 202.046 54.2577 202.083C54.3787 202.119 54.4912 202.18 54.5885 202.26C54.6857 202.341 54.7658 202.44 54.8239 202.553C54.8821 202.665 54.9171 202.788 54.9269 202.914Z" fill="#263238"/>
<path d="M55.6683 199.837C55.5436 199.968 54.7827 199.437 53.7003 199.476C52.6179 199.516 51.8766 200.067 51.7323 199.936C51.5879 199.804 51.7913 199.647 52.1259 199.385C52.5776 199.053 53.1202 198.867 53.6806 198.853C54.2336 198.836 54.7777 198.995 55.2353 199.306C55.6027 199.549 55.7601 199.778 55.6683 199.837Z" fill="#263238"/>
<path d="M59.2302 208.103C59.7889 207.914 60.3681 207.793 60.9555 207.742C61.2245 207.703 61.4803 207.644 61.5197 207.453C61.5337 207.172 61.4628 206.893 61.3163 206.653C61.0408 205.997 60.7522 205.341 60.4438 204.606C59.2368 201.694 58.3578 199.293 58.4758 199.247C58.5939 199.201 59.6632 201.523 60.8702 204.436L61.7099 206.496C61.8888 206.819 61.9491 207.195 61.8805 207.558C61.8441 207.655 61.7862 207.743 61.7112 207.814C61.6363 207.886 61.5461 207.94 61.4475 207.972C61.2982 208.016 61.144 208.043 60.9883 208.05C60.407 208.143 59.8161 208.161 59.2302 208.103Z" fill="#263238"/>
<path d="M50.02 217.365C50.02 217.365 52.6834 222.613 60.3783 221.629L60.352 219.819C56.7471 219.976 53.1697 219.126 50.02 217.365Z" fill="#FF9A6C"/>
<path d="M55.2221 196C55.1237 196.288 54.061 196.19 52.8146 196.374C51.5682 196.557 50.5711 196.938 50.394 196.682C50.3152 196.557 50.4858 196.282 50.886 195.986C51.4189 195.627 52.0266 195.394 52.663 195.304C53.2995 195.214 53.948 195.27 54.5596 195.468C55.0253 195.639 55.2615 195.862 55.2221 196Z" fill="#263238"/>
<path d="M65.3377 196.301C65.1606 196.551 64.4193 196.301 63.5337 196.334C62.6481 196.367 61.9134 196.551 61.7297 196.301C61.651 196.177 61.7625 195.934 62.0839 195.698C62.5128 195.407 63.019 195.252 63.537 195.252C64.055 195.252 64.5611 195.407 64.99 195.698C65.3049 195.934 65.4164 196.183 65.3377 196.301Z" fill="#263238"/>
<path d="M64.5504 189.505C64.2622 188.946 63.8243 188.479 63.2857 188.154C62.747 187.83 62.1288 187.662 61.5 187.668C60.2383 187.701 59.0129 188.098 57.9707 188.81C53.4509 191.598 51.273 198.079 46.8187 200.959C45.7232 201.661 44.2472 201.084 43.3223 202.008C42.3973 202.933 41.8266 204.377 42.3842 205.557C41.7114 204.766 41.1547 203.882 40.7311 202.933C40.5239 202.457 40.4208 201.942 40.4288 201.423C40.4367 200.904 40.5554 200.392 40.777 199.922C41.1509 199.227 41.8266 198.689 41.9971 197.954C42.1677 197.22 41.8594 196.583 41.8725 195.895C41.9342 195.196 42.1589 194.522 42.5285 193.927C44.1444 190.67 46.6162 187.915 49.6789 185.956C51.7004 184.703 54.0246 184.023 56.4029 183.988C58.7882 183.976 61.099 184.819 62.917 186.363C63.96 187.281 65.0555 188.232 64.5635 189.531" fill="#263238"/>
<path d="M43.46 202.96C43.3682 202.743 39.301 201.405 39.3731 205.682C39.4387 209.841 43.6109 208.903 43.6109 208.785C43.6109 208.667 43.46 202.96 43.46 202.96Z" fill="#FFBF9D"/>
<path d="M42.2989 207.237C42.2989 207.237 42.2268 207.289 42.1087 207.342C41.9338 207.411 41.7391 207.411 41.5642 207.342C41.2941 207.174 41.0726 206.939 40.9218 206.659C40.771 206.38 40.6962 206.065 40.7048 205.748C40.6917 205.391 40.7543 205.035 40.8885 204.705C40.9269 204.575 40.9957 204.456 41.0893 204.358C41.1828 204.259 41.2984 204.185 41.4264 204.141C41.5085 204.117 41.5965 204.123 41.6746 204.157C41.7527 204.192 41.8158 204.254 41.8528 204.331C41.9119 204.449 41.8856 204.528 41.9119 204.534C41.9381 204.541 41.9972 204.469 41.9644 204.291C41.9367 204.19 41.8769 204.1 41.7938 204.036C41.6782 203.952 41.5347 203.917 41.3936 203.937C41.2237 203.974 41.066 204.054 40.9353 204.169C40.8045 204.284 40.7049 204.43 40.6458 204.593C40.4757 204.956 40.3968 205.354 40.4162 205.754C40.403 206.126 40.5 206.493 40.6949 206.809C40.8899 207.125 41.1741 207.377 41.5117 207.532C41.6236 207.56 41.7402 207.564 41.8535 207.542C41.9668 207.521 42.074 207.475 42.1677 207.407C42.2924 207.335 42.3186 207.243 42.2989 207.237Z" fill="#FF9A6C"/>
<path d="M41.7413 200.874C41.8271 200.837 41.9085 200.791 41.9841 200.736C42.1415 200.631 42.3777 200.493 42.6401 200.277C43.4404 199.654 44.1726 198.948 44.8245 198.171C45.7677 197.008 46.6438 195.793 47.4485 194.53C48.4187 192.985 49.5158 191.524 50.7285 190.161C51.3819 189.479 52.1078 188.869 52.8933 188.344C53.6306 187.866 54.4237 187.481 55.2549 187.196C56.6627 186.7 58.1523 186.477 59.6436 186.54C60.6492 186.574 61.6462 186.739 62.6087 187.032C62.9498 187.131 63.2057 187.236 63.3828 187.295L63.6583 187.386L63.3959 187.262C63.1459 187.149 62.8896 187.05 62.6284 186.967C61.6656 186.638 60.6602 186.45 59.6436 186.409C58.1326 186.338 56.6222 186.561 55.1959 187.065C54.3503 187.353 53.5439 187.746 52.7949 188.233C51.9937 188.76 51.2543 189.376 50.5908 190.069C49.3726 191.439 48.2752 192.912 47.3108 194.471C46.4986 195.733 45.6228 196.952 44.6868 198.125C44.0707 198.88 43.3855 199.577 42.6401 200.205C42.3645 200.428 42.1284 200.579 41.9841 200.697L41.7413 200.874Z" fill="white"/>
<path d="M42.8237 202.048C42.6909 203.164 42.8538 204.295 43.2961 205.328C43.8537 206.325 45.1919 206.974 46.1628 206.377C46.9565 205.899 47.1665 204.855 47.278 203.937C47.5994 201.28 47.6978 198.597 48.0389 195.94L42.8237 202.048Z" fill="#263238"/>
<path d="M63.4746 187.557C63.4746 187.557 63.1072 187.498 62.4381 187.498C61.4972 187.509 60.5677 187.705 59.7026 188.075C59.1053 188.328 58.5359 188.643 58.0036 189.013C57.3951 189.446 56.8145 189.918 56.2652 190.424C54.9902 191.567 53.8581 192.86 52.8933 194.274C52.3882 195.029 51.9421 195.803 51.4501 196.524C50.9968 197.226 50.4617 197.871 49.856 198.446C48.8031 199.391 47.6454 200.212 46.4055 200.893C45.3624 201.49 44.4834 201.91 43.8799 202.205L43.178 202.527C43.0969 202.57 43.011 202.603 42.9221 202.625C42.995 202.57 43.0743 202.524 43.1583 202.487L43.8143 202.12C44.4047 201.805 45.2706 201.366 46.3005 200.762C47.5129 200.065 48.6458 199.238 49.6789 198.296C50.2743 197.73 50.8006 197.096 51.2468 196.406C51.7256 195.691 52.1717 194.917 52.6834 194.15C53.6648 192.711 54.8192 191.397 56.1208 190.24C56.6829 189.737 57.2743 189.269 57.892 188.836C58.4373 188.462 59.0226 188.149 59.637 187.905C60.5247 187.539 61.4786 187.363 62.4381 187.386C62.6979 187.396 62.9566 187.424 63.2122 187.472C63.3027 187.49 63.3907 187.518 63.4746 187.557Z" fill="#455A64"/>
<path d="M42.64 199.457C42.5302 199.556 42.4091 199.642 42.2792 199.713L41.2427 200.369L40.895 200.579C40.7582 200.666 40.6036 200.722 40.4424 200.743C40.3451 200.76 40.2449 200.741 40.1603 200.69C40.1146 200.659 40.0762 200.618 40.0479 200.57C40.0196 200.523 40.002 200.47 39.9963 200.415C40.0018 200.223 40.0659 200.037 40.18 199.883L41.3477 197.915L41.5182 198.066C41.122 198.37 40.6788 198.607 40.2062 198.768C39.7284 198.926 39.2267 198.999 38.7237 198.984C38.595 198.986 38.4668 198.968 38.3432 198.932C38.2711 198.914 38.204 198.88 38.1472 198.832C38.0903 198.785 38.0452 198.724 38.0152 198.656C37.9902 198.587 37.9819 198.513 37.991 198.44C38.0001 198.367 38.0264 198.298 38.0677 198.237C38.1376 198.142 38.2144 198.052 38.2973 197.968C38.8288 197.424 39.2835 196.811 39.6486 196.144C39.9795 195.51 40.2623 194.852 40.4949 194.176C40.4835 194.366 40.446 194.554 40.3834 194.734C40.237 195.237 40.0414 195.725 39.7995 196.19C39.4405 196.892 38.9833 197.539 38.4416 198.112C38.2907 198.263 38.1398 198.44 38.2054 198.565C38.2711 198.689 38.5006 198.755 38.7171 198.748C39.1938 198.762 39.6691 198.691 40.121 198.538C40.571 198.393 40.9926 198.171 41.3674 197.882L41.8528 197.508L41.5379 198.033L40.344 200.001C40.2511 200.121 40.1942 200.264 40.18 200.415C40.18 200.533 40.2915 200.598 40.4227 200.585C40.6883 200.52 40.9396 200.407 41.164 200.251L42.2333 199.667C42.358 199.577 42.495 199.507 42.64 199.457Z" fill="white"/>
<path d="M55.2419 210.182C55.3096 209.864 55.4875 209.579 55.7442 209.379C56.001 209.179 56.3202 209.075 56.6457 209.087C56.8838 209.11 57.1126 209.192 57.3117 209.324C57.5107 209.457 57.6741 209.637 57.7872 209.848C57.8954 210.061 57.9598 210.294 57.9767 210.533C57.9936 210.772 57.9626 211.012 57.8856 211.239V211.337C57.6722 211.583 57.388 211.756 57.072 211.834C56.756 211.911 56.4237 211.889 56.1209 211.77C55.8185 211.641 55.5679 211.415 55.4086 211.127C55.2494 210.84 55.1907 210.507 55.2419 210.182Z" fill="#FF9A6C"/>
<path d="M58.6399 211.337C58.6399 211.179 57.564 211.258 56.7243 210.399C55.8847 209.539 55.9175 208.385 55.7666 208.385C55.6157 208.385 55.5829 208.66 55.6026 209.146C55.6467 209.775 55.9089 210.369 56.3439 210.825C56.7628 211.265 57.3372 211.524 57.9445 211.547C58.384 211.553 58.653 211.409 58.6399 211.337Z" fill="#263238"/>
<path d="M75.8205 231.325L75.7024 231.168C70.3232 225.48 60.4308 223.578 60.4308 223.578C60.4308 223.578 59.8272 227.297 54.284 227.717C48.7408 228.137 44.6605 222.469 44.6605 222.469L37.2674 223.506C37.2674 223.506 33.5413 223.945 31.2191 225.31C25.9711 228.38 23.229 238.974 23.229 238.974L80.301 239.204L75.8205 231.325Z" fill="#8A86F1"/>
<path d="M81.0423 175.5C81.0423 175.5 81.1735 175.5 81.4359 175.5C81.8317 175.502 82.2266 175.537 82.6167 175.605C84.1405 175.851 85.5789 176.473 86.802 177.415C88.7839 178.946 90.0807 181.197 90.41 183.68C90.4851 184.432 90.5136 185.188 90.4953 185.943C90.4953 186.717 90.4953 187.524 90.4953 188.351C90.4953 190.01 90.4953 191.775 90.4953 193.631C90.4953 201.064 90.4953 210.064 90.5346 220.317C90.5346 222.88 90.5346 225.524 90.5346 228.249C90.5346 228.905 90.5346 229.606 90.5346 230.308C90.4829 231.011 90.3553 231.706 90.1541 232.381C89.733 233.758 89.0039 235.021 88.0221 236.075C87.0248 237.166 85.781 238.002 84.3945 238.515L83.8697 238.705L83.3252 238.843C82.9625 238.936 82.5944 239.006 82.2231 239.053C81.4751 239.121 80.7239 239.148 79.973 239.132H70.789L70.9399 238.974C70.9399 243.566 70.9399 248.506 70.9399 253.55V253.924L70.6644 253.669C68.2503 251.403 65.7969 249.066 63.3041 246.656C60.8244 244.229 58.2922 241.762 55.865 239.118L55.9897 239.177H22.6452C22.0351 239.177 21.425 239.177 20.8018 239.138C18.9555 238.984 17.1941 238.295 15.7331 237.156C14.2721 236.016 13.1748 234.476 12.5756 232.722C12.1975 231.576 12.02 230.373 12.0508 229.167V225.638C12.0508 216.263 12.0508 207.23 12.0508 198.617C12.0508 194.314 12.0508 190.122 12.0508 186.041C12.0146 185.019 12.0805 183.994 12.2476 182.985C12.4602 181.993 12.823 181.039 13.3234 180.157C14.3207 178.43 15.8287 177.055 17.6399 176.221C18.5174 175.822 19.4511 175.561 20.4082 175.447C21.3417 175.366 22.2793 175.339 23.2159 175.368H38.8943L69.7263 175.421L78.11 175.454L69.7263 175.486L38.8943 175.539H28.6738H23.2356C22.3098 175.518 21.3835 175.547 20.4607 175.624C19.0393 175.805 17.6794 176.315 16.4886 177.111C15.2977 177.908 14.3085 178.971 13.5989 180.216C13.1094 181.093 12.7576 182.04 12.5559 183.024C12.3917 184.014 12.3301 185.019 12.3722 186.022C12.3722 190.093 12.3722 194.285 12.3722 198.597C12.3722 207.211 12.3722 216.244 12.3722 225.618V229.147C12.3354 230.316 12.5065 231.482 12.8773 232.591C13.6486 234.848 15.2671 236.715 17.3906 237.8C18.4602 238.352 19.6285 238.686 20.8281 238.784C21.4185 238.823 22.0285 238.83 22.6452 238.823H56.0618L56.1143 238.882C58.5284 241.506 61.0605 243.979 63.5337 246.407C66.0068 248.834 68.4733 251.176 70.8874 253.452L70.6119 253.57C70.6119 248.525 70.6119 243.599 70.6119 238.994V238.836H79.9533C80.691 238.859 81.4294 238.835 82.1641 238.764C82.525 238.723 82.8824 238.655 83.2333 238.561L83.7647 238.43L84.2698 238.246C85.6161 237.752 86.8242 236.942 87.7925 235.884C88.7445 234.864 89.4532 233.642 89.8655 232.309C90.0607 231.653 90.186 230.978 90.2394 230.295C90.2853 229.639 90.2722 228.931 90.2722 228.255C90.2722 225.535 90.2722 222.891 90.2722 220.324C90.2722 210.071 90.2722 201.07 90.3116 193.638C90.3116 191.781 90.3116 190.017 90.3116 188.357V185.95C90.3345 185.201 90.3104 184.452 90.2394 183.706C89.9892 181.723 89.1102 179.872 87.7314 178.424C86.3525 176.977 84.5462 176.01 82.5773 175.664C82.1925 175.587 81.8019 175.543 81.4097 175.532L81.0423 175.5Z" fill="#263238"/>
<path d="M202.704 305.755L120.861 305.696C111.021 305.696 103.044 298.086 103.044 288.706L103.084 93.152C103.084 83.7647 111.074 76.1551 120.927 76.1616L202.776 76.2075C212.616 76.2075 220.593 83.8172 220.593 93.198L220.554 288.745C220.547 298.159 212.544 305.762 202.704 305.755Z" fill="#263238"/>
<path d="M202.704 83.1479H186.816C186.311 83.1471 185.811 83.2457 185.344 83.438C184.877 83.6304 184.453 83.9129 184.095 84.2692C183.738 84.6256 183.454 85.0489 183.26 85.5149C183.066 85.981 182.966 86.4807 182.965 86.9855V89.7276C182.964 90.233 182.863 90.7332 182.669 91.1997C182.475 91.6662 182.19 92.0898 181.832 92.4463C181.474 92.8027 181.049 93.085 180.581 93.277C180.114 93.469 179.613 93.5669 179.108 93.5652H148.177C147.672 93.5661 147.172 93.4675 146.706 93.2751C146.239 93.0827 145.815 92.8003 145.457 92.4439C145.099 92.0876 144.816 91.6643 144.622 91.1982C144.428 90.7321 144.327 90.2324 144.326 89.7276V86.979C144.326 86.4736 144.225 85.9734 144.031 85.5069C143.836 85.0404 143.552 84.6168 143.194 84.2603C142.835 83.9039 142.41 83.6216 141.943 83.4296C141.475 83.2376 140.975 83.1397 140.469 83.1414H120.999C114.105 83.1414 108.535 88.4681 108.535 95.0412L108.496 285.937C108.496 292.497 114.078 297.837 120.96 297.837L202.645 297.883C209.546 297.883 215.109 292.563 215.142 285.99L215.181 95.0937C215.168 88.4812 209.579 83.1545 202.704 83.1479Z" fill="white"/>
<path d="M159.1 130.728C160.254 130.645 161.337 130.135 162.136 129.298C162.936 128.46 163.395 127.355 163.423 126.197C163.452 125.04 163.048 123.913 162.292 123.037C161.535 122.161 160.479 121.598 159.329 121.458C159.888 120.609 160.166 119.606 160.123 118.59C160.079 117.574 159.717 116.598 159.088 115.799C158.459 115.001 157.594 114.421 156.616 114.141C155.639 113.862 154.598 113.897 153.642 114.242C153.412 113.267 152.934 112.367 152.254 111.632C151.573 110.896 150.714 110.349 149.759 110.044C148.804 109.74 147.787 109.688 146.806 109.894C145.825 110.099 144.914 110.556 144.162 111.218C142.88 110.534 141.406 110.296 139.972 110.54C138.539 110.785 137.228 111.499 136.245 112.57C135.243 112.567 134.268 112.888 133.464 113.485C132.66 114.083 132.072 114.924 131.786 115.884C131.5 116.844 131.533 117.87 131.879 118.81C132.225 119.75 132.866 120.552 133.706 121.098" fill="#263238"/>
<path d="M159.887 131.239C158.567 126.445 155.489 122.325 151.267 119.699C147.044 117.073 141.987 116.134 137.104 117.07L136.1 117.26C125.381 119.963 121.668 130.57 124.673 141.217L132.177 179.856L154.265 196.912L159.979 182.683L157.729 169.825C157.729 169.825 167.844 166.217 165.988 155.774C165.115 150.716 162.426 140.476 159.887 131.239Z" fill="#C17560"/>
<path d="M157.84 169.779C152.995 170.705 147.986 170.22 143.408 168.382C143.408 168.382 147.928 175.5 158.148 172.58L157.84 169.779Z" fill="#7C4236"/>
<path d="M158.955 141.237C159.034 141.624 158.957 142.027 158.743 142.359C158.529 142.691 158.193 142.927 157.807 143.015C157.621 143.066 157.426 143.079 157.234 143.054C157.042 143.028 156.857 142.965 156.691 142.867C156.524 142.769 156.378 142.639 156.262 142.484C156.147 142.329 156.063 142.153 156.016 141.965C155.938 141.577 156.014 141.175 156.229 140.842C156.443 140.51 156.779 140.275 157.164 140.187C157.351 140.136 157.546 140.123 157.738 140.148C157.929 140.173 158.114 140.237 158.281 140.334C158.448 140.432 158.594 140.563 158.709 140.717C158.825 140.872 158.909 141.049 158.955 141.237Z" fill="#263238"/>
<path d="M158.614 136.769C158.47 136.992 157.184 136.376 155.583 136.684C153.983 136.992 152.959 137.996 152.75 137.858C152.645 137.786 152.75 137.399 153.209 136.927C153.811 136.315 154.588 135.905 155.433 135.753C156.264 135.588 157.127 135.696 157.893 136.061C158.457 136.343 158.693 136.664 158.614 136.769Z" fill="#263238"/>
<path d="M144.431 144.32C144.508 144.707 144.43 145.109 144.214 145.44C143.998 145.771 143.662 146.005 143.277 146.091C143.091 146.142 142.896 146.156 142.705 146.13C142.514 146.105 142.329 146.041 142.163 145.944C141.997 145.846 141.852 145.715 141.736 145.56C141.621 145.406 141.538 145.229 141.493 145.042C141.414 144.655 141.491 144.253 141.705 143.922C141.92 143.591 142.256 143.357 142.641 143.27C142.827 143.219 143.022 143.206 143.214 143.231C143.406 143.257 143.59 143.32 143.757 143.418C143.924 143.516 144.07 143.646 144.186 143.801C144.301 143.956 144.385 144.132 144.431 144.32Z" fill="#263238"/>
<path d="M142.929 140.063C142.785 140.292 141.499 139.669 139.898 139.977C138.298 140.286 137.274 141.289 137.065 141.152C136.966 141.079 137.065 140.692 137.524 140.227C138.124 139.626 138.893 139.223 139.728 139.072C140.56 138.912 141.421 139.02 142.188 139.38C142.772 139.636 143.008 139.958 142.929 140.063Z" fill="#263238"/>
<path d="M151.005 150.834C151.005 150.742 151.943 150.382 153.517 149.863C153.917 149.745 154.291 149.594 154.304 149.299C154.257 148.87 154.081 148.465 153.799 148.138L152.002 145.258C149.476 141.145 147.567 137.727 147.731 137.629C147.895 137.53 150.08 140.784 152.605 144.897L154.357 147.803C154.707 148.249 154.891 148.804 154.875 149.371C154.843 149.527 154.776 149.673 154.679 149.799C154.583 149.925 154.459 150.028 154.317 150.099C154.108 150.2 153.888 150.275 153.661 150.322C152.035 150.723 151.031 150.919 151.005 150.834Z" fill="#263238"/>
<path d="M142.352 134.519C142.221 134.966 140.764 134.788 139.072 135.051C137.379 135.313 136.002 135.871 135.792 135.477C135.687 135.287 135.917 134.867 136.448 134.428C137.157 133.883 137.996 133.533 138.882 133.411C139.753 133.276 140.645 133.373 141.466 133.693C142.116 133.968 142.437 134.31 142.352 134.519Z" fill="#263238"/>
<path d="M157.729 131.062C157.46 131.489 156.069 131.364 154.449 131.646C152.828 131.928 151.562 132.453 151.169 132.132C150.998 131.968 151.136 131.567 151.661 131.108C152.39 130.525 153.262 130.147 154.186 130.013C155.1 129.841 156.044 129.923 156.915 130.249C157.591 130.544 157.847 130.852 157.729 131.062Z" fill="#263238"/>
<path d="M128.307 151.038C128.221 150.657 128.06 150.298 127.831 149.982C127.603 149.666 127.313 149.4 126.979 149.199C126.645 148.999 126.273 148.868 125.887 148.815C125.5 148.763 125.108 148.789 124.732 148.892C122.823 149.45 120.868 150.965 121.767 154.954C123.348 162.032 130.131 158.982 130.098 158.778C130.065 158.575 128.996 153.996 128.307 151.038Z" fill="#C17560"/>
<path d="M127.959 156.456C127.927 156.456 127.854 156.574 127.671 156.712C127.406 156.905 127.077 156.988 126.752 156.941C125.939 156.83 125.047 155.787 124.725 154.521C124.57 153.918 124.554 153.287 124.679 152.677C124.695 152.441 124.769 152.212 124.893 152.011C125.018 151.81 125.19 151.642 125.394 151.523C125.527 151.456 125.679 151.437 125.824 151.468C125.97 151.499 126.1 151.578 126.195 151.693C126.332 151.871 126.319 152.021 126.365 152.028C126.411 152.034 126.49 151.877 126.365 151.595C126.285 151.429 126.151 151.294 125.985 151.214C125.87 151.167 125.748 151.142 125.624 151.142C125.5 151.142 125.378 151.167 125.263 151.214C124.985 151.337 124.743 151.528 124.561 151.77C124.378 152.013 124.261 152.298 124.22 152.599C124.056 153.278 124.056 153.986 124.22 154.665C124.588 156.082 125.617 157.289 126.706 157.322C126.909 157.335 127.112 157.302 127.301 157.226C127.489 157.15 127.658 157.032 127.795 156.882C127.986 156.633 127.986 156.469 127.959 156.456Z" fill="#7C4236"/>
<path d="M151.142 117.549C151.044 117.383 150.927 117.229 150.795 117.09C150.288 116.575 149.669 116.186 148.985 115.953C148.302 115.719 147.574 115.648 146.859 115.745C145.976 115.483 145.075 115.29 144.162 115.167C143.47 114.346 142.579 113.716 141.574 113.335C140.569 112.955 139.484 112.837 138.421 112.993C137.358 113.15 136.352 113.575 135.5 114.229C134.647 114.882 133.975 115.743 133.548 116.729C133.26 116.827 132.978 116.932 132.696 117.044C131.807 116.617 130.832 116.401 129.847 116.41C128.861 116.42 127.891 116.656 127.011 117.099C126.131 117.543 125.364 118.183 124.77 118.969C124.176 119.755 123.77 120.668 123.584 121.636C122.665 121.565 121.746 121.768 120.942 122.218C120.138 122.668 119.485 123.345 119.065 124.165C118.644 124.985 118.475 125.91 118.579 126.826C118.683 127.741 119.055 128.606 119.648 129.311C118.506 130.288 117.68 131.771 117.903 133.247C118.126 134.723 119.674 135.759 120.979 135.339C121.38 138.803 122.508 142.752 123.361 146.262C123.964 148.735 127.421 149.614 127.953 151.267C130.708 159.697 132.623 154.383 130.301 136.284C130.452 136.107 130.61 135.923 130.76 135.726C130.981 135.303 131.171 134.864 131.331 134.414C131.633 133.883 132.381 133.89 132.991 133.837C134.047 133.719 135.03 133.241 135.775 132.483C136.52 131.726 136.983 130.736 137.084 129.678C137.74 130.334 138.993 130.098 139.708 129.429C140.335 128.693 140.854 127.871 141.25 126.989C141.742 126.149 142.496 125.342 143.461 125.296C143.997 125.373 144.541 125.389 145.081 125.342C145.999 125.086 146.249 123.899 146.209 122.948C146.092 122.143 146.197 121.322 146.511 120.573C147.024 120.184 147.605 119.892 148.223 119.714C148.584 119.714 148.958 119.713 149.312 119.674C149.482 119.665 149.651 119.643 149.817 119.609C150.052 119.64 150.284 119.686 150.513 119.746C153.95 120.671 157.938 126.674 157.938 126.674C157.44 122.475 154.501 119.458 151.142 117.549Z" fill="#263238"/>
<path d="M118.828 129.829C118.828 129.829 118.828 129.79 118.874 129.711C118.92 129.632 118.959 129.527 119.044 129.389C119.303 128.998 119.627 128.654 120.002 128.373C120.599 127.929 121.294 127.634 122.029 127.513C123.001 127.344 124.002 127.515 124.863 127.999L124.679 128.097C124.743 127.288 124.978 126.501 125.37 125.79C125.761 125.078 126.3 124.458 126.949 123.971C127.666 123.403 128.482 122.973 129.357 122.705C130.281 122.437 131.243 122.324 132.204 122.37C134.004 122.479 135.769 122.924 137.406 123.682L137.209 123.787C137.531 122.182 138.45 120.759 139.78 119.805C140.642 119.2 141.644 118.822 142.691 118.707C143.738 118.593 144.797 118.745 145.77 119.149C145.973 119.232 146.17 119.329 146.36 119.438C146.485 119.517 146.55 119.563 146.544 119.569C146.537 119.576 146.268 119.431 145.737 119.235C144.974 118.958 144.167 118.827 143.356 118.848C142.119 118.873 140.919 119.276 139.918 120.002C138.655 120.931 137.786 122.301 137.484 123.84L137.452 124.017L137.288 123.945C135.683 123.2 133.955 122.756 132.19 122.633C131.263 122.592 130.335 122.7 129.442 122.954C128.6 123.205 127.814 123.615 127.126 124.161C126.501 124.624 125.98 125.214 125.599 125.892C125.218 126.571 124.985 127.322 124.915 128.097V128.294L124.745 128.196C123.935 127.724 122.988 127.545 122.062 127.69C121.353 127.791 120.679 128.059 120.094 128.471C119.586 128.836 119.156 129.297 118.828 129.829Z" fill="#455A64"/>
<path d="M146.524 120.081C146.508 120.183 146.484 120.284 146.452 120.383C146.393 120.67 146.355 120.962 146.34 121.255C146.34 121.642 146.34 122.114 146.294 122.672C146.311 123.318 146.188 123.96 145.934 124.555C145.84 124.73 145.712 124.884 145.558 125.009C145.403 125.134 145.226 125.227 145.035 125.283C144.633 125.379 144.222 125.43 143.808 125.434C143.39 125.435 142.979 125.543 142.614 125.749C142.253 126.019 141.952 126.36 141.729 126.752C141.479 127.152 141.256 127.592 141.014 128.064C140.797 128.542 140.509 128.984 140.161 129.376C139.749 129.767 139.246 130.049 138.698 130.196C138.415 130.281 138.12 130.317 137.826 130.301C137.502 130.296 137.193 130.164 136.966 129.934L137.215 129.842C137.196 130.742 136.872 131.609 136.297 132.302C135.688 133.014 134.893 133.543 134.001 133.831C133.631 133.948 133.251 134.034 132.866 134.086C132.51 134.075 132.156 134.142 131.83 134.283C131.532 134.45 131.3 134.714 131.174 135.031C131.009 135.361 130.818 135.677 130.603 135.976C129.836 137.18 128.644 138.051 127.264 138.416C126.002 138.597 124.717 138.313 123.649 137.616C122.732 137.038 122.009 136.196 121.576 135.202L121.714 135.254C121.327 135.415 120.91 135.488 120.491 135.469C120.073 135.449 119.664 135.338 119.294 135.143C118.738 134.845 118.304 134.362 118.067 133.778C117.917 133.419 117.848 133.032 117.863 132.643C117.864 132.544 117.875 132.445 117.896 132.348C117.896 132.282 117.896 132.25 117.896 132.25C117.856 132.759 117.942 133.27 118.146 133.739C118.386 134.284 118.808 134.729 119.339 134.998C119.689 135.173 120.072 135.27 120.463 135.283C120.854 135.295 121.243 135.223 121.603 135.07L121.701 135.031L121.74 135.123C122.17 136.069 122.871 136.865 123.754 137.412C124.772 138.063 125.99 138.324 127.185 138.147C128.488 137.795 129.614 136.969 130.341 135.831C130.549 135.546 130.734 135.243 130.892 134.926C131.046 134.556 131.318 134.247 131.666 134.047C131.845 133.95 132.041 133.887 132.243 133.863L132.801 133.817C133.166 133.768 133.526 133.684 133.876 133.568C134.717 133.303 135.467 132.807 136.041 132.138C136.579 131.497 136.882 130.692 136.901 129.855V129.514L137.137 129.763C137.341 129.917 137.581 130.014 137.833 130.048C138.086 130.081 138.343 130.049 138.58 129.954C139.084 129.82 139.546 129.563 139.925 129.206C140.276 128.825 140.564 128.391 140.778 127.92C141.027 127.474 141.256 127.034 141.519 126.608C141.763 126.189 142.091 125.825 142.483 125.539C142.884 125.314 143.336 125.199 143.795 125.204C144.192 125.203 144.588 125.159 144.976 125.073C145.142 125.027 145.298 124.949 145.434 124.844C145.57 124.738 145.684 124.606 145.77 124.456C146.025 123.889 146.155 123.274 146.15 122.652C146.183 122.101 146.203 121.622 146.242 121.235C146.269 120.938 146.324 120.644 146.406 120.356C146.434 120.26 146.474 120.168 146.524 120.081Z" fill="#455A64"/>
<path d="M146.544 154.58C146.249 156.548 147.095 158.431 148.945 159.106C149.305 159.218 149.683 159.257 150.059 159.222C150.434 159.187 150.799 159.079 151.132 158.903C151.465 158.726 151.761 158.486 152.001 158.196C152.241 157.906 152.422 157.571 152.533 157.21C152.745 156.406 152.76 155.562 152.579 154.75C150.88 154.652 148.256 154.678 146.544 154.58Z" fill="#7C4236"/>
<path d="M152.192 158.004C152.192 158.004 152.192 158.057 152.12 158.142C152.038 158.267 151.941 158.382 151.831 158.483C151.428 158.867 150.918 159.121 150.368 159.211C149.54 159.338 148.694 159.166 147.98 158.726C147.555 158.442 147.192 158.074 146.915 157.644C146.639 157.214 146.454 156.731 146.373 156.226C146.334 155.961 146.321 155.693 146.334 155.426C146.335 155.146 146.407 154.87 146.544 154.626C146.629 154.494 146.756 154.395 146.905 154.344C147.036 154.302 147.174 154.284 147.311 154.291H148.007C148.905 154.337 149.712 154.422 150.388 154.494C151.733 154.639 152.572 154.678 152.572 154.731C151.84 154.817 151.101 154.817 150.368 154.731C149.712 154.691 148.886 154.626 147.994 154.599H147.338C147.108 154.599 146.944 154.632 146.846 154.79C146.749 154.995 146.7 155.219 146.701 155.446C146.671 156.033 146.791 156.617 147.049 157.145C147.307 157.673 147.695 158.127 148.177 158.463C148.825 158.874 149.593 159.053 150.355 158.968C150.874 158.911 151.366 158.706 151.772 158.378C152.048 158.155 152.192 157.978 152.192 158.004Z" fill="#263238"/>
<path d="M191.814 135.366C191.814 135.366 200.126 134.329 212.616 124.391C225.106 114.452 231.876 100.329 233.267 100.539C234.658 100.749 241.054 98.4723 250.323 124.903C259.592 151.333 254.436 156.784 252.127 156.515C249.818 156.246 234.494 150.382 224.575 150.578C214.656 150.775 201.53 154.698 201.53 154.698L191.814 135.366Z" fill="#8A86F1"/>
<path d="M176.864 155.098L181.305 154.154L178.898 148.309L175.145 150.185L176.864 155.098Z" fill="#455A64"/>
<path d="M177.382 148.151L179.022 153.084L180.046 155.564C180.713 157.211 181.988 158.539 183.608 159.272C185.227 160.005 187.066 160.086 188.744 159.5L206.765 154.429L199.024 131.613L181.115 139.164C179.435 139.869 178.101 141.208 177.402 142.891C176.704 144.573 176.696 146.463 177.382 148.151Z" fill="#263238"/>
<path d="M183.844 155.734L189.879 166.434L192.634 165.548L211.481 179.613L216.159 169.432C216.159 169.432 205.19 165.24 203.039 161.481C200.887 157.722 203.157 156.758 203.157 156.758L197.85 151.208L183.844 155.734Z" fill="#263238"/>
<path d="M249.332 125.296C254.233 139.603 255.663 152.074 252.521 153.15C249.378 154.226 242.851 143.507 237.944 129.199C233.037 114.892 231.614 102.421 234.756 101.339C237.898 100.257 244.426 110.969 249.332 125.296Z" fill="#263238"/>
<path d="M236.98 121.032C236.98 121.032 244.472 117.313 247.443 127.238C250.415 137.163 242.818 138.036 242.818 138.036C240.084 132.67 238.118 126.946 236.98 121.032Z" fill="#FAFAFA"/>
<path d="M230.531 108.929C230.508 109.549 230.543 110.171 230.636 110.785C230.748 111.973 230.905 113.698 231.161 115.823C231.367 116.877 231.585 118.023 231.817 119.261C231.942 119.877 232.066 120.52 232.191 121.176C232.257 121.504 232.322 121.839 232.388 122.18C232.467 122.514 232.572 122.836 232.663 123.19L233.877 127.461L234.192 128.576C234.297 128.956 234.461 129.317 234.592 129.691C234.868 130.439 235.15 131.193 235.438 131.961L236.291 134.231C236.435 134.598 236.554 134.978 236.724 135.333L237.216 136.389L239.112 140.41C239.269 140.725 239.407 141.066 239.571 141.348L240.083 142.234L241.06 143.933L242.818 146.957C244.019 148.728 245.029 150.126 245.724 151.096C246.059 151.62 246.441 152.112 246.866 152.566C246.597 152.006 246.281 151.471 245.921 150.965L243.179 146.721L241.5 143.664L240.562 141.978C240.398 141.683 240.234 141.388 240.063 141.092C239.893 140.797 239.774 140.469 239.624 140.148C239.033 138.869 238.41 137.524 237.774 136.14L237.282 135.09C237.118 134.736 237 134.362 236.855 133.994L236.016 131.744C235.734 130.983 235.451 130.229 235.169 129.488C235.038 129.12 234.874 128.76 234.776 128.386C234.677 128.012 234.559 127.638 234.448 127.27L233.214 123.033C233.123 122.698 233.011 122.377 232.932 122.036C232.854 121.694 232.788 121.38 232.722 121.045C232.585 120.389 232.447 119.733 232.322 119.143C232.06 117.922 231.811 116.781 231.588 115.738C231.292 113.652 231.043 111.953 230.873 110.746C230.806 110.132 230.692 109.525 230.531 108.929Z" fill="#263238"/>
<path d="M206.765 154.396C206.505 154.515 206.232 154.601 205.951 154.652L203.721 155.242C201.831 155.728 199.227 156.417 196.354 157.21C193.481 158.004 190.889 158.726 188.994 159.178C188.042 159.415 187.275 159.592 186.737 159.703C186.461 159.773 186.181 159.819 185.897 159.841C186.158 159.723 186.431 159.633 186.711 159.572L188.928 158.916L196.269 156.837C199.135 156.043 201.759 155.387 203.662 154.96C204.613 154.744 205.387 154.58 205.925 154.482C206.202 154.427 206.483 154.398 206.765 154.396Z" fill="#455A64"/>
<path d="M196.144 150.67C195.587 150.984 194.997 151.237 194.386 151.425C193.277 151.838 191.762 152.363 190.01 152.881C188.259 153.399 186.698 153.799 185.55 154.062C184.935 154.237 184.304 154.349 183.667 154.396C184.259 154.158 184.868 153.967 185.491 153.826C186.625 153.504 188.187 153.065 189.912 152.553C191.637 152.041 193.192 151.549 194.307 151.195C194.904 150.971 195.519 150.796 196.144 150.67Z" fill="#455A64"/>
<path d="M193.31 145.461C191.496 146.19 189.641 146.81 187.754 147.318C185.898 147.939 184.008 148.452 182.092 148.853C183.908 148.123 185.766 147.501 187.655 146.99C189.509 146.372 191.397 145.862 193.31 145.461Z" fill="#455A64"/>
<path d="M190.515 140.443C188.987 141.297 187.405 142.051 185.779 142.7C184.201 143.46 182.575 144.117 180.912 144.668C182.435 143.807 184.016 143.051 185.641 142.405C187.22 141.642 188.849 140.987 190.515 140.443Z" fill="#455A64"/>
<path d="M170.238 196.898L159.296 178.432L131.003 177.264V179.836C131.003 179.836 123.236 187.655 120.73 198.302C118.834 206.365 126.811 237.131 129.055 247.798C131.81 260.918 135.615 277.501 135.615 277.501C135.044 280.44 131.272 282.821 131.534 286.744L194.419 286.055L191.185 273.309L170.238 196.898Z" fill="#8A86F1"/>
<path d="M192.057 278.196C192.057 278.295 179.541 278.367 164.105 278.367C148.669 278.367 136.159 278.295 136.159 278.196C136.159 278.098 148.669 278.026 164.105 278.026C179.541 278.026 192.057 278.105 192.057 278.196Z" fill="white"/>
<path d="M187.708 262.4C187.708 262.498 175.309 262.577 160.018 262.577C144.727 262.577 132.322 262.498 132.322 262.4C132.322 262.302 144.72 262.229 160.018 262.229C175.316 262.229 187.708 262.328 187.708 262.4Z" fill="white"/>
<path d="M183.444 245.272C183.444 245.364 171.308 245.442 156.338 245.442C141.368 245.442 129.232 245.344 129.232 245.272C129.232 245.2 141.361 245.101 156.331 245.101C171.301 245.101 183.444 245.173 183.444 245.272Z" fill="white"/>
<path d="M180.459 228.013C180.459 228.104 167.956 228.183 152.54 228.183C137.124 228.183 124.627 228.104 124.627 228.013C124.627 227.921 137.124 227.842 152.54 227.842C167.956 227.842 180.459 227.914 180.459 228.013Z" fill="white"/>
<path d="M173.84 206.601C173.84 206.693 162.032 206.771 147.423 206.771C132.814 206.771 121.006 206.693 121.006 206.601C121.006 206.509 132.814 206.424 147.423 206.424C162.032 206.424 173.84 206.502 173.84 206.601Z" fill="white"/>
<path d="M164.846 186.96C164.846 187.052 156.115 187.131 145.337 187.131C134.559 187.131 125.827 187.052 125.827 186.96C125.827 186.868 134.559 186.79 145.337 186.79C156.115 186.79 164.846 186.895 164.846 186.96Z" fill="white"/>
<path opacity="0.3" d="M128.779 208.287C131.533 212.909 135.007 217.061 139.072 220.587C145.389 225.835 164.61 235.242 164.61 235.242L166.217 231.922L180.557 235.274L177.933 226.445L128.779 208.287Z" fill="black"/>
<path d="M196.242 184.992L191.237 212.177L148.361 191.795L141.453 215.975C158.306 224.214 192.418 237.931 196.807 237.538C203.052 236.973 207.368 233.241 209.31 224.096C210.517 218.435 209.966 180.472 209.966 180.472L196.242 184.992Z" fill="#C17560"/>
<path d="M151.162 188.141C151.162 188.141 135.129 178.235 128.136 190.719C123.138 202.894 128.668 212.616 141.014 218.651C146.964 221.564 155.072 225.159 163.259 228.577L175.191 202.094L151.162 188.141Z" fill="#8A86F1"/>
<path d="M151.162 188.141C151.162 188.141 151.319 188.213 151.608 188.377L152.881 189.092L157.722 191.86L175.263 201.976L175.368 202.041L175.316 202.153L163.416 228.642L163.35 228.793L163.2 228.727C159.001 226.982 154.672 225.119 150.263 223.151C148.317 222.277 146.395 221.402 144.497 220.527C142.608 219.642 140.745 218.756 138.954 217.779C138.079 217.276 137.215 216.749 136.363 216.198C135.549 215.607 134.71 215.07 133.968 214.414C132.453 213.197 131.09 211.803 129.908 210.261L129.094 209.093C128.831 208.706 128.592 208.303 128.379 207.886C127.932 207.079 127.541 206.242 127.211 205.38C127.061 204.954 126.949 204.508 126.818 204.068L126.628 203.412C126.575 203.189 126.549 202.973 126.503 202.756C126.431 202.323 126.352 201.884 126.28 201.444C126.208 201.005 126.227 200.578 126.201 200.132C126.154 199.282 126.169 198.429 126.247 197.581C126.313 196.747 126.49 195.934 126.608 195.134C126.726 194.333 127.008 193.572 127.225 192.818C127.441 192.064 127.756 191.355 128.012 190.647C128.944 188.952 130.238 187.485 131.803 186.35C133.235 185.38 134.864 184.74 136.573 184.474C139.318 184.14 142.103 184.411 144.733 185.267C146.4 185.785 148.02 186.443 149.574 187.235C150.106 187.511 150.499 187.734 150.768 187.891C151.037 188.049 151.155 188.141 151.155 188.141L150.749 187.924C150.48 187.78 150.093 187.57 149.535 187.308C147.974 186.546 146.352 185.914 144.687 185.418C142.079 184.59 139.32 184.341 136.605 184.69C134.931 184.956 133.338 185.593 131.941 186.553C130.411 187.674 129.148 189.119 128.241 190.784C127.992 191.493 127.73 192.208 127.467 192.943C127.205 193.677 127.067 194.451 126.87 195.226C126.674 196 126.588 196.82 126.523 197.646C126.45 198.482 126.437 199.321 126.483 200.159C126.483 200.578 126.529 201.011 126.569 201.471C126.608 201.93 126.713 202.323 126.792 202.75C126.831 202.966 126.857 203.183 126.91 203.406L127.1 204.062C127.231 204.488 127.336 204.921 127.494 205.341C127.817 206.187 128.201 207.009 128.642 207.801C128.854 208.209 129.088 208.606 129.343 208.988L130.15 210.13C131.319 211.65 132.667 213.025 134.165 214.223C134.924 214.851 135.715 215.44 136.533 215.988C137.364 216.535 138.221 217.055 139.105 217.549C140.876 218.514 142.739 219.406 144.628 220.285C146.518 221.164 148.446 222.049 150.394 222.909C154.79 224.877 159.119 226.74 163.311 228.491L163.095 228.577C167.549 218.737 171.623 209.671 175.054 202.114L175.113 202.284L157.63 192.064L152.848 189.158L151.602 188.41C151.306 188.272 151.162 188.141 151.162 188.141Z" fill="#263238"/>
<path d="M195.599 189.65L196.564 179.521C196.564 179.521 192.693 171.728 192.772 170.947C192.851 170.166 193.074 165.87 193.074 165.87L202.75 157.158C202.75 157.158 205.886 157.158 205.964 160.261C205.964 160.261 208.975 159.605 209.021 163.239C209.021 163.239 212.301 163.357 212.367 166.001C212.367 166.001 214.335 165.738 214.269 168.5C214.217 170.468 213.351 178.084 213.351 178.084L209.303 185.123L208.969 192.162L195.599 189.65Z" fill="#C17560"/>
<path d="M196.603 222.109C196.492 222.148 195.777 219.688 194.314 216.933C192.851 214.178 191.152 212.249 191.237 212.177C191.67 212.533 192.056 212.943 192.385 213.397C193.231 214.45 193.978 215.578 194.616 216.769C195.247 217.961 195.774 219.205 196.19 220.488C196.39 221.011 196.529 221.554 196.603 222.109Z" fill="#7C4236"/>
<path d="M141.453 184.776C141.339 185.096 141.196 185.406 141.027 185.701C140.732 186.284 140.292 187.118 139.715 188.141C138.606 190.194 137.025 193.002 135.261 196.085L130.715 203.957L129.337 206.345C129.177 206.645 128.995 206.932 128.792 207.204C128.907 206.884 129.049 206.574 129.219 206.279C129.514 205.702 129.954 204.862 130.531 203.839C131.64 201.786 133.214 198.978 134.985 195.895C136.756 192.812 138.337 190.076 139.525 188.023C140.089 187.059 140.555 186.252 140.909 185.635C141.065 185.333 141.247 185.046 141.453 184.776Z" fill="white"/>
<path d="M154.527 190.502C154.505 190.605 154.47 190.704 154.422 190.798L154.062 191.618C153.74 192.333 153.268 193.349 152.658 194.602C151.451 197.108 149.725 200.539 147.705 204.272C145.684 208.005 143.769 211.33 142.326 213.712C141.604 214.899 141.014 215.857 140.594 216.513L140.108 217.267C140.053 217.356 139.989 217.439 139.918 217.517C139.918 217.517 139.951 217.412 140.049 217.228L140.482 216.447L142.116 213.587C143.5 211.18 145.396 207.834 147.403 204.108C149.411 200.382 151.182 196.971 152.441 194.491L153.943 191.565L154.357 190.771C154.401 190.674 154.459 190.584 154.527 190.502Z" fill="white"/>
<path d="M169.156 198.689C169.048 199.061 168.915 199.425 168.756 199.778C168.487 200.434 168.067 201.458 167.529 202.671C166.447 205.092 164.846 208.398 162.872 211.94C160.897 215.483 158.936 218.579 157.433 220.777C156.686 221.872 156.062 222.745 155.616 223.342C155.403 223.663 155.164 223.965 154.901 224.247C155.078 223.905 155.282 223.578 155.511 223.27L157.23 220.646C158.673 218.422 160.602 215.312 162.576 211.783C164.551 208.254 166.171 204.967 167.306 202.599L168.618 199.752C168.765 199.382 168.945 199.027 169.156 198.689Z" fill="white"/>
<path d="M131.036 298.887L132.4 286.744L192.392 286.082L193.92 298.887H131.036Z" fill="#263238"/>
<path d="M205.328 297.824C205.328 297.916 186.848 297.995 164.052 297.995C141.256 297.995 122.777 297.916 122.777 297.824C122.777 297.732 141.256 297.654 164.052 297.654C186.848 297.654 205.328 297.719 205.328 297.824Z" fill="#455A64"/>
<path d="M171.892 85.9426H149.581C148.842 85.9426 148.243 86.5418 148.243 87.2809V88.2452C148.243 88.9843 148.842 89.5834 149.581 89.5834H171.892C172.631 89.5834 173.23 88.9843 173.23 88.2452V87.2809C173.23 86.5418 172.631 85.9426 171.892 85.9426Z" fill="#455A64"/>
<path d="M179.291 87.7663C179.291 88.127 179.184 88.4796 178.984 88.7795C178.784 89.0794 178.499 89.3131 178.166 89.4512C177.832 89.5892 177.466 89.6253 177.112 89.555C176.758 89.4846 176.433 89.3109 176.178 89.0558C175.923 88.8008 175.749 88.4759 175.679 88.1221C175.609 87.7683 175.645 87.4016 175.783 87.0684C175.921 86.7352 176.155 86.4504 176.454 86.25C176.754 86.0496 177.107 85.9426 177.468 85.9426C177.707 85.9426 177.944 85.9898 178.166 86.0815C178.387 86.1731 178.588 86.3074 178.757 86.4768C178.926 86.6461 179.061 86.8472 179.152 87.0684C179.244 87.2897 179.291 87.5268 179.291 87.7663Z" fill="#455A64"/>
<path d="M103.7 114.203H105.176V144.642H103.7C102.622 144.642 101.587 144.213 100.824 143.45C100.062 142.688 99.6332 141.653 99.6332 140.574V118.27C99.6332 117.736 99.7384 117.207 99.9428 116.714C100.147 116.22 100.447 115.772 100.824 115.394C101.202 115.017 101.65 114.717 102.144 114.513C102.637 114.308 103.166 114.203 103.7 114.203Z" fill="#263238"/>
<path d="M103.333 158.431H104.809V188.869H103.333C102.254 188.869 101.22 188.441 100.457 187.678C99.6944 186.915 99.2659 185.881 99.2659 184.802V162.498C99.2659 161.419 99.6944 160.385 100.457 159.622C101.22 158.859 102.254 158.431 103.333 158.431Z" fill="#263238"/>
<path d="M103.438 203.544C103.34 203.544 103.267 181.45 103.267 154.199C103.267 126.949 103.34 104.848 103.438 104.848C103.536 104.848 103.609 126.942 103.609 154.199C103.609 181.456 103.53 203.544 103.438 203.544Z" fill="#455A64"/>
</svg>
