<svg width="11" height="13" viewBox="0 0 11 13" fill="none" xmlns="http://www.w3.org/2000/svg">
<path d="M5.50004 7.28801C5.71386 7.28801 5.92559 7.24362 6.12314 7.15736C6.32069 7.0711 6.50019 6.94467 6.65138 6.78529C6.80258 6.6259 6.92252 6.43669 7.00434 6.22844C7.08617 6.0202 7.12829 5.797 7.12829 5.5716C7.12829 5.3462 7.08617 5.123 7.00434 4.91476C6.92252 4.70651 6.80258 4.5173 6.65138 4.35791C6.50019 4.19853 6.32069 4.0721 6.12314 3.98584C5.92559 3.89958 5.71386 3.85519 5.50004 3.85519C5.0682 3.85519 4.65404 4.03602 4.34869 4.35791C4.04333 4.6798 3.87178 5.11638 3.87178 5.5716C3.87178 6.02682 4.04333 6.4634 4.34869 6.78529C4.65404 7.10718 5.0682 7.28801 5.50004 7.28801Z" stroke="#F55459"/>
<path d="M1.12669 4.57036C2.15478 -0.193786 8.85045 -0.188284 9.87333 4.57586C10.4735 7.37053 8.82436 9.7361 7.37876 11.1995C6.87362 11.713 6.19919 12 5.4974 12C4.7956 12 4.12117 11.713 3.61604 11.1995C2.17566 9.7361 0.526531 7.36503 1.12669 4.57036Z" stroke="#F55459"/>
</svg>
