<svg width="61" height="65" viewBox="0 0 61 65" fill="none" xmlns="http://www.w3.org/2000/svg">
<path d="M59.0731 27.2012H58.0962V39.2791H59.0731V27.2012Z" fill="#FFE8BB"/>
<path d="M31.7556 40.4949L31.4439 40.1559C29.8847 40.0259 27.5155 39.359 26.0149 37.3847C25.9272 37.2696 25.8468 37.1484 25.7743 37.022C25.6398 36.7912 25.5451 36.5367 25.4949 36.2705C25.2399 34.8461 26.6219 33.8093 27.2727 33.6397C28.0916 33.4288 29.5007 33.7031 30.0687 33.8314C30.2242 33.8672 30.3172 33.8906 30.3172 33.8906C30.4187 33.899 30.5207 33.899 30.6222 33.8906C30.6921 33.8864 30.7671 33.8808 30.8473 33.874C30.8732 33.874 30.8992 33.8714 30.9263 33.8685C30.9419 33.8685 30.9568 33.8685 30.973 33.8659C31.2819 33.8428 31.5921 33.847 31.9005 33.8782C31.9886 33.888 32.0804 33.9016 32.175 33.9182C32.2265 33.9279 32.2784 33.939 32.3315 33.9507C32.3742 33.9604 32.4169 33.9715 32.4608 33.9832C32.4931 33.9917 32.5254 34.0011 32.5578 34.0108C32.6239 34.03 32.6898 34.0508 32.7557 34.0742C32.7588 34.0755 32.7618 34.0765 32.7649 34.0771C32.7954 34.0878 32.8259 34.0989 32.8564 34.1116V34.11C33.3309 34.2972 33.7708 34.5721 34.1554 34.9225C34.5137 35.2452 34.9084 35.5816 35.3186 35.9166C35.8676 36.3635 36.4444 36.8087 37.0083 37.214C37.0083 37.214 37.213 37.2556 37.5183 37.2969L37.5222 37.2625V33.25H45.0036C46.2236 36.0125 48.135 41.025 49.4898 45.0456C50.8989 49.226 55.4276 56.5278 56.3462 58.9682C57.4397 61.8692 57.4397 63.4857 57.4397 63.4857H41.3488C41.3558 62.8481 41.2927 62.2117 41.16 61.5897L41.7462 58.7947C41.2908 58.807 40.5738 58.7947 40.5738 58.7947V58.7973C40.4911 58.7781 40.0809 58.6692 38.4083 58.2045C35.8566 57.4957 30.3236 50.1178 30.3236 50.1178C29.7649 49.8393 28.7852 48.538 28.2054 47.7203C27.9163 47.3128 27.7402 46.8269 27.697 46.3179H27.6878C27.6878 46.3179 24.7806 45.9604 23.2187 45.43C23.2187 45.43 20.7305 44.7352 20.0369 44.4167C20.0369 44.4167 15.6894 42.6974 14.5908 42.0205C13.4922 41.3435 14.0113 38.5059 16.2107 39.1842C17.506 39.5826 18.6473 39.9866 18.7004 40.0061C19.1958 40.3854 19.7907 40.5892 20.4008 40.5879H23.6182C23.6182 40.5879 27.3679 41.4579 28.073 41.6246L28.1645 41.6301C28.2389 41.2674 28.3585 40.9168 28.5202 40.5879H31.6903L31.7556 40.4949Z" fill="#FFE8BB"/>
<path d="M56.5488 31.0631C56.558 31.0495 56.5668 31.0358 56.576 31.0231C56.5433 31.3686 56.421 31.6975 56.2228 31.9731C56.0892 32.1773 55.8967 32.3297 55.6744 32.4071C55.4524 32.4846 55.2126 32.4829 54.9915 32.4024L54.229 33.4336L53.375 32.2783L54.1375 31.2471C54.0735 30.9618 54.0689 30.6651 54.1235 30.3776C54.1784 30.0902 54.2912 29.8189 54.4544 29.5827C54.6258 29.3369 54.8765 29.1674 55.1583 29.1069C55.1471 29.1178 55.137 29.1299 55.1278 29.143C54.9366 29.4217 54.8335 29.758 54.8335 30.1032C54.8335 30.4484 54.9366 30.7847 55.1278 31.0634C55.2074 31.1857 55.3136 31.2856 55.4374 31.3546C55.5612 31.4235 55.6988 31.4595 55.8385 31.4595C55.9782 31.4595 56.1157 31.4234 56.2393 31.3544C56.3631 31.2853 56.4692 31.1854 56.5488 31.0631Z" fill="#55DEFF"/>
<path d="M55.8654 35.2354C56.0218 35.4629 56.106 35.7372 56.106 36.0193C56.106 36.3011 56.0218 36.5757 55.8654 36.8029C55.8004 36.9027 55.7135 36.9846 55.6125 37.0408C55.5116 37.097 55.399 37.1266 55.285 37.1266C55.1709 37.1266 55.0583 37.097 54.9574 37.0408C54.8564 36.9846 54.7695 36.9027 54.7045 36.8029C54.549 36.5819 54.4651 36.3128 54.4654 36.0366L54.4551 36.0515L53.372 34.589L52.518 33.4336L51.7555 32.4024C51.5341 32.4832 51.294 32.4851 51.0717 32.4077C50.849 32.3303 50.6563 32.1779 50.5224 31.9734C50.325 31.6975 50.203 31.3687 50.1704 31.0235C50.1793 31.0361 50.1872 31.0498 50.1976 31.0634C50.2769 31.1859 50.383 31.286 50.5068 31.3552C50.6307 31.4243 50.7682 31.4604 50.9079 31.4604C51.0476 31.4604 51.1851 31.4243 51.309 31.3552C51.4328 31.286 51.5389 31.1859 51.6182 31.0634C51.8098 30.7848 51.9129 30.4485 51.9129 30.1032C51.9129 29.7579 51.8098 29.4216 51.6182 29.143C51.6094 29.1305 51.5999 29.1184 51.5899 29.1069C51.8708 29.1676 52.1209 29.3371 52.2914 29.5827C52.4549 29.8188 52.568 30.09 52.6229 30.3774C52.6781 30.6649 52.6735 30.9616 52.6098 31.2471L53.3723 32.2783L54.2263 33.4336L55.3081 34.8961L55.2978 34.9114C55.4091 34.9163 55.518 34.9481 55.6162 35.0044C55.7147 35.0603 55.7998 35.1396 55.8654 35.2354Z" fill="#55DEFF"/>
<path d="M52.5166 33.4333L53.3718 34.5887L52.9823 35.1155L52.5166 33.4333Z" fill="#313553"/>
<path d="M52.5168 33.4333L52.9825 35.1155L52.289 36.0515L52.2774 36.0366C52.278 36.3132 52.1938 36.5823 52.038 36.8033C51.973 36.903 51.8861 36.9846 51.7851 37.0408C51.6838 37.0974 51.5716 37.1266 51.4575 37.1266C51.3435 37.1266 51.2312 37.0974 51.13 37.0408C51.029 36.9846 50.9421 36.903 50.8771 36.8033C50.7216 36.5754 50.6377 36.3011 50.6377 36.0194C50.6377 35.7376 50.7216 35.4633 50.8771 35.2355C50.943 35.1393 51.0281 35.0603 51.1266 35.0041C51.2248 34.9478 51.3337 34.916 51.4453 34.9105L51.4337 34.8952L52.5168 33.4333Z" fill="#55DEFF"/>
<path d="M52.3629 2.52148H51.4312V14.044H52.3629V2.52148Z" fill="#FFE8BB"/>
<path d="M48.0216 8.0996C48.082 8.17207 48.1208 8.26232 48.1323 8.35849C48.1439 8.45469 48.1281 8.55239 48.0866 8.63877L48.0232 8.76292L47.4437 9.90302C47.5037 10.0449 47.5394 10.1972 47.5486 10.3525C47.5821 10.9014 47.2988 11.3675 46.9169 11.3925C46.5351 11.4175 46.1977 10.9957 46.1639 10.4467C46.13 9.89782 46.4137 9.4321 46.7955 9.40675C46.8663 9.40158 46.937 9.41185 47.0038 9.43697L47.5223 8.41972L47.6489 8.17012C47.6633 8.13278 47.6861 8.09989 47.7154 8.07454C47.7447 8.04919 47.7798 8.03219 47.817 8.02514C47.8542 8.01812 47.8926 8.02124 47.9283 8.03427C47.964 8.04727 47.9963 8.06976 48.0216 8.0996Z" fill="#55DEFF"/>
<path d="M45.0043 33.25H37.5229V18.5249C37.5229 18.5249 38.624 18.8847 40.0319 21.4574C41.4398 24.0301 43.6547 30.2499 44.8622 32.9299C44.9085 33.0323 44.957 33.1382 45.0043 33.25Z" fill="#FFE8BB"/>
<path d="M40.5893 58.8002L40.5737 58.7947C40.5737 58.7947 41.2908 58.807 41.7461 58.7947L41.1599 61.5897C40.9321 60.2842 40.5905 58.8613 40.5749 58.7963C40.5795 58.7979 40.5844 58.7992 40.5893 58.8002Z" fill="#313553"/>
<path d="M37.523 33.25V37.2595L37.519 37.294C37.214 37.2527 37.009 37.2111 37.009 37.2111C36.4451 36.8058 35.868 36.3606 35.3193 35.9137L35.3373 35.889C35.4282 35.6612 35.4749 35.4164 35.4746 35.1691V33.2516L37.523 33.25Z" fill="#55DEFF"/>
<path d="M35.4745 10.0867V8.10422C35.4745 7.61292 35.2912 7.1417 34.9654 6.79431C34.6394 6.44688 34.1971 6.25172 33.736 6.25172H23.4239C22.9628 6.25172 22.5206 6.44688 22.1946 6.79431C21.8686 7.1417 21.6854 7.61292 21.6854 8.10422V12.1436C21.6854 12.3869 21.7304 12.6278 21.8178 12.8526C21.9051 13.0773 22.0332 13.2815 22.1946 13.4536C22.356 13.6256 22.5477 13.762 22.7586 13.8551C22.9696 13.9482 23.1956 13.9961 23.4239 13.9961H33.735C33.9635 13.9961 34.1895 13.9482 34.4003 13.8551C34.6113 13.762 34.8029 13.6256 34.9645 13.4536C35.1258 13.2815 35.2539 13.0773 35.3412 12.8526C35.4287 12.6278 35.4735 12.3869 35.4735 12.1436L35.4745 10.0867ZM19.3369 21.944V5.06385C19.337 4.18154 19.6659 3.3354 20.2514 2.71149C20.8368 2.08758 21.6309 1.73699 22.4589 1.73682H22.8328C22.8328 2.40156 23.0806 3.03907 23.5218 3.50911C23.9629 3.97916 24.5611 4.24322 25.185 4.24322H31.0364C31.6601 4.24286 32.2585 3.97873 32.6996 3.50882C33.1409 3.03888 33.3892 2.40157 33.3898 1.73682H34.3993C34.8096 1.73669 35.2155 1.82265 35.5946 1.98979C35.9734 2.15692 36.3178 2.40196 36.6078 2.71092C36.8979 3.01987 37.1279 3.38668 37.2849 3.7904C37.442 4.19411 37.5228 4.62685 37.5228 5.06385V33.2501H35.4745V31.1308C35.4745 30.6395 35.2912 30.1683 34.9654 29.8209C34.6394 29.4735 34.1971 29.2783 33.736 29.2783H23.4239C22.9628 29.2783 22.5206 29.4735 22.1946 29.8209C21.8686 30.1683 21.6854 30.6395 21.6854 31.1308V35.1692C21.6854 35.6606 21.8686 36.1319 22.1946 36.479C22.5206 36.8264 22.9628 37.0217 23.4239 37.0217H25.7752C25.8477 37.1482 25.9281 37.2694 26.0158 37.3844C27.5155 39.3588 29.8847 40.0247 31.4448 40.1557L31.7565 40.4947L31.6919 40.5886H22.4589C21.6307 40.588 20.8365 40.237 20.2511 39.613C19.6657 38.9886 19.3368 38.142 19.3369 37.2596V21.944ZM21.6879 21.944V23.6564C21.6879 24.1478 21.871 24.6189 22.1971 24.9664C22.5231 25.3138 22.9653 25.5089 23.4264 25.5089H33.7375C34.1986 25.5089 34.6409 25.3138 34.9669 24.9664C35.2927 24.6189 35.476 24.1478 35.476 23.6564V19.618C35.476 19.1267 35.2927 18.6555 34.9669 18.3081C34.6409 17.9607 34.1986 17.7655 33.7375 17.7655H23.4239C22.9628 17.7655 22.5206 17.9607 22.1946 18.3081C21.8686 18.6555 21.6854 19.1267 21.6854 19.618L21.6879 21.944Z" fill="#55DEFF"/>
<path d="M35.4741 33.2501V35.1676C35.4744 35.415 35.4277 35.6597 35.3369 35.8875L35.3189 35.9122C34.9086 35.5771 34.514 35.2408 34.1556 34.918C33.771 34.5677 33.3312 34.2927 32.8566 34.1055C32.9746 33.8875 33.0439 33.6431 33.0591 33.3918C33.0747 33.1406 33.0353 32.8887 32.9447 32.6564C32.8542 32.4237 32.7148 32.2164 32.537 32.0504C32.3591 31.8844 32.1481 31.7642 31.9196 31.6991C31.6915 31.6341 31.4521 31.6258 31.2203 31.6749C30.9885 31.7241 30.7704 31.8294 30.5831 31.9827C30.3956 32.136 30.2437 32.3333 30.1391 32.5592C30.0346 32.7851 29.9802 33.0334 29.9801 33.2852C29.9803 33.4708 30.0105 33.6551 30.0692 33.8299C29.5013 33.7016 28.0922 33.4273 27.2733 33.6382C26.6224 33.8078 25.2404 34.8446 25.4954 36.2691C25.5457 36.5352 25.6403 36.7897 25.7748 37.0205H23.4236C22.9625 37.0205 22.5203 36.8251 22.1943 36.4777C21.8682 36.1306 21.6851 35.6594 21.6851 35.168V31.1308C21.6851 30.6395 21.8682 30.1683 22.1943 29.8209C22.5203 29.4735 22.9625 29.2783 23.4236 29.2783H33.7347C34.1959 29.2783 34.6381 29.4735 34.9641 29.8209C35.2899 30.1683 35.4732 30.6395 35.4732 31.1308V33.2501H35.4741Z" fill="#55DEFF"/>
<path d="M21.6851 21.9439V19.6179C21.6851 19.1265 21.8682 18.6554 22.1943 18.308C22.5203 17.9605 22.9625 17.7654 23.4236 17.7654H33.7347C34.1959 17.7654 34.6381 17.9605 34.9641 18.308C35.2899 18.6554 35.4732 19.1265 35.4732 19.6179V23.6563C35.4732 24.1476 35.2899 24.6188 34.9641 24.9662C34.6381 25.3136 34.1959 25.5088 33.7347 25.5088H23.4236C22.9625 25.5088 22.5203 25.3136 22.1943 24.9662C21.8682 24.6188 21.6851 24.1476 21.6851 23.6563V21.9439ZM26.7005 21.9797C26.7004 21.655 26.6099 21.3377 26.4406 21.0679C26.2713 20.798 26.0307 20.5877 25.7492 20.4636C25.4677 20.3394 25.158 20.3069 24.8592 20.3703C24.5604 20.4337 24.286 20.59 24.0706 20.8195C23.8552 21.0491 23.7085 21.3415 23.649 21.6599C23.5895 21.9783 23.62 22.3083 23.7365 22.6082C23.8531 22.9081 24.0504 23.1645 24.3037 23.3449C24.5569 23.5254 24.8547 23.6218 25.1593 23.6219C25.3618 23.6219 25.5622 23.5795 25.7493 23.497C25.9364 23.4146 26.1064 23.2936 26.2496 23.1411C26.3928 22.9886 26.5064 22.8076 26.5839 22.6083C26.6614 22.409 26.7014 22.1954 26.7014 21.9797H26.7005Z" fill="#55DEFF"/>
<path d="M35.4741 10.0867V12.1436C35.4741 12.3869 35.4293 12.6278 35.3417 12.8526C35.2545 13.0773 35.1264 13.2815 34.9651 13.4535C34.8034 13.6256 34.6119 13.762 34.4008 13.8551C34.1901 13.9482 33.9641 13.9961 33.7356 13.9961H23.4236C23.1953 13.9961 22.9692 13.9482 22.7583 13.8551C22.5474 13.762 22.3557 13.6256 22.1943 13.4535C22.0328 13.2815 21.9047 13.0773 21.8174 12.8526C21.73 12.6278 21.6851 12.3869 21.6851 12.1436V8.10519C21.6851 7.61388 21.8682 7.1427 22.1943 6.79527C22.5203 6.44785 22.9625 6.25269 23.4236 6.25269H33.7347C34.1959 6.25269 34.6381 6.44785 34.9641 6.79527C35.2899 7.1427 35.4732 7.61388 35.4732 8.10519L35.4741 10.0867ZM33.0622 10.1225C33.0622 9.79766 32.9719 9.48016 32.8023 9.21009C32.633 8.94005 32.3924 8.72954 32.1109 8.60523C31.8291 8.48095 31.5192 8.44842 31.2203 8.51179C30.9214 8.57517 30.6469 8.73156 30.4312 8.96124C30.2157 9.19091 30.0689 9.48351 30.0095 9.80208C29.95 10.1206 29.9805 10.4508 30.0971 10.7509C30.2138 11.051 30.4113 11.3075 30.6649 11.4879C30.9183 11.6684 31.2163 11.7647 31.521 11.7647C31.9297 11.7644 32.3213 11.5912 32.6102 11.2833C32.899 10.9754 33.0613 10.5578 33.0616 10.1225H33.0622Z" fill="#55DEFF"/>
<path d="M22.8325 1.73682H33.3895C33.3889 2.40157 33.1406 3.03888 32.6993 3.50882C32.2582 3.97873 31.6598 4.24286 31.0361 4.24322H25.1847C24.5608 4.24322 23.9626 3.97916 23.5215 3.50911C23.0803 3.03907 22.8325 2.40156 22.8325 1.73682Z" fill="#313553"/>
<path d="M33.0619 33.2859C33.0615 33.5738 32.9908 33.8566 32.8563 34.1062L32.7629 34.0737C32.7599 34.073 32.7569 34.072 32.7538 34.0707C32.6879 34.046 32.622 34.0252 32.5559 34.0074C32.5235 33.9976 32.4912 33.9882 32.4589 33.9797C32.4149 33.9674 32.3722 33.9576 32.3295 33.9472C32.2765 33.9365 32.2246 33.9255 32.1731 33.9147C32.0798 33.8969 31.9901 33.8845 31.8986 33.8748C31.5902 33.8429 31.28 33.8387 30.9711 33.8624C30.9555 33.8624 30.9406 33.865 30.9244 33.865C30.8973 33.8679 30.8713 33.8692 30.8454 33.8705C30.764 33.8761 30.6889 33.8816 30.6203 33.8871C30.5188 33.8956 30.4168 33.8956 30.3153 33.8871C30.3153 33.8871 30.2238 33.8637 30.0668 33.828C30.008 33.6531 29.9779 33.4688 29.9777 33.2833C29.9748 33.0655 30.0126 32.8497 30.0887 32.6479C30.1649 32.4458 30.2779 32.2621 30.4213 32.1071C30.5648 31.9522 30.7356 31.8291 30.9238 31.7452C31.1123 31.6612 31.3145 31.6179 31.5189 31.6179C31.7229 31.6179 31.9251 31.6612 32.1136 31.7452C32.3018 31.8291 32.4726 31.9522 32.6162 32.1071C32.7596 32.2621 32.8724 32.4458 32.9487 32.6479C33.0249 32.8497 33.0625 33.0655 33.0597 33.2833L33.0619 33.2859Z" fill="white"/>
<path d="M31.5211 11.7647C32.3724 11.7647 33.0623 11.0294 33.0623 10.1224C33.0623 9.21547 32.3724 8.48022 31.5211 8.48022C30.6699 8.48022 29.98 9.21547 29.98 10.1224C29.98 11.0294 30.6699 11.7647 31.5211 11.7647Z" fill="white"/>
<path d="M23.6182 40.5879H28.5207C28.3591 40.9168 28.2394 41.2675 28.1651 41.6302L28.0736 41.6246C27.3678 41.4579 23.6182 40.5879 23.6182 40.5879Z" fill="#313553"/>
<path d="M25.1606 20.3379C25.4654 20.3376 25.7635 20.4337 26.0171 20.614C26.2707 20.7944 26.4685 21.0508 26.5853 21.3509C26.7021 21.6509 26.7328 21.9812 26.6734 22.2998C26.6141 22.6185 26.4674 22.9112 26.2519 23.141C26.0364 23.3708 25.7617 23.5273 25.4627 23.5907C25.1637 23.6542 24.8538 23.6217 24.5721 23.4974C24.2904 23.3731 24.0496 23.1625 23.8803 22.8924C23.7109 22.6223 23.6205 22.3047 23.6206 21.9798C23.6208 21.5446 23.783 21.1272 24.0718 20.8193C24.3605 20.5115 24.7521 20.3383 25.1606 20.3379Z" fill="white"/>
<path d="M21.5531 1.73682H22.459C21.631 1.73699 20.8369 2.08758 20.2515 2.71149C19.666 3.3354 19.3371 4.18154 19.337 5.06384V21.944H18.4312V5.06384C18.4312 4.18154 18.7602 3.3354 19.3456 2.71149C19.9311 2.08758 20.7251 1.73699 21.5531 1.73682Z" fill="#313553"/>
<path d="M22.4586 40.588H21.5527C20.7243 40.588 19.9299 40.2374 19.3441 39.613C18.7584 38.989 18.4293 38.1424 18.4292 37.2597V21.9441H19.3366V37.2597C19.3367 38.1421 19.6655 38.9884 20.251 39.6124C20.8364 40.2367 21.6304 40.5874 22.4586 40.588Z" fill="#313553"/>
<path d="M17.4797 31.3267V35.5387C17.4797 35.5387 16.0678 35.281 14.1478 34.9404C12.2279 34.5998 12.2263 32.1454 13.2524 31.3267C14.2784 30.5081 17.3476 31.3267 17.3476 31.3267H17.4797Z" fill="#FFE8BB"/>
<path d="M11.4579 20.5612V22.7754H10.8302C10.5987 22.7754 10.4822 23.1505 10.6472 23.3711L11.0909 23.9656L9.92127 25.5317L9.47689 24.9373C9.31249 24.717 9.03311 24.8723 9.03311 25.183V26.0238H7.37818V25.183C7.37818 24.8726 7.0985 24.717 6.9341 24.9373L6.49033 25.5317L5.32065 23.9656L5.76442 23.3711C5.92882 23.1505 5.81231 22.7754 5.58142 22.7754H4.95312V20.5612H5.58142C5.81292 20.5612 5.92943 20.1848 5.76442 19.9655L5.32065 19.3701L6.49033 17.8039L6.9341 18.398C7.0985 18.6174 7.37818 18.463 7.37818 18.1513V17.3115H9.03311V18.1526C9.03311 18.464 9.31249 18.6187 9.47689 18.3993L9.92066 17.8052L11.0903 19.3701L10.6466 19.9642C10.4822 20.1835 10.5987 20.5599 10.8296 20.5599L11.4579 20.5612ZM9.18683 21.6685C9.18683 20.9418 8.74702 20.3529 8.20626 20.3529C7.66549 20.3529 7.22416 20.9418 7.22416 21.6685C7.22416 22.3952 7.66397 22.9824 8.20626 22.9824C8.74855 22.9824 9.18683 22.3926 9.18683 21.6685Z" fill="#55DEFF"/>
<path d="M3.14557 15.3838H2.08447V28.5044H3.14557V15.3838Z" fill="#FFE8BB"/>
<path d="M3.14551 15.3838L13.5317 16.349V27.5391L3.14551 28.5044" stroke="#313553" stroke-width="0.10176" stroke-linecap="round" stroke-linejoin="round"/>
<path d="M3.14557 15.3838H2.08447V28.5044H3.14557V15.3838Z" stroke="#313553" stroke-width="0.10176" stroke-linecap="round" stroke-linejoin="round"/>
<path d="M51.4313 2.52148L42.3105 4.61027V15.1276L51.4313 14.0437" stroke="#313553" stroke-width="0.10176" stroke-linecap="round" stroke-linejoin="round"/>
<path d="M52.3629 2.52148H51.4312V14.044H52.3629V2.52148Z" stroke="#313553" stroke-width="0.10176" stroke-linecap="round" stroke-linejoin="round"/>
<path d="M58.096 27.2012L48.5337 28.0894V38.3899L58.096 39.2795" stroke="#313553" stroke-width="0.10176" stroke-linecap="round" stroke-linejoin="round"/>
<path d="M59.0731 27.2012H58.0962V39.2791H59.0731V27.2012Z" stroke="#313553" stroke-width="0.10176" stroke-linecap="round" stroke-linejoin="round"/>
<path d="M33.3896 1.73682H34.3992C34.8094 1.73669 35.2154 1.82265 35.5945 1.98979C35.9733 2.15692 36.3176 2.40196 36.6077 2.71092C36.8978 3.01987 37.1277 3.38668 37.2848 3.7904C37.4419 4.19411 37.5227 4.62685 37.5227 5.06384V37.2596" stroke="#313553" stroke-width="0.10176" stroke-linecap="round" stroke-linejoin="round"/>
<path d="M22.667 1.73682H22.8326" stroke="#313553" stroke-width="0.10176" stroke-linecap="round" stroke-linejoin="round"/>
<path d="M21.5527 40.588C20.7243 40.588 19.9299 40.2373 19.3441 39.613C18.7584 38.989 18.4293 38.1423 18.4292 37.2596V5.06384C18.4292 4.62685 18.5101 4.19411 18.6671 3.7904C18.8241 3.38668 19.0542 3.01987 19.3442 2.71092C19.6343 2.40196 19.9786 2.15692 20.3575 1.98979C20.7365 1.82265 21.1426 1.73669 21.5527 1.73682" stroke="#313553" stroke-width="0.10176" stroke-linecap="round" stroke-linejoin="round"/>
<path d="M31.6907 40.5879H28.5206H23.618H22.667" stroke="#313553" stroke-width="0.10176" stroke-linecap="round" stroke-linejoin="round"/>
<path d="M22.4589 40.588C21.6308 40.5873 20.8368 40.2366 20.2513 39.6123C19.6659 38.9883 19.337 38.142 19.3369 37.2596V5.06384C19.337 4.18153 19.6659 3.3354 20.2514 2.71149C20.8368 2.08758 21.6309 1.73699 22.4589 1.73682" stroke="#313553" stroke-width="0.10176" stroke-linecap="round" stroke-linejoin="round"/>
<path d="M18.701 40.0075C18.3227 39.7192 18.0145 39.3387 17.802 38.8976C17.5895 38.4569 17.4789 37.9681 17.4795 37.4725V4.85129C17.4794 4.44212 17.555 4.03691 17.702 3.65887C17.849 3.28086 18.0644 2.93739 18.336 2.64814C18.6077 2.3589 18.9301 2.12953 19.285 1.97316C19.6398 1.81679 20.0201 1.73648 20.4041 1.73682H22.6685" stroke="#313553" stroke-width="0.10176" stroke-linecap="round" stroke-linejoin="round"/>
<path d="M22.6673 40.5879H20.4045C19.7944 40.5892 19.1995 40.3854 18.7041 40.0061" stroke="#313553" stroke-width="0.10176" stroke-linecap="round" stroke-linejoin="round"/>
<path d="M33.3895 1.73682C33.3889 2.40157 33.1406 3.03888 32.6993 3.50882C32.2582 3.97873 31.6598 4.24286 31.0361 4.24322H25.1847C24.5608 4.24322 23.9626 3.97916 23.5215 3.50911C23.0803 3.03907 22.8325 2.40156 22.8325 1.73682H33.3895Z" stroke="#313553" stroke-width="0.10176" stroke-linecap="round" stroke-linejoin="round"/>
<path d="M33.735 13.9955H23.4236C22.9625 13.9955 22.5203 13.8003 22.1943 13.4529C21.8682 13.1055 21.6851 12.6343 21.6851 12.143V8.10519C21.6851 7.61388 21.8682 7.1427 22.1943 6.79527C22.5203 6.44785 22.9625 6.25269 23.4236 6.25269H33.7347C34.1959 6.25269 34.6381 6.44785 34.9641 6.79527C35.2899 7.1427 35.4732 7.61388 35.4732 8.10519V12.1436C35.4729 12.6348 35.2899 13.1058 34.9638 13.453C34.6378 13.8003 34.1959 13.9954 33.735 13.9955Z" stroke="#313553" stroke-width="0.10176" stroke-linecap="round" stroke-linejoin="round"/>
<path d="M33.735 25.5082H23.4236C22.9625 25.5082 22.5203 25.313 22.1943 24.9656C21.8682 24.6182 21.6851 24.147 21.6851 23.6557V19.6179C21.6851 19.1265 21.8682 18.6554 22.1943 18.308C22.5203 17.9605 22.9625 17.7654 23.4236 17.7654H33.7347C34.1959 17.7654 34.6381 17.9605 34.9641 18.308C35.2899 18.6554 35.4732 19.1265 35.4732 19.6179V23.6563C35.4729 24.1475 35.2899 24.6184 34.9638 24.9657C34.6378 25.313 34.1959 25.5081 33.735 25.5082Z" stroke="#313553" stroke-width="0.10176" stroke-linecap="round" stroke-linejoin="round"/>
<path d="M25.776 37.0211H23.4236C22.9625 37.0211 22.5203 36.8258 22.1943 36.4784C21.8682 36.1313 21.6851 35.66 21.6851 35.1686V31.1308C21.6851 30.6395 21.8682 30.1683 22.1943 29.8209C22.5203 29.4735 22.9625 29.2783 23.4236 29.2783H33.7347C34.1959 29.2783 34.6381 29.4735 34.9641 29.8209C35.2899 30.1683 35.4732 30.6395 35.4732 31.1308V35.1693C35.4735 35.4166 35.4268 35.6613 35.3359 35.8891" stroke="#313553" stroke-width="0.10176" stroke-linecap="round" stroke-linejoin="round"/>
<path d="M14.4531 21.9441H17.4796H18.4294H19.3353H21.6862H22.8327" stroke="#313553" stroke-width="0.10176" stroke-linecap="round" stroke-linejoin="round"/>
<path d="M30.0696 33.8305C29.5017 33.7021 28.0926 33.4278 27.2737 33.6387C26.6228 33.8084 25.2409 34.8451 25.4959 36.2696C25.5461 36.5358 25.6407 36.7903 25.7752 37.021C25.8478 37.1474 25.9281 37.2687 26.0159 37.3837C27.5156 39.3581 29.8848 40.024 31.4449 40.155L31.7566 40.494C32.5148 41.3227 34.4363 43.419 34.9475 44.004C34.9475 44.004 36.438 50.2303 38.0866 51.9869C40.3173 54.3653 41.5941 55.0436 43.0276 55.2711" stroke="#313553" stroke-width="0.10176" stroke-linecap="round" stroke-linejoin="round"/>
<path d="M30.8472 33.8718C30.7657 33.8769 30.6907 33.882 30.6221 33.8871" stroke="#313553" stroke-width="0.10176" stroke-linecap="round" stroke-linejoin="round"/>
<path d="M32.1737 33.9161C32.0804 33.8982 31.9907 33.8859 31.8992 33.8761C31.5908 33.8443 31.2806 33.84 30.9717 33.8638" stroke="#313553" stroke-width="0.10176" stroke-linecap="round" stroke-linejoin="round"/>
<path d="M32.4594 33.979C32.4155 33.9669 32.3728 33.9573 32.3301 33.947" stroke="#313553" stroke-width="0.10176" stroke-linecap="round" stroke-linejoin="round"/>
<path d="M32.7546 34.0695C32.6887 34.0452 32.6228 34.0247 32.5566 34.0071" stroke="#313553" stroke-width="0.10176" stroke-linecap="round" stroke-linejoin="round"/>
<path d="M39.5749 38.7596C38.6721 38.3387 37.8123 37.8197 37.009 37.2113C36.445 36.806 35.868 36.3608 35.3193 35.9139C34.909 35.5788 34.5144 35.2424 34.156 34.9197C33.7714 34.5694 33.3316 34.2944 32.857 34.1072L32.7637 34.0747" stroke="#313553" stroke-width="0.10176" stroke-linecap="round" stroke-linejoin="round"/>
<path d="M37.0088 37.2124C37.0088 37.2124 37.2134 37.254 37.5187 37.2953C38.1501 37.3821 39.2164 37.4731 39.809 37.2124" stroke="#313553" stroke-width="0.10176" stroke-linecap="round" stroke-linejoin="round"/>
<path d="M30.9268 33.865C30.5928 34.255 28.9806 35.5608 29.1883 37.2099" stroke="#313553" stroke-width="0.10176" stroke-linecap="round" stroke-linejoin="round"/>
<path d="M25.4956 36.2701C26.1038 36.7553 27.598 37.0501 28.183 36.7C28.183 36.7 28.5273 34.8319 29.3008 34.2102" stroke="#313553" stroke-width="0.10176" stroke-linecap="round" stroke-linejoin="round"/>
<path d="M57.4404 63.4867C57.4404 63.4867 57.4404 61.8692 56.3469 58.9692C55.4283 56.5288 50.8996 49.2267 49.4905 45.0465C48.1357 41.026 46.2234 36.0115 45.0043 33.251C44.9564 33.1392 44.9085 33.0332 44.8622 32.9296C43.6547 30.2493 41.441 24.0311 40.0319 21.4571C38.6228 18.8831 37.5229 18.5249 37.5229 18.5249" stroke="#313553" stroke-width="0.10176" stroke-linecap="round" stroke-linejoin="round"/>
<path d="M40.5893 58.8002L40.5737 58.7947V58.7973C40.5893 58.8623 40.9309 60.2851 41.1587 61.5907C41.2914 62.2127 41.3545 62.8491 41.3475 63.4867" stroke="#313553" stroke-width="0.10176" stroke-linecap="round" stroke-linejoin="round"/>
<path d="M27.7404 45.4302C27.6989 45.6531 27.6815 45.88 27.6885 46.1071C27.6885 46.1777 27.6925 46.2479 27.6977 46.3181C27.7409 46.827 27.9171 47.3129 28.2061 47.7204C28.7856 48.5381 29.7656 49.8394 30.3243 50.118C30.3243 50.118 35.8573 57.4955 38.409 58.2046C40.0819 58.6694 40.4921 58.7782 40.5745 58.7974C40.579 58.7987 40.5839 58.7997 40.5888 58.8003C40.5906 58.8007 40.5922 58.8007 40.594 58.8003" stroke="#313553" stroke-width="0.10176" stroke-linecap="round" stroke-linejoin="round"/>
<path d="M27.6888 46.318C27.6888 46.318 24.7815 45.9605 23.2196 45.4301C23.2196 45.4301 20.7315 44.7353 20.0379 44.4168C20.0379 44.4168 15.6904 42.6975 14.5918 42.0205C13.4932 41.3436 14.0123 38.506 16.2117 39.1843C17.507 39.5827 18.6483 39.9867 18.7014 40.0062" stroke="#313553" stroke-width="0.10176" stroke-linecap="round" stroke-linejoin="round"/>
<path d="M19.6959 41.4868C19.6959 41.4868 19.5434 42.2174 19.5059 42.583" stroke="#313553" stroke-width="0.10176" stroke-linecap="round" stroke-linejoin="round"/>
<path d="M23.7074 42.1763C23.7074 42.1763 23.5549 43.3206 23.5171 43.6862" stroke="#313553" stroke-width="0.10176" stroke-linecap="round" stroke-linejoin="round"/>
<path d="M40.5737 58.7947C40.5737 58.7947 41.2908 58.807 41.7461 58.7947L41.1599 61.5897" stroke="#313553" stroke-width="0.10176" stroke-linecap="round" stroke-linejoin="round"/>
<path d="M17.3476 31.3266C17.3476 31.3266 14.276 30.5076 13.2524 31.3266C12.2288 32.1456 12.2276 34.5997 14.1479 34.9403C16.0682 35.2809 17.4797 35.5386 17.4797 35.5386" stroke="#313553" stroke-width="0.10176" stroke-linecap="round" stroke-linejoin="round"/>
<path d="M28.5209 40.5879C28.3592 40.9168 28.2396 41.2675 28.1652 41.6302C28.1166 41.8544 28.0859 42.0829 28.0737 42.3127" stroke="#313553" stroke-width="0.10176" stroke-linecap="round" stroke-linejoin="round"/>
<path d="M23.6182 40.5879C23.6182 40.5879 27.3678 41.4579 28.073 41.6246" stroke="#313553" stroke-width="0.10176" stroke-linecap="round" stroke-linejoin="round"/>
<path d="M26.7017 21.9798C26.7017 22.3044 26.6113 22.6218 26.442 22.8916C26.2727 23.1616 26.0321 23.3719 25.7506 23.4961C25.4692 23.6203 25.1595 23.6528 24.8606 23.5895C24.5619 23.5262 24.2874 23.3699 24.0719 23.1404C23.8565 22.9108 23.7098 22.6184 23.6503 22.3C23.5908 21.9816 23.6212 21.6516 23.7377 21.3516C23.8542 21.0517 24.0516 20.7953 24.3049 20.6149C24.5581 20.4344 24.8559 20.338 25.1606 20.3379C25.3629 20.3379 25.5633 20.3803 25.7503 20.4628C25.9373 20.5453 26.1072 20.6662 26.2503 20.8187C26.3934 20.9712 26.5069 21.1522 26.5844 21.3514C26.6619 21.5506 26.7017 21.7642 26.7017 21.9798Z" stroke="#313553" stroke-width="0.10176" stroke-linecap="round" stroke-linejoin="round"/>
<path d="M40.9348 10.0867H37.5228H35.4744H33.8506" stroke="#313553" stroke-width="0.10176" stroke-linecap="round" stroke-linejoin="round"/>
<path d="M31.5211 11.7647C32.3724 11.7647 33.0623 11.0294 33.0623 10.1224C33.0623 9.21547 32.3724 8.48022 31.5211 8.48022C30.6699 8.48022 29.98 9.21547 29.98 10.1224C29.98 11.0294 30.6699 11.7647 31.5211 11.7647Z" stroke="#313553" stroke-width="0.10176" stroke-linecap="round" stroke-linejoin="round"/>
<path d="M47.4045 33.25H45.0041H37.5228H35.4744H33.8506" stroke="#313553" stroke-width="0.10176" stroke-linecap="round" stroke-linejoin="round"/>
<path d="M30.0692 33.8307C30.2248 33.8664 30.3178 33.8898 30.3178 33.8898C30.4193 33.8983 30.5212 33.8983 30.6228 33.8898C30.6926 33.8856 30.7677 33.8801 30.8479 33.8732C30.8738 33.8732 30.8997 33.8706 30.9269 33.8677C30.9424 33.8677 30.9574 33.8677 30.9735 33.8651C31.2825 33.842 31.5927 33.8463 31.9011 33.8775C31.9892 33.8872 32.081 33.9009 32.1756 33.9174C32.2271 33.9272 32.279 33.9382 32.332 33.9499C32.3747 33.9597 32.4174 33.9707 32.4613 33.9824C32.4937 33.9909 32.526 34.0003 32.5583 34.0101C32.6245 34.0292 32.6904 34.05 32.7563 34.0734C32.7593 34.0747 32.7624 34.0757 32.7654 34.0764C32.7959 34.0871 32.8264 34.0981 32.8569 34.1108V34.1092C32.975 33.8911 33.0442 33.6467 33.0594 33.3955C33.075 33.1443 33.0357 32.8924 32.9451 32.66C32.8545 32.4273 32.7151 32.22 32.5373 32.0541C32.3595 31.8881 32.1484 31.7679 31.92 31.7028C31.6918 31.6377 31.4524 31.6294 31.2206 31.6786C30.9888 31.7278 30.7707 31.8331 30.5835 31.9864C30.3959 32.1397 30.244 32.3369 30.1394 32.5628C30.0349 32.7887 29.9805 33.037 29.9805 33.2889C29.9809 33.4735 30.0109 33.6568 30.0692 33.8307Z" stroke="#313553" stroke-width="0.10176" stroke-linecap="round" stroke-linejoin="round"/>
<path d="M11.4579 20.5612H10.8302C10.5987 20.5612 10.4822 20.1848 10.6472 19.9655L11.0903 19.3701L9.92066 17.8039L9.47689 18.398C9.31249 18.6174 9.03311 18.463 9.03311 18.1513V17.3115H7.37818V18.1526C7.37818 18.464 7.0985 18.6187 6.9341 18.3993L6.49033 17.8052L5.32065 19.3701L5.76442 19.9655C5.92882 20.1848 5.81231 20.5612 5.58142 20.5612H4.95312V22.7754H5.58142C5.81292 22.7754 5.92943 23.1505 5.76442 23.3711L5.32065 23.9656L6.49033 25.5317L6.9341 24.9373C7.0985 24.717 7.37818 24.8723 7.37818 25.183V26.0238H9.03311V25.183C9.03311 24.8726 9.31249 24.717 9.47689 24.9373L9.92066 25.5317L11.0903 23.9656L10.6466 23.3711C10.4822 23.1505 10.5987 22.7754 10.8296 22.7754H11.4572V20.5612H11.4579Z" stroke="#313553" stroke-width="0.10176" stroke-linecap="round" stroke-linejoin="round"/>
<path d="M9.1868 21.6684C9.1868 22.3935 8.74699 22.9824 8.20622 22.9824C7.66546 22.9824 7.22412 22.3935 7.22412 21.6684C7.22412 20.9433 7.66393 20.3528 8.20622 20.3528C8.74851 20.3528 9.1868 20.9417 9.1868 21.6684Z" stroke="#313553" stroke-width="0.10176" stroke-linecap="round" stroke-linejoin="round"/>
<path d="M47.5211 8.41985C47.2716 8.29957 46.9986 8.24601 46.7253 8.26385C46.1275 8.30513 45.6084 8.76175 45.2528 9.42215C44.8813 10.1414 44.7111 10.9592 44.7623 11.7784C44.7648 11.821 44.7675 11.8652 44.7715 11.9084" stroke="#313553" stroke-width="0.10176" stroke-linecap="round" stroke-linejoin="round"/>
<path d="M49.0721 11.3331C49.0721 11.2902 49.0697 11.2476 49.067 11.2031C49.0325 10.496 48.8114 9.81352 48.4292 9.23427C48.3115 9.06069 48.1751 8.90238 48.0229 8.7627" stroke="#313553" stroke-width="0.10176" stroke-linecap="round" stroke-linejoin="round"/>
<path d="M49.072 11.333L50.353 11.2446C50.3505 11.202 50.3505 11.1591 50.3478 11.1146C50.292 9.99121 49.9421 8.90694 49.3373 7.98485C48.6425 6.96468 47.6629 6.35368 46.6149 6.4268C45.6069 6.49733 44.7385 7.26108 44.1719 8.36965C43.6415 9.4443 43.4033 10.6552 43.4835 11.8663C43.4862 11.9102 43.4899 11.9531 43.4926 11.9963L44.7736 11.9083" stroke="#313553" stroke-width="0.10176" stroke-linecap="round" stroke-linejoin="round"/>
<path d="M48.0229 8.76294L48.0863 8.63879C48.1278 8.55241 48.1436 8.45471 48.1321 8.35851C48.1205 8.26234 48.0817 8.17209 48.0213 8.09962C47.996 8.06949 47.9637 8.04674 47.9277 8.03351C47.892 8.02032 47.8533 8.0171 47.8161 8.02415C47.7786 8.0312 47.7435 8.04833 47.7139 8.07388C47.6843 8.09942 47.6614 8.13257 47.6474 8.17014L47.5208 8.41974L47.0023 9.43699C46.9355 9.41187 46.8648 9.4016 46.794 9.40677C46.4122 9.43309 46.1288 9.89914 46.1624 10.4468C46.1959 10.9944 46.5339 11.4188 46.9154 11.3925C47.297 11.3662 47.5806 10.9005 47.5471 10.3525C47.5379 10.1972 47.5022 10.0449 47.4421 9.90304L48.0229 8.76294Z" stroke="#313553" stroke-width="0.10176" stroke-linecap="round" stroke-linejoin="round"/>
<path d="M46.6138 6.42725L46.7251 8.26382" stroke="#313553" stroke-width="0.10176" stroke-linecap="round" stroke-linejoin="round"/>
<path d="M44.1802 8.37549L45.1168 9.41224" stroke="#313553" stroke-width="0.10176" stroke-linecap="round" stroke-linejoin="round"/>
<path d="M49.2895 8.021L48.5054 9.178" stroke="#313553" stroke-width="0.10176" stroke-linecap="round" stroke-linejoin="round"/>
<path d="M54.2286 33.4334L54.9911 32.4022C55.2123 32.4829 55.4523 32.4846 55.6743 32.4072C55.8967 32.3298 56.0891 32.1775 56.223 31.9732C56.4213 31.6976 56.5436 31.3687 56.5762 31.0232C56.5671 31.0359 56.5582 31.0495 56.5491 31.0632C56.4695 31.1857 56.3633 31.2858 56.2395 31.3549C56.1154 31.424 55.9778 31.4601 55.8381 31.4601C55.6981 31.4601 55.5606 31.424 55.4364 31.3549C55.3126 31.2858 55.2065 31.1857 55.1269 31.0632C54.9359 30.7844 54.8328 30.4481 54.8328 30.103C54.8328 29.7578 54.9359 29.4215 55.1269 29.1428C55.136 29.1298 55.1461 29.1177 55.1574 29.1067C54.8755 29.1671 54.6248 29.3366 54.4534 29.5825C54.2902 29.8187 54.1774 30.0899 54.1225 30.3774C54.0679 30.6648 54.0725 30.9615 54.1365 31.2468L53.374 32.278" stroke="#313553" stroke-width="0.10176" stroke-linecap="round" stroke-linejoin="round"/>
<path d="M52.517 33.4333L51.4339 34.8958L51.4455 34.9111C51.3339 34.9166 51.225 34.9485 51.1268 35.0047C51.0283 35.0609 50.9432 35.1399 50.8773 35.2361C50.7218 35.4639 50.6382 35.7382 50.6382 36.02C50.6382 36.3015 50.7218 36.5758 50.8773 36.8036C50.9423 36.9034 51.0292 36.9849 51.1302 37.0415C51.2311 37.0977 51.3437 37.1273 51.4577 37.1273C51.5718 37.1273 51.6843 37.0977 51.7853 37.0415C51.8862 36.9849 51.9732 36.9034 52.0381 36.8036C52.194 36.5826 52.2782 36.3138 52.2776 36.0372L52.2892 36.0522L52.9827 35.1162L53.3722 34.5894" stroke="#313553" stroke-width="0.10176" stroke-linecap="round" stroke-linejoin="round"/>
<path d="M53.3718 32.278L52.6093 31.2468C52.6731 30.9614 52.6776 30.6646 52.6224 30.3772C52.5675 30.0897 52.4544 29.8185 52.2909 29.5825C52.1204 29.3369 51.8703 29.1674 51.5894 29.1067C51.5995 29.1182 51.6089 29.1302 51.6178 29.1428C51.8093 29.4213 51.9124 29.7577 51.9124 30.103C51.9124 30.4483 51.8093 30.7846 51.6178 31.0632C51.5385 31.1857 51.4323 31.2857 51.3085 31.3549C51.1847 31.4241 51.0471 31.4602 50.9074 31.4602C50.7677 31.4602 50.6302 31.4241 50.5063 31.3549C50.3825 31.2857 50.2764 31.1857 50.1971 31.0632C50.1867 31.0495 50.1788 31.0359 50.1699 31.0232C50.2026 31.3684 50.3246 31.6972 50.5219 31.9732C50.6558 32.1776 50.8485 32.3301 51.0712 32.4075C51.2935 32.4849 51.5336 32.483 51.755 32.4022L52.5175 33.4334L53.3715 34.5888L54.4546 36.0513L54.4649 36.0363C54.4646 36.3126 54.5485 36.5817 54.7041 36.8027C54.769 36.9025 54.8559 36.984 54.9569 37.0406C55.0579 37.0968 55.1704 37.1264 55.2845 37.1264C55.3985 37.1264 55.5111 37.0968 55.612 37.0406C55.713 36.984 55.7999 36.9025 55.8649 36.8027C56.0213 36.5752 56.1055 36.3009 56.1055 36.0188C56.1055 35.737 56.0213 35.4627 55.8649 35.2352C55.7993 35.139 55.7145 35.06 55.6163 35.0038C55.5184 34.9476 55.4095 34.9154 55.2982 34.9102L55.3086 34.8949L54.2267 33.4324L53.3718 32.278Z" stroke="#313553" stroke-width="0.10176" stroke-linecap="round" stroke-linejoin="round"/>
<path d="M52.5166 33.4333L52.9823 35.1155" stroke="#313553" stroke-width="0.10176" stroke-linecap="round" stroke-linejoin="round"/>
</svg>
