<svg width="375" height="812" viewBox="0 0 375 812" fill="none" xmlns="http://www.w3.org/2000/svg">
<g filter="url(#filter0_f_920_5040)">
<rect x="270" y="675.272" width="14" height="14" transform="rotate(-5.21553 270 675.272)" fill="#FD9797"/>
<rect x="343" y="3.27246" width="14" height="14" transform="rotate(-5.21553 343 3.27246)" fill="#FD9797"/>
<rect x="159" y="719.338" width="18" height="18" transform="rotate(-43.2702 159 719.338)" fill="#F873CB"/>
<rect x="70.855" y="332.096" width="18" height="18" transform="rotate(-13.6293 70.855 332.096)" fill="#F873CB"/>
<circle cx="290" cy="534" r="12" fill="#FFD262"/>
<circle cx="187.5" cy="636.5" r="7.5" fill="#9A92F5"/>
<circle cx="332.5" cy="115.5" r="7.5" fill="#9A92F5"/>
<rect opacity="0.994021" x="73" y="482" width="18" height="18" transform="rotate(-155.662 73 482)" fill="#F873CB"/>
<circle opacity="0.458114" cx="96.8969" cy="38.911" r="12" transform="rotate(73.5211 96.8969 38.911)" fill="#FFD262"/>
<circle opacity="0.80041" cx="262.191" cy="792.093" r="7.5" transform="rotate(168.844 262.191 792.093)" fill="#9A92F5"/>
<rect opacity="0.0935903" x="8" y="379" width="18" height="18" transform="rotate(48.676 8 379)" fill="#F873CB"/>
<rect opacity="0.247727" x="205" y="438" width="14" height="14" transform="rotate(-153.128 205 438)" fill="#FD9797"/>
<rect opacity="0.675805" x="126" y="533" width="14" height="14" transform="rotate(-58.3101 126 533)" fill="#FD9797"/>
<circle opacity="0.053632" cx="220.567" cy="120.989" r="7.5" transform="rotate(25.3506 220.567 120.989)" fill="#9A92F5"/>
<rect opacity="0.97352" x="350" y="403" width="14" height="14" transform="rotate(-81.6355 350 403)" fill="#FD9797"/>
<circle opacity="0.124662" cx="253.689" cy="388.513" r="7.5" transform="rotate(148.562 253.689 388.513)" fill="#9A92F5"/>
<circle opacity="0.01" cx="214.553" cy="704.028" r="12" transform="rotate(110.534 214.553 704.028)" fill="#FFD262"/>
<circle opacity="0.513973" cx="204.7" cy="74.9199" r="7.5" transform="rotate(-153.128 204.7 74.9199)" fill="#9A92F5"/>
<circle opacity="0.191162" cx="41.8486" cy="731.209" r="12" transform="rotate(117.126 41.8486 731.209)" fill="#FFD262"/>
<rect opacity="0.215357" x="259" y="799" width="14" height="14" transform="rotate(16.2253 259 799)" fill="#FD9797"/>
<circle opacity="0.21228" cx="201.516" cy="150.38" r="7.5" transform="rotate(-37.5221 201.516 150.38)" fill="#9A92F5"/>
<circle opacity="0.900664" cx="236.389" cy="203.863" r="12" transform="rotate(-101.409 236.389 203.863)" fill="#FFD262"/>
<circle opacity="0.288033" cx="62.9245" cy="129.742" r="7.5" transform="rotate(-24.3397 62.9245 129.742)" fill="#9A92F5"/>
<circle opacity="0.588682" cx="374.704" cy="353.879" r="12" transform="rotate(-108 374.704 353.879)" fill="#FFD262"/>
<circle opacity="0.747798" cx="353.583" cy="480.614" r="12" transform="rotate(-150.085 353.583 480.614)" fill="#FFD262"/>
<circle opacity="0.747798" cx="1.3856" cy="16.3857" r="12" transform="rotate(-150.085 1.3856 16.3857)" fill="#FFD262"/>
<rect opacity="0.139808" x="82" y="106" width="14" height="14" transform="rotate(147.042 82 106)" fill="#FD9797"/>
<rect opacity="0.38568" x="364" y="477" width="18" height="18" transform="rotate(-129.297 364 477)" fill="#F873CB"/>
<circle opacity="0.575851" cx="61.7248" cy="590.123" r="12" transform="rotate(-54.7618 61.7248 590.123)" fill="#FFD262"/>
<circle opacity="0.141897" cx="184.431" cy="578.728" r="12" transform="rotate(15.211 184.431 578.728)" fill="#FFD262"/>
<circle opacity="0.141897" cx="317.728" cy="242.728" r="12" transform="rotate(15.211 317.728 242.728)" fill="#FFD262"/>
<circle opacity="0.628139" cx="227.211" cy="33.3955" r="7.5" transform="rotate(-133.86 227.211 33.3955)" fill="#9A92F5"/>
<circle opacity="0.0419811" cx="127.888" cy="311.091" r="7.5" transform="rotate(-3.0429 127.888 311.091)" fill="#9A92F5"/>
<rect opacity="0.392181" x="66" y="521" width="14" height="14" transform="rotate(131.322 66 521)" fill="#FD9797"/>
<rect opacity="0.392181" x="50.7583" y="227.244" width="14" height="14" transform="rotate(131.322 50.7583 227.244)" fill="#FD9797"/>
<circle opacity="0.771515" cx="86.2985" cy="122.696" r="7.5" transform="rotate(1.51972 86.2985 122.696)" fill="#9A92F5"/>
<circle opacity="0.733598" cx="222.58" cy="352.227" r="12" transform="rotate(-126.254 222.58 352.227)" fill="#FFD262"/>
<rect opacity="0.892737" x="120" y="11" width="14" height="14" transform="rotate(-18.2539 120 11)" fill="#FD9797"/>
<circle opacity="0.756457" cx="78.3499" cy="620.674" r="7.5" transform="rotate(20.7879 78.3499 620.674)" fill="#9A92F5"/>
<circle opacity="0.607759" cx="217.083" cy="465.906" r="12" transform="rotate(65.4067 217.083 465.906)" fill="#FFD262"/>
</g>
<defs>
<filter id="filter0_f_920_5040" x="-20.6162" y="-8.00024" width="417.324" height="834.354" filterUnits="userSpaceOnUse" color-interpolation-filters="sRGB">
<feFlood flood-opacity="0" result="BackgroundImageFix"/>
<feBlend mode="normal" in="SourceGraphic" in2="BackgroundImageFix" result="shape"/>
<feGaussianBlur stdDeviation="5" result="effect1_foregroundBlur_920_5040"/>
</filter>
</defs>
</svg>
