<svg width="15" height="15" viewBox="0 0 13 13" fill="none" xmlns="http://www.w3.org/2000/svg">
<path d="M7.43716 1.90143L8.39049 3.80809C8.52049 4.07351 8.86716 4.32809 9.15966 4.37684L10.8876 4.66393C11.9926 4.84809 12.2526 5.64976 11.4563 6.44059L10.113 7.78393C9.88549 8.01143 9.7609 8.45018 9.83132 8.76434L10.2159 10.4273C10.5192 11.7435 9.82049 12.2527 8.65591 11.5648L7.03632 10.606C6.74382 10.4327 6.26174 10.4327 5.96382 10.606L4.34424 11.5648C3.18507 12.2527 2.48091 11.7381 2.78424 10.4273L3.16882 8.76434C3.23924 8.45018 3.11466 8.01143 2.88716 7.78393L1.54382 6.44059C0.752989 5.64976 1.00757 4.84809 2.11257 4.66393L3.84049 4.37684C4.12757 4.32809 4.47424 4.07351 4.60424 3.80809L5.55757 1.90143C6.07757 0.866842 6.92257 0.866842 7.43716 1.90143Z" stroke="white" stroke-width="1.5" stroke-linecap="round" stroke-linejoin="round"/>
</svg>
