<svg width="327" height="95" viewBox="0 0 327 95" fill="none" xmlns="http://www.w3.org/2000/svg">
<g clip-path="url(#clip0_763_1773)">
<rect width="327" height="95" rx="20" fill="#E3DFFF"/>
<circle cx="292" cy="-14" r="55" fill="white" fill-opacity="0.5"/>
<circle cx="272" cy="1" r="70" fill="white" fill-opacity="0.2"/>
<ellipse cx="4.60617" cy="9.57559" rx="4.60617" ry="9.57559" transform="matrix(0.830995 -0.55628 0.428043 0.903758 237.34 41.5259)" fill="#FDD504"/>
<mask id="mask0_763_1773" style="mask-type:luminance" maskUnits="userSpaceOnUse" x="239" y="38" width="12" height="19">
<ellipse cx="4.60617" cy="9.57559" rx="4.60617" ry="9.57559" transform="matrix(0.830995 -0.55628 0.428043 0.903758 237.34 41.5259)" fill="white"/>
</mask>
<g mask="url(#mask0_763_1773)">
<path d="M245.266 38.961C238.487 39.9786 239.499 46.6595 240.631 49.8056C241.762 52.9516 236.228 40.625 236.228 40.625L242.176 36.5293" fill="#FCB006"/>
</g>
<ellipse cx="4.60617" cy="9.57559" rx="4.60617" ry="9.57559" transform="matrix(0.830995 -0.55628 0.428043 0.903758 237.34 41.5259)" stroke="black" stroke-linecap="round" stroke-linejoin="round"/>
<path d="M241.575 41.2836C242.756 39.3296 245.43 40.4474 247.547 43.7799C249.665 47.1137 250.424 51.3998 249.243 53.3537C248.062 55.3084 245.388 54.1907 243.27 50.8569C241.153 47.5244 240.394 43.2382 241.575 41.2836Z" fill="#FCB006" stroke="black" stroke-linecap="round" stroke-linejoin="round"/>
<path d="M245.754 58.4094C245.782 58.4059 245.811 58.4033 245.84 58.3987C245.874 58.3932 245.908 58.3855 245.942 58.3785C245.969 58.3728 245.997 58.368 246.024 58.3613C246.058 58.3528 246.092 58.342 246.126 58.3318C246.152 58.3241 246.178 58.3174 246.203 58.3087C246.239 58.2966 246.273 58.282 246.308 58.2681C246.331 58.2589 246.354 58.2508 246.377 58.2408C246.416 58.2238 246.453 58.2041 246.491 58.1847C246.509 58.1753 246.527 58.1673 246.545 58.1574C246.6 58.127 246.655 58.094 246.708 58.0584L249.365 56.2736C249.312 56.3092 249.258 56.3422 249.203 56.3725C249.185 56.3825 249.166 56.3906 249.148 56.4C249.111 56.4193 249.073 56.4389 249.035 56.4559C249.012 56.466 248.989 56.4741 248.965 56.4833C248.931 56.4973 248.896 56.5118 248.861 56.5238C248.836 56.5325 248.81 56.5391 248.784 56.5469C248.75 56.5571 248.716 56.5679 248.682 56.5765C248.655 56.5832 248.627 56.5878 248.6 56.5935C248.566 56.6006 248.532 56.6083 248.497 56.6139C248.469 56.6184 248.44 56.6211 248.411 56.6246C248.377 56.6288 248.343 56.6335 248.308 56.6362C248.279 56.6385 248.249 56.639 248.219 56.6403C248.184 56.6417 248.15 56.6436 248.114 56.6436C248.084 56.6436 248.053 56.6419 248.022 56.6409C247.987 56.6396 247.952 56.6388 247.916 56.6361C247.885 56.6339 247.854 56.63 247.822 56.6266C247.786 56.6228 247.751 56.6192 247.714 56.614C247.682 56.6094 247.65 56.6032 247.618 56.5976C247.581 56.5912 247.545 56.585 247.509 56.5772C247.476 56.5703 247.443 56.5619 247.41 56.5539C247.373 56.545 247.336 56.5362 247.3 56.526C247.266 56.5167 247.232 56.5062 247.199 56.4958C247.162 56.4844 247.124 56.473 247.087 56.4602C247.053 56.4488 247.019 56.4361 246.985 56.4235C246.948 56.4096 246.91 56.3956 246.872 56.3804C246.838 56.3666 246.803 56.3517 246.769 56.3369C246.731 56.3205 246.692 56.3041 246.654 56.2864C246.619 56.2703 246.584 56.2532 246.549 56.236C246.511 56.2173 246.473 56.1985 246.435 56.1786C246.399 56.1601 246.364 56.1408 246.328 56.1213C246.292 56.1019 246.257 56.082 246.221 56.0616C246.157 56.0245 246.092 55.9852 246.027 55.9446C246.005 55.9306 245.982 55.9175 245.96 55.9031C245.873 55.8475 245.786 55.7888 245.699 55.7272C245.68 55.7136 245.661 55.6988 245.641 55.685C245.572 55.6353 245.504 55.5841 245.434 55.5307C245.405 55.5079 245.375 55.4843 245.346 55.4608C245.285 55.4126 245.224 55.3629 245.164 55.3118C245.132 55.2855 245.101 55.2592 245.069 55.232C245.023 55.192 244.977 55.1506 244.93 55.109C244.896 55.0783 244.862 55.0478 244.828 55.0163C244.78 54.972 244.732 54.9261 244.684 54.8801C244.651 54.8488 244.619 54.818 244.586 54.7858C244.535 54.7354 244.484 54.6831 244.433 54.6308C244.403 54.6008 244.374 54.5717 244.345 54.5411C244.281 54.4746 244.218 54.4058 244.155 54.3363C244.138 54.3182 244.121 54.3009 244.105 54.2825C244.024 54.1931 243.944 54.1012 243.864 54.0069C243.842 53.981 243.82 53.9538 243.798 53.9276C243.74 53.8584 243.682 53.7889 243.624 53.7172C243.594 53.6802 243.565 53.6418 243.535 53.6041C243.485 53.5411 243.436 53.478 243.386 53.4132C243.354 53.3709 243.322 53.3274 243.29 53.2843C243.243 53.2219 243.197 53.1592 243.15 53.0951C243.122 53.0553 243.093 53.0146 243.064 52.9741C243 52.8831 242.935 52.7905 242.871 52.6963C242.845 52.6579 242.819 52.62 242.794 52.5811C242.707 52.4508 242.62 52.3184 242.534 52.1823C242.441 52.0336 242.349 51.8833 242.26 51.7316C242.232 51.6832 242.204 51.6342 242.176 51.5856C242.116 51.4814 242.056 51.3768 241.998 51.2715C241.973 51.2259 241.948 51.18 241.923 51.1341C241.81 50.9259 241.7 50.7161 241.595 50.5044C241.589 50.4917 241.583 50.4787 241.576 50.466C241.475 50.26 241.377 50.0527 241.283 49.8441C241.267 49.8082 241.25 49.7724 241.235 49.7364C241.141 49.5267 241.052 49.3161 240.967 49.1047C240.95 49.0624 240.933 49.0201 240.916 48.9778C240.831 48.7626 240.749 48.5471 240.671 48.3315C240.665 48.3124 240.659 48.2934 240.652 48.2744C240.578 48.067 240.509 47.8598 240.444 47.6527C240.433 47.6184 240.422 47.5841 240.411 47.5499C240.345 47.3381 240.284 47.1268 240.227 46.9162C240.215 46.8735 240.204 46.831 240.192 46.7883C240.136 46.5758 240.083 46.3641 240.035 46.1538C240.03 46.1306 240.025 46.1076 240.02 46.0845C239.976 45.8837 239.935 45.6844 239.899 45.4866C239.893 45.4533 239.886 45.4197 239.88 45.3865C239.852 45.2297 239.826 45.0737 239.803 44.9192C239.802 44.9091 239.801 44.8993 239.799 44.8892C239.778 44.7448 239.76 44.6016 239.743 44.4596C239.738 44.4104 239.733 44.3618 239.728 44.3129C239.717 44.2098 239.707 44.1071 239.699 44.0055C239.695 43.9511 239.691 43.897 239.687 43.8431C239.68 43.7452 239.675 43.648 239.67 43.5517C239.668 43.497 239.665 43.4421 239.663 43.3879C239.661 43.3296 239.661 43.2719 239.66 43.2143C239.659 43.1476 239.658 43.0811 239.658 43.0152C239.658 42.958 239.659 42.9014 239.66 42.8448C239.661 42.7802 239.662 42.7159 239.665 42.6522C239.667 42.5961 239.67 42.5406 239.673 42.4853C239.676 42.4227 239.68 42.3605 239.685 42.2988C239.689 42.2444 239.693 42.1905 239.698 42.1369C239.704 42.0746 239.711 42.0129 239.718 41.9516C239.723 41.9039 239.729 41.8566 239.736 41.8096C239.744 41.7475 239.753 41.6864 239.763 41.6256C239.77 41.5799 239.778 41.5342 239.786 41.4893C239.797 41.4285 239.809 41.369 239.821 41.3096C239.83 41.2669 239.839 41.2238 239.849 41.1819C239.863 41.1207 239.878 41.0612 239.894 41.0017C239.904 40.9636 239.913 40.9249 239.924 40.8875C239.94 40.8312 239.958 40.7768 239.976 40.7221C239.989 40.6814 240.001 40.6399 240.015 40.6002C240.034 40.5442 240.056 40.4905 240.077 40.4364C240.091 40.4004 240.104 40.3633 240.119 40.3282C240.144 40.2694 240.171 40.2132 240.197 40.1567C240.211 40.1286 240.223 40.0993 240.237 40.0718C240.278 39.989 240.322 39.9089 240.368 39.8315C240.405 39.7698 240.445 39.7142 240.484 39.6572C240.509 39.6211 240.533 39.583 240.559 39.5487C240.595 39.4999 240.634 39.4557 240.673 39.4107C240.698 39.3812 240.722 39.3495 240.748 39.3216C240.792 39.2746 240.838 39.2326 240.883 39.1903C240.906 39.1692 240.928 39.1457 240.951 39.1258C241.02 39.0661 241.092 39.0111 241.167 38.9609L238.509 40.7458C238.434 40.796 238.362 40.851 238.293 40.9107C238.27 40.9305 238.248 40.9539 238.226 40.9749C238.18 41.0173 238.134 41.0594 238.09 41.1065C238.064 41.1344 238.04 41.1661 238.015 41.1957C237.976 41.2406 237.938 41.2849 237.901 41.3337C237.875 41.3678 237.851 41.4058 237.827 41.4418C237.798 41.4828 237.769 41.5212 237.742 41.5645C237.731 41.5816 237.721 41.5989 237.71 41.6163C237.664 41.6936 237.62 41.7737 237.579 41.8566C237.565 41.8842 237.553 41.9137 237.539 41.9419C237.513 41.9983 237.486 42.0543 237.461 42.113C237.446 42.1482 237.433 42.1853 237.419 42.2213C237.398 42.2754 237.376 42.3292 237.357 42.3851C237.343 42.4247 237.331 42.466 237.318 42.5065C237.303 42.5531 237.287 42.5986 237.273 42.6463C237.271 42.6548 237.269 42.6639 237.266 42.6724C237.256 42.7097 237.246 42.7484 237.236 42.7864C237.221 42.846 237.205 42.9057 237.191 42.9669C237.181 43.0087 237.173 43.0515 237.164 43.0939C237.151 43.1536 237.139 43.2134 237.128 43.2744C237.12 43.3193 237.113 43.3648 237.105 43.4104C237.096 43.4711 237.086 43.5322 237.078 43.5941C237.072 43.6414 237.066 43.689 237.06 43.7369C237.056 43.7677 237.052 43.7977 237.049 43.8288C237.045 43.8593 237.044 43.891 237.041 43.9218C237.036 43.9753 237.031 44.0291 237.027 44.0835C237.022 44.1453 237.018 44.2077 237.015 44.2706C237.012 44.3257 237.009 44.381 237.007 44.4369C237.005 44.5007 237.003 44.5651 237.002 44.6297C237.001 44.6863 237 44.7429 237 44.8002C237 44.8659 237.001 44.9323 237.002 44.9989C237.003 45.0567 237.004 45.1144 237.006 45.1728C237.006 45.1946 237.006 45.2159 237.007 45.2378C237.008 45.2703 237.011 45.3041 237.013 45.3368C237.017 45.4331 237.022 45.5302 237.029 45.6281C237.033 45.6819 237.037 45.7358 237.041 45.79C237.049 45.8917 237.059 45.9943 237.07 46.0975C237.075 46.1466 237.08 46.1954 237.086 46.2448C237.102 46.386 237.12 46.5283 237.141 46.6718C237.143 46.6827 237.144 46.6934 237.145 46.7043C237.168 46.8589 237.194 47.0149 237.222 47.1718C237.224 47.1841 237.226 47.196 237.228 47.2082C237.232 47.2289 237.237 47.2502 237.241 47.2709C237.277 47.4689 237.318 47.6684 237.363 47.8694C237.368 47.8926 237.372 47.9155 237.378 47.9387C237.425 48.149 237.478 48.3608 237.535 48.5734C237.546 48.6159 237.557 48.6584 237.569 48.701C237.626 48.9117 237.688 49.123 237.753 49.3349C237.764 49.369 237.775 49.4032 237.786 49.4374C237.852 49.6448 237.921 49.8524 237.994 50.0602C238.001 50.0788 238.007 50.0973 238.014 50.1159C238.091 50.3317 238.173 50.5473 238.258 50.7626C238.275 50.805 238.292 50.8473 238.309 50.8897C238.394 51.1009 238.484 51.3114 238.577 51.5212C238.593 51.5573 238.609 51.5932 238.626 51.6292C238.72 51.8374 238.817 52.0447 238.918 52.2505C238.925 52.2634 238.931 52.2765 238.937 52.2894C239.042 52.5011 239.152 52.7106 239.265 52.9187C239.278 52.9419 239.289 52.9656 239.302 52.9887C239.314 53.0115 239.328 53.0339 239.34 53.0567C239.399 53.1617 239.458 53.2658 239.518 53.3698C239.546 53.4187 239.574 53.468 239.603 53.5167C239.692 53.6681 239.783 53.8182 239.877 53.9671C239.962 54.1032 240.049 54.2354 240.136 54.3658C240.162 54.4048 240.188 54.443 240.214 54.4815C240.278 54.5756 240.342 54.668 240.406 54.7589C240.423 54.7819 240.439 54.8062 240.455 54.8289C240.467 54.8463 240.48 54.8627 240.493 54.88C240.539 54.9439 240.585 55.0064 240.632 55.0687C240.664 55.112 240.696 55.1558 240.729 55.1983C240.778 55.2628 240.827 55.3254 240.877 55.388C240.907 55.4261 240.936 55.4649 240.967 55.5023C241.024 55.5732 241.081 55.642 241.138 55.7106C241.161 55.7375 241.183 55.7654 241.206 55.792C241.286 55.886 241.366 55.9777 241.447 56.067C241.448 56.0684 241.449 56.07 241.451 56.0714C241.467 56.09 241.484 56.1073 241.501 56.1258C241.563 56.1936 241.625 56.2608 241.687 56.3258C241.717 56.3569 241.746 56.3864 241.776 56.4168C241.827 56.4686 241.877 56.5205 241.928 56.5704C241.961 56.6029 241.994 56.634 242.027 56.6657C242.075 56.7114 242.122 56.7569 242.17 56.8009C242.204 56.8327 242.239 56.8633 242.273 56.8942C242.319 56.9357 242.365 56.9769 242.412 57.0168C242.425 57.0286 242.439 57.0414 242.452 57.053C242.47 57.0683 242.488 57.0817 242.506 57.0968C242.567 57.1478 242.627 57.1974 242.688 57.2455C242.718 57.2691 242.747 57.2927 242.777 57.3156C242.846 57.3692 242.915 57.4209 242.985 57.4707C243.003 57.4842 243.022 57.4986 243.041 57.5118C243.128 57.5737 243.215 57.6324 243.302 57.6881C243.325 57.7024 243.347 57.7154 243.369 57.7293C243.434 57.77 243.499 57.8093 243.564 57.8465C243.576 57.8537 243.589 57.8621 243.601 57.8692C243.624 57.8823 243.647 57.8937 243.67 57.9063C243.706 57.9257 243.741 57.9449 243.776 57.9633C243.815 57.9832 243.853 58.0022 243.891 58.0209C243.927 58.0381 243.962 58.0552 243.997 58.0714C244.035 58.0889 244.073 58.1053 244.11 58.1215C244.145 58.1365 244.18 58.1515 244.214 58.1653C244.252 58.1804 244.289 58.1943 244.327 58.2081C244.361 58.2208 244.395 58.2336 244.43 58.2452C244.467 58.2579 244.504 58.2692 244.541 58.2806C244.575 58.291 244.608 58.3015 244.642 58.3108C244.679 58.3211 244.715 58.3298 244.752 58.3388C244.785 58.3468 244.818 58.3551 244.851 58.3621C244.887 58.3698 244.923 58.3759 244.959 58.3823C244.992 58.3881 245.024 58.3942 245.057 58.3989C245.093 58.404 245.128 58.4076 245.164 58.4114C245.195 58.4148 245.227 58.4187 245.259 58.421C245.294 58.4237 245.329 58.4245 245.365 58.4257C245.395 58.4268 245.426 58.4285 245.457 58.4285C245.492 58.4285 245.527 58.4266 245.562 58.4251C245.591 58.4239 245.621 58.4234 245.65 58.4211C245.685 58.4183 245.719 58.4136 245.754 58.4094Z" fill="#FCB006"/>
<mask id="mask1_763_1773" style="mask-type:luminance" maskUnits="userSpaceOnUse" x="237" y="38" width="13" height="21">
<path fill-rule="evenodd" clip-rule="evenodd" d="M245.754 58.4094C245.782 58.4059 245.811 58.4033 245.84 58.3987C245.874 58.3932 245.908 58.3855 245.942 58.3785C245.969 58.3728 245.997 58.368 246.024 58.3613C246.058 58.3528 246.092 58.342 246.126 58.3318C246.152 58.3241 246.178 58.3174 246.203 58.3087C246.239 58.2966 246.273 58.282 246.308 58.2681C246.331 58.2589 246.354 58.2508 246.377 58.2408C246.416 58.2238 246.453 58.2041 246.491 58.1847C246.509 58.1753 246.527 58.1673 246.545 58.1574C246.6 58.127 246.655 58.094 246.708 58.0584L249.365 56.2736C249.312 56.3092 249.258 56.3422 249.203 56.3725C249.185 56.3825 249.166 56.3906 249.148 56.4C249.111 56.4193 249.073 56.4389 249.035 56.4559C249.012 56.466 248.989 56.4741 248.965 56.4833C248.931 56.4973 248.896 56.5118 248.861 56.5238C248.836 56.5325 248.81 56.5391 248.784 56.5469C248.75 56.5571 248.716 56.5679 248.682 56.5765C248.655 56.5832 248.627 56.5878 248.6 56.5935C248.566 56.6006 248.532 56.6083 248.497 56.6139C248.469 56.6184 248.44 56.6211 248.411 56.6246C248.377 56.6288 248.343 56.6335 248.308 56.6362C248.279 56.6385 248.249 56.639 248.219 56.6403C248.184 56.6417 248.15 56.6436 248.114 56.6436C248.084 56.6436 248.053 56.6419 248.022 56.6409C247.987 56.6396 247.952 56.6388 247.916 56.6361C247.885 56.6339 247.854 56.63 247.822 56.6266C247.786 56.6228 247.751 56.6192 247.714 56.614C247.682 56.6094 247.65 56.6032 247.618 56.5976C247.581 56.5912 247.545 56.585 247.509 56.5772C247.476 56.5703 247.443 56.5619 247.41 56.5539C247.373 56.545 247.336 56.5362 247.3 56.526C247.266 56.5167 247.232 56.5062 247.199 56.4958C247.162 56.4844 247.124 56.473 247.087 56.4602C247.053 56.4488 247.019 56.4361 246.985 56.4235C246.948 56.4096 246.91 56.3956 246.872 56.3804C246.838 56.3666 246.803 56.3517 246.769 56.3369C246.731 56.3205 246.692 56.3041 246.654 56.2864C246.619 56.2703 246.584 56.2532 246.549 56.236C246.511 56.2173 246.473 56.1985 246.435 56.1786C246.399 56.1601 246.364 56.1408 246.328 56.1213C246.292 56.1019 246.257 56.082 246.221 56.0616C246.157 56.0245 246.092 55.9852 246.027 55.9446C246.005 55.9306 245.982 55.9175 245.96 55.9031C245.873 55.8475 245.786 55.7888 245.699 55.7272C245.68 55.7136 245.661 55.6988 245.641 55.685C245.572 55.6353 245.504 55.5841 245.434 55.5307C245.405 55.5079 245.375 55.4843 245.346 55.4608C245.285 55.4126 245.224 55.3629 245.164 55.3118C245.132 55.2855 245.101 55.2592 245.069 55.232C245.023 55.192 244.977 55.1506 244.93 55.109C244.896 55.0783 244.862 55.0478 244.828 55.0163C244.78 54.972 244.732 54.9261 244.684 54.8801C244.651 54.8488 244.619 54.818 244.586 54.7858C244.535 54.7354 244.484 54.6831 244.433 54.6308C244.403 54.6008 244.374 54.5717 244.345 54.5411C244.281 54.4746 244.218 54.4058 244.155 54.3363C244.138 54.3182 244.121 54.3009 244.105 54.2825C244.024 54.1931 243.944 54.1012 243.864 54.0069C243.842 53.981 243.82 53.9538 243.798 53.9276C243.74 53.8584 243.682 53.7889 243.624 53.7172C243.594 53.6802 243.565 53.6418 243.535 53.6041C243.485 53.5411 243.436 53.478 243.386 53.4132C243.354 53.3709 243.322 53.3274 243.29 53.2843C243.243 53.2219 243.197 53.1592 243.15 53.0951C243.122 53.0553 243.093 53.0146 243.064 52.9741C243 52.8831 242.935 52.7905 242.871 52.6963C242.845 52.6579 242.819 52.62 242.794 52.5811C242.707 52.4508 242.62 52.3184 242.534 52.1823C242.441 52.0336 242.349 51.8833 242.26 51.7316C242.232 51.6832 242.204 51.6342 242.176 51.5856C242.116 51.4814 242.056 51.3768 241.998 51.2715C241.973 51.2259 241.948 51.18 241.923 51.1341C241.81 50.9259 241.7 50.7161 241.595 50.5044C241.589 50.4917 241.583 50.4787 241.576 50.466C241.475 50.26 241.377 50.0527 241.283 49.8441C241.267 49.8082 241.25 49.7724 241.235 49.7364C241.141 49.5267 241.052 49.3161 240.967 49.1047C240.95 49.0624 240.933 49.0201 240.916 48.9778C240.831 48.7626 240.749 48.5471 240.671 48.3315C240.665 48.3124 240.659 48.2934 240.652 48.2744C240.578 48.067 240.509 47.8598 240.444 47.6527C240.433 47.6184 240.422 47.5841 240.411 47.5499C240.345 47.3381 240.284 47.1268 240.227 46.9162C240.215 46.8735 240.204 46.831 240.192 46.7883C240.136 46.5758 240.083 46.3641 240.035 46.1538C240.03 46.1306 240.025 46.1076 240.02 46.0845C239.976 45.8837 239.935 45.6844 239.899 45.4866C239.893 45.4533 239.886 45.4197 239.88 45.3865C239.852 45.2297 239.826 45.0737 239.803 44.9192C239.802 44.9091 239.801 44.8993 239.799 44.8892C239.778 44.7448 239.76 44.6016 239.743 44.4596C239.738 44.4104 239.733 44.3618 239.728 44.3129C239.717 44.2098 239.707 44.1071 239.699 44.0055C239.695 43.9511 239.691 43.897 239.687 43.8431C239.68 43.7452 239.675 43.648 239.67 43.5517C239.668 43.497 239.665 43.4421 239.663 43.3879C239.661 43.3296 239.661 43.2719 239.66 43.2143C239.659 43.1476 239.658 43.0811 239.658 43.0152C239.658 42.958 239.659 42.9014 239.66 42.8448C239.661 42.7802 239.662 42.7159 239.665 42.6522C239.667 42.5961 239.67 42.5406 239.673 42.4853C239.676 42.4227 239.68 42.3605 239.685 42.2988C239.689 42.2444 239.693 42.1905 239.698 42.1369C239.704 42.0746 239.711 42.0129 239.718 41.9516C239.723 41.9039 239.729 41.8566 239.736 41.8096C239.744 41.7475 239.753 41.6864 239.763 41.6256C239.77 41.5799 239.778 41.5342 239.786 41.4893C239.797 41.4285 239.809 41.369 239.821 41.3096C239.83 41.2669 239.839 41.2238 239.849 41.1819C239.863 41.1207 239.878 41.0612 239.894 41.0017C239.904 40.9636 239.913 40.9249 239.924 40.8875C239.94 40.8312 239.958 40.7768 239.976 40.7221C239.989 40.6814 240.001 40.6399 240.015 40.6002C240.034 40.5442 240.056 40.4905 240.077 40.4364C240.091 40.4004 240.104 40.3633 240.119 40.3282C240.144 40.2694 240.171 40.2132 240.197 40.1567C240.211 40.1286 240.223 40.0993 240.237 40.0718C240.278 39.989 240.322 39.9089 240.368 39.8315C240.405 39.7698 240.445 39.7142 240.484 39.6572C240.509 39.6211 240.533 39.583 240.559 39.5487C240.595 39.4999 240.634 39.4557 240.673 39.4107C240.698 39.3812 240.722 39.3495 240.748 39.3216C240.792 39.2746 240.838 39.2326 240.883 39.1903C240.906 39.1692 240.928 39.1457 240.951 39.1258C241.02 39.0661 241.092 39.0111 241.167 38.9609L238.509 40.7458C238.434 40.796 238.362 40.851 238.293 40.9107C238.27 40.9305 238.248 40.9539 238.226 40.9749C238.18 41.0173 238.134 41.0594 238.09 41.1065C238.064 41.1344 238.04 41.1661 238.015 41.1957C237.976 41.2406 237.938 41.2849 237.901 41.3337C237.875 41.3678 237.851 41.4058 237.827 41.4418C237.798 41.4828 237.769 41.5212 237.742 41.5645C237.731 41.5816 237.721 41.5989 237.71 41.6163C237.664 41.6936 237.62 41.7737 237.579 41.8566C237.565 41.8842 237.553 41.9137 237.539 41.9419C237.513 41.9983 237.486 42.0543 237.461 42.113C237.446 42.1482 237.433 42.1853 237.419 42.2213C237.398 42.2754 237.376 42.3292 237.357 42.3851C237.343 42.4247 237.331 42.466 237.318 42.5065C237.303 42.5531 237.287 42.5986 237.273 42.6463C237.271 42.6548 237.269 42.6639 237.266 42.6724C237.256 42.7097 237.246 42.7484 237.236 42.7864C237.221 42.846 237.205 42.9057 237.191 42.9669C237.181 43.0087 237.173 43.0515 237.164 43.0939C237.151 43.1536 237.139 43.2134 237.128 43.2744C237.12 43.3193 237.113 43.3648 237.105 43.4104C237.096 43.4711 237.086 43.5322 237.078 43.5941C237.072 43.6414 237.066 43.689 237.06 43.7369C237.056 43.7677 237.052 43.7977 237.049 43.8288C237.045 43.8593 237.044 43.891 237.041 43.9218C237.036 43.9753 237.031 44.0291 237.027 44.0835C237.022 44.1453 237.018 44.2077 237.015 44.2706C237.012 44.3257 237.009 44.381 237.007 44.4369C237.005 44.5007 237.003 44.5651 237.002 44.6297C237.001 44.6863 237 44.7429 237 44.8002C237 44.8659 237.001 44.9323 237.002 44.9989C237.003 45.0567 237.004 45.1144 237.006 45.1728C237.006 45.1946 237.006 45.2159 237.007 45.2378C237.008 45.2703 237.011 45.3041 237.013 45.3368C237.017 45.4331 237.022 45.5302 237.029 45.6281C237.033 45.6819 237.037 45.7358 237.041 45.79C237.049 45.8917 237.059 45.9943 237.07 46.0975C237.075 46.1466 237.08 46.1954 237.086 46.2448C237.102 46.386 237.12 46.5283 237.141 46.6718C237.143 46.6827 237.144 46.6934 237.145 46.7043C237.168 46.8589 237.194 47.0149 237.222 47.1718C237.224 47.1841 237.226 47.196 237.228 47.2082C237.232 47.2289 237.237 47.2502 237.241 47.2709C237.277 47.4689 237.318 47.6684 237.363 47.8694C237.368 47.8926 237.372 47.9155 237.378 47.9387C237.425 48.149 237.478 48.3608 237.535 48.5734C237.546 48.6159 237.557 48.6584 237.569 48.701C237.626 48.9117 237.688 49.123 237.753 49.3349C237.764 49.369 237.775 49.4032 237.786 49.4374C237.852 49.6448 237.921 49.8524 237.994 50.0602C238.001 50.0788 238.007 50.0973 238.014 50.1159C238.091 50.3317 238.173 50.5473 238.258 50.7626C238.275 50.805 238.292 50.8473 238.309 50.8897C238.394 51.1009 238.484 51.3114 238.577 51.5212C238.593 51.5573 238.609 51.5932 238.626 51.6292C238.72 51.8374 238.817 52.0447 238.918 52.2505C238.925 52.2634 238.931 52.2765 238.937 52.2894C239.042 52.5011 239.152 52.7106 239.265 52.9187C239.278 52.9419 239.289 52.9656 239.302 52.9887C239.314 53.0115 239.328 53.0339 239.34 53.0567C239.399 53.1617 239.458 53.2658 239.518 53.3698C239.546 53.4187 239.574 53.468 239.603 53.5167C239.692 53.6681 239.783 53.8182 239.877 53.9671C239.962 54.1032 240.049 54.2354 240.136 54.3658C240.162 54.4048 240.188 54.443 240.214 54.4815C240.278 54.5756 240.342 54.668 240.406 54.7589C240.423 54.7819 240.439 54.8062 240.455 54.8289C240.467 54.8463 240.48 54.8627 240.493 54.88C240.539 54.9439 240.585 55.0064 240.632 55.0687C240.664 55.112 240.696 55.1558 240.729 55.1983C240.778 55.2628 240.827 55.3254 240.877 55.388C240.907 55.4261 240.936 55.4649 240.967 55.5023C241.024 55.5732 241.081 55.642 241.138 55.7106C241.161 55.7375 241.183 55.7654 241.206 55.792C241.286 55.886 241.366 55.9777 241.447 56.067C241.448 56.0684 241.449 56.07 241.451 56.0714C241.467 56.09 241.484 56.1073 241.501 56.1258C241.563 56.1936 241.625 56.2608 241.687 56.3258C241.717 56.3569 241.746 56.3864 241.776 56.4168C241.827 56.4686 241.877 56.5205 241.928 56.5704C241.961 56.6029 241.994 56.634 242.027 56.6657C242.075 56.7114 242.122 56.7569 242.17 56.8009C242.204 56.8327 242.239 56.8633 242.273 56.8942C242.319 56.9357 242.365 56.9769 242.412 57.0168C242.425 57.0286 242.439 57.0414 242.452 57.053C242.47 57.0683 242.488 57.0817 242.506 57.0968C242.567 57.1478 242.627 57.1974 242.688 57.2455C242.718 57.2691 242.747 57.2927 242.777 57.3156C242.846 57.3692 242.915 57.4209 242.985 57.4707C243.003 57.4842 243.022 57.4986 243.041 57.5118C243.128 57.5737 243.215 57.6324 243.302 57.6881C243.325 57.7024 243.347 57.7154 243.369 57.7293C243.434 57.77 243.499 57.8093 243.564 57.8465C243.576 57.8537 243.589 57.8621 243.601 57.8692C243.624 57.8823 243.647 57.8937 243.67 57.9063C243.706 57.9257 243.741 57.9449 243.776 57.9633C243.815 57.9832 243.853 58.0022 243.891 58.0209C243.927 58.0381 243.962 58.0552 243.997 58.0714C244.035 58.0889 244.073 58.1053 244.11 58.1215C244.145 58.1365 244.18 58.1515 244.214 58.1653C244.252 58.1804 244.289 58.1943 244.327 58.2081C244.361 58.2208 244.395 58.2336 244.43 58.2452C244.467 58.2579 244.504 58.2692 244.541 58.2806C244.575 58.291 244.608 58.3015 244.642 58.3108C244.679 58.3211 244.715 58.3298 244.752 58.3388C244.785 58.3468 244.818 58.3551 244.851 58.3621C244.887 58.3698 244.923 58.3759 244.959 58.3823C244.992 58.3881 245.024 58.3942 245.057 58.3989C245.093 58.404 245.128 58.4076 245.164 58.4114C245.195 58.4148 245.227 58.4187 245.259 58.421C245.294 58.4237 245.329 58.4245 245.365 58.4257C245.395 58.4268 245.426 58.4285 245.457 58.4285C245.492 58.4285 245.527 58.4266 245.562 58.4251C245.591 58.4239 245.621 58.4234 245.65 58.4211C245.685 58.4183 245.719 58.4136 245.754 58.4094Z" fill="white"/>
</mask>
<g mask="url(#mask1_763_1773)">
<path d="M236.419 41.8022C239.143 57.9692 249.365 58.4286 249.365 58.4286C249.365 58.4286 243.445 62.5704 243.183 62.3613C242.921 62.1521 230.005 50.3353 230.005 50.3353L232.553 45.5411" fill="#FDD504"/>
</g>
<path fill-rule="evenodd" clip-rule="evenodd" d="M245.754 58.4094C245.782 58.4059 245.811 58.4033 245.84 58.3987C245.874 58.3932 245.908 58.3855 245.942 58.3785C245.969 58.3728 245.997 58.368 246.024 58.3613C246.058 58.3528 246.092 58.342 246.126 58.3318C246.152 58.3241 246.178 58.3174 246.203 58.3087C246.239 58.2966 246.273 58.282 246.308 58.2681C246.331 58.2589 246.354 58.2508 246.377 58.2408C246.416 58.2238 246.453 58.2041 246.491 58.1847C246.509 58.1753 246.527 58.1673 246.545 58.1574C246.6 58.127 246.655 58.094 246.708 58.0584L249.365 56.2736C249.312 56.3092 249.258 56.3422 249.203 56.3725C249.185 56.3825 249.166 56.3906 249.148 56.4C249.111 56.4193 249.073 56.4389 249.035 56.4559C249.012 56.466 248.989 56.4741 248.965 56.4833C248.931 56.4973 248.896 56.5118 248.861 56.5238C248.836 56.5325 248.81 56.5391 248.784 56.5469C248.75 56.5571 248.716 56.5679 248.682 56.5765C248.655 56.5832 248.627 56.5878 248.6 56.5935C248.566 56.6006 248.532 56.6083 248.497 56.6139C248.469 56.6184 248.44 56.6211 248.411 56.6246C248.377 56.6288 248.343 56.6335 248.308 56.6362C248.279 56.6385 248.249 56.639 248.219 56.6403C248.184 56.6417 248.15 56.6436 248.114 56.6436C248.084 56.6436 248.053 56.6419 248.022 56.6409C247.987 56.6396 247.952 56.6388 247.916 56.6361C247.885 56.6339 247.854 56.63 247.822 56.6266C247.786 56.6228 247.751 56.6192 247.714 56.614C247.682 56.6094 247.65 56.6032 247.618 56.5976C247.581 56.5912 247.545 56.585 247.509 56.5772C247.476 56.5703 247.443 56.5619 247.41 56.5539C247.373 56.545 247.336 56.5362 247.3 56.526C247.266 56.5167 247.232 56.5062 247.199 56.4958C247.162 56.4844 247.124 56.473 247.087 56.4602C247.053 56.4488 247.019 56.4361 246.985 56.4235C246.948 56.4096 246.91 56.3956 246.872 56.3804C246.838 56.3666 246.803 56.3517 246.769 56.3369C246.731 56.3205 246.692 56.3041 246.654 56.2864C246.619 56.2703 246.584 56.2532 246.549 56.236C246.511 56.2173 246.473 56.1985 246.435 56.1786C246.399 56.1601 246.364 56.1408 246.328 56.1213C246.292 56.1019 246.257 56.082 246.221 56.0616C246.157 56.0245 246.092 55.9852 246.027 55.9446C246.005 55.9306 245.982 55.9175 245.96 55.9031C245.873 55.8475 245.786 55.7888 245.699 55.7272C245.68 55.7136 245.661 55.6988 245.641 55.685C245.572 55.6353 245.504 55.5841 245.434 55.5307C245.405 55.5079 245.375 55.4843 245.346 55.4608C245.285 55.4126 245.224 55.3629 245.164 55.3118C245.132 55.2855 245.101 55.2592 245.069 55.232C245.023 55.192 244.977 55.1506 244.93 55.109C244.896 55.0783 244.862 55.0478 244.828 55.0163C244.78 54.972 244.732 54.9261 244.684 54.8801C244.651 54.8488 244.619 54.818 244.586 54.7858C244.535 54.7354 244.484 54.6831 244.433 54.6308C244.403 54.6008 244.374 54.5717 244.345 54.5411C244.281 54.4746 244.218 54.4058 244.155 54.3363C244.138 54.3182 244.121 54.3009 244.105 54.2825C244.024 54.1931 243.944 54.1012 243.864 54.0069C243.842 53.981 243.82 53.9538 243.798 53.9276C243.74 53.8584 243.682 53.7889 243.624 53.7172C243.594 53.6802 243.565 53.6418 243.535 53.6041C243.485 53.5411 243.436 53.478 243.386 53.4132C243.354 53.3709 243.322 53.3274 243.29 53.2843C243.243 53.2219 243.197 53.1592 243.15 53.0951C243.122 53.0553 243.093 53.0146 243.064 52.9741C243 52.8831 242.935 52.7905 242.871 52.6963C242.845 52.6579 242.819 52.62 242.794 52.5811C242.707 52.4508 242.62 52.3184 242.534 52.1823C242.441 52.0336 242.349 51.8833 242.26 51.7316C242.232 51.6832 242.204 51.6342 242.176 51.5856C242.116 51.4814 242.056 51.3768 241.998 51.2715C241.973 51.2259 241.948 51.18 241.923 51.1341C241.81 50.9259 241.7 50.7161 241.595 50.5044C241.589 50.4917 241.583 50.4787 241.576 50.466C241.475 50.26 241.377 50.0527 241.283 49.8441C241.267 49.8082 241.25 49.7724 241.235 49.7364C241.141 49.5267 241.052 49.3161 240.967 49.1047C240.95 49.0624 240.933 49.0201 240.916 48.9778C240.831 48.7626 240.749 48.5471 240.671 48.3315C240.665 48.3124 240.659 48.2934 240.652 48.2744C240.578 48.067 240.509 47.8598 240.444 47.6527C240.433 47.6184 240.422 47.5841 240.411 47.5499C240.345 47.3381 240.284 47.1268 240.227 46.9162C240.215 46.8735 240.204 46.831 240.192 46.7883C240.136 46.5758 240.083 46.3641 240.035 46.1538C240.03 46.1306 240.025 46.1076 240.02 46.0845C239.976 45.8837 239.935 45.6844 239.899 45.4866C239.893 45.4533 239.886 45.4197 239.88 45.3865C239.852 45.2297 239.826 45.0737 239.803 44.9192C239.802 44.9091 239.801 44.8993 239.799 44.8892C239.778 44.7448 239.76 44.6016 239.743 44.4596C239.738 44.4104 239.733 44.3618 239.728 44.3129C239.717 44.2098 239.707 44.1071 239.699 44.0055C239.695 43.9511 239.691 43.897 239.687 43.8431C239.68 43.7452 239.675 43.648 239.67 43.5517C239.668 43.497 239.665 43.4421 239.663 43.3879C239.661 43.3296 239.661 43.2719 239.66 43.2143C239.659 43.1476 239.658 43.0811 239.658 43.0152C239.658 42.958 239.659 42.9014 239.66 42.8448C239.661 42.7802 239.662 42.7159 239.665 42.6522C239.667 42.5961 239.67 42.5406 239.673 42.4853C239.676 42.4227 239.68 42.3605 239.685 42.2988C239.689 42.2444 239.693 42.1905 239.698 42.1369C239.704 42.0746 239.711 42.0129 239.718 41.9516C239.723 41.9039 239.729 41.8566 239.736 41.8096C239.744 41.7475 239.753 41.6864 239.763 41.6256C239.77 41.5799 239.778 41.5342 239.786 41.4893C239.797 41.4285 239.809 41.369 239.821 41.3096C239.83 41.2669 239.839 41.2238 239.849 41.1819C239.863 41.1207 239.878 41.0612 239.894 41.0017C239.904 40.9636 239.913 40.9249 239.924 40.8875C239.94 40.8312 239.958 40.7768 239.976 40.7221C239.989 40.6814 240.001 40.6399 240.015 40.6002C240.034 40.5442 240.056 40.4905 240.077 40.4364C240.091 40.4004 240.104 40.3633 240.119 40.3282C240.144 40.2694 240.171 40.2132 240.197 40.1567C240.211 40.1286 240.223 40.0993 240.237 40.0718C240.278 39.989 240.322 39.9089 240.368 39.8315C240.405 39.7698 240.445 39.7142 240.484 39.6572C240.509 39.6211 240.533 39.583 240.559 39.5487C240.595 39.4999 240.634 39.4557 240.673 39.4107C240.698 39.3812 240.722 39.3495 240.748 39.3216C240.792 39.2746 240.838 39.2326 240.883 39.1903C240.906 39.1692 240.928 39.1457 240.951 39.1258C241.02 39.0661 241.092 39.0111 241.167 38.9609L238.509 40.7458C238.434 40.796 238.362 40.851 238.293 40.9107C238.27 40.9305 238.248 40.9539 238.226 40.9749C238.18 41.0173 238.134 41.0594 238.09 41.1065C238.064 41.1344 238.04 41.1661 238.015 41.1957C237.976 41.2406 237.938 41.2849 237.901 41.3337C237.875 41.3678 237.851 41.4058 237.827 41.4418C237.798 41.4828 237.769 41.5212 237.742 41.5645C237.731 41.5816 237.721 41.5989 237.71 41.6163C237.664 41.6936 237.62 41.7737 237.579 41.8566C237.565 41.8842 237.553 41.9137 237.539 41.9419C237.513 41.9983 237.486 42.0543 237.461 42.113C237.446 42.1482 237.433 42.1853 237.419 42.2213C237.398 42.2754 237.376 42.3292 237.357 42.3851C237.343 42.4247 237.331 42.466 237.318 42.5065C237.303 42.5531 237.287 42.5986 237.273 42.6463C237.271 42.6548 237.269 42.6639 237.266 42.6724C237.256 42.7097 237.246 42.7484 237.236 42.7864C237.221 42.846 237.205 42.9057 237.191 42.9669C237.181 43.0087 237.173 43.0515 237.164 43.0939C237.151 43.1536 237.139 43.2134 237.128 43.2744C237.12 43.3193 237.113 43.3648 237.105 43.4104C237.096 43.4711 237.086 43.5322 237.078 43.5941C237.072 43.6414 237.066 43.689 237.06 43.7369C237.056 43.7677 237.052 43.7977 237.049 43.8288C237.045 43.8593 237.044 43.891 237.041 43.9218C237.036 43.9753 237.031 44.0291 237.027 44.0835C237.022 44.1453 237.018 44.2077 237.015 44.2706C237.012 44.3257 237.009 44.381 237.007 44.4369C237.005 44.5007 237.003 44.5651 237.002 44.6297C237.001 44.6863 237 44.7429 237 44.8002C237 44.8659 237.001 44.9323 237.002 44.9989C237.003 45.0567 237.004 45.1144 237.006 45.1728C237.006 45.1946 237.006 45.2159 237.007 45.2378C237.008 45.2703 237.011 45.3041 237.013 45.3368C237.017 45.4331 237.022 45.5302 237.029 45.6281C237.033 45.6819 237.037 45.7358 237.041 45.79C237.049 45.8917 237.059 45.9943 237.07 46.0975C237.075 46.1466 237.08 46.1954 237.086 46.2448C237.102 46.386 237.12 46.5283 237.141 46.6718C237.143 46.6827 237.144 46.6934 237.145 46.7043C237.168 46.8589 237.194 47.0149 237.222 47.1718C237.224 47.1841 237.226 47.196 237.228 47.2082C237.232 47.2289 237.237 47.2502 237.241 47.2709C237.277 47.4689 237.318 47.6684 237.363 47.8694C237.368 47.8926 237.372 47.9155 237.378 47.9387C237.425 48.149 237.478 48.3608 237.535 48.5734C237.546 48.6159 237.557 48.6584 237.569 48.701C237.626 48.9117 237.688 49.123 237.753 49.3349C237.764 49.369 237.775 49.4032 237.786 49.4374C237.852 49.6448 237.921 49.8524 237.994 50.0602C238.001 50.0788 238.007 50.0973 238.014 50.1159C238.091 50.3317 238.173 50.5473 238.258 50.7626C238.275 50.805 238.292 50.8473 238.309 50.8897C238.394 51.1009 238.484 51.3114 238.577 51.5212C238.593 51.5573 238.609 51.5932 238.626 51.6292C238.72 51.8374 238.817 52.0447 238.918 52.2505C238.925 52.2634 238.931 52.2765 238.937 52.2894C239.042 52.5011 239.152 52.7106 239.265 52.9187C239.278 52.9419 239.289 52.9656 239.302 52.9887C239.314 53.0115 239.328 53.0339 239.34 53.0567C239.399 53.1617 239.458 53.2658 239.518 53.3698C239.546 53.4187 239.574 53.468 239.603 53.5167C239.692 53.6681 239.783 53.8182 239.877 53.9671C239.962 54.1032 240.049 54.2354 240.136 54.3658C240.162 54.4048 240.188 54.443 240.214 54.4815C240.278 54.5756 240.342 54.668 240.406 54.7589C240.423 54.7819 240.439 54.8062 240.455 54.8289C240.467 54.8463 240.48 54.8627 240.493 54.88C240.539 54.9439 240.585 55.0064 240.632 55.0687C240.664 55.112 240.696 55.1558 240.729 55.1983C240.778 55.2628 240.827 55.3254 240.877 55.388C240.907 55.4261 240.936 55.4649 240.967 55.5023C241.024 55.5732 241.081 55.642 241.138 55.7106C241.161 55.7375 241.183 55.7654 241.206 55.792C241.286 55.886 241.366 55.9777 241.447 56.067C241.448 56.0684 241.449 56.07 241.451 56.0714C241.467 56.09 241.484 56.1073 241.501 56.1258C241.563 56.1936 241.625 56.2608 241.687 56.3258C241.717 56.3569 241.746 56.3864 241.776 56.4168C241.827 56.4686 241.877 56.5205 241.928 56.5704C241.961 56.6029 241.994 56.634 242.027 56.6657C242.075 56.7114 242.122 56.7569 242.17 56.8009C242.204 56.8327 242.239 56.8633 242.273 56.8942C242.319 56.9357 242.365 56.9769 242.412 57.0168C242.425 57.0286 242.439 57.0414 242.452 57.053C242.47 57.0683 242.488 57.0817 242.506 57.0968C242.567 57.1478 242.627 57.1974 242.688 57.2455C242.718 57.2691 242.747 57.2927 242.777 57.3156C242.846 57.3692 242.915 57.4209 242.985 57.4707C243.003 57.4842 243.022 57.4986 243.041 57.5118C243.128 57.5737 243.215 57.6324 243.302 57.6881C243.325 57.7024 243.347 57.7154 243.369 57.7293C243.434 57.77 243.499 57.8093 243.564 57.8465C243.576 57.8537 243.589 57.8621 243.601 57.8692C243.624 57.8823 243.647 57.8937 243.67 57.9063C243.706 57.9257 243.741 57.9449 243.776 57.9633C243.815 57.9832 243.853 58.0022 243.891 58.0209C243.927 58.0381 243.962 58.0552 243.997 58.0714C244.035 58.0889 244.073 58.1053 244.11 58.1215C244.145 58.1365 244.18 58.1515 244.214 58.1653C244.252 58.1804 244.289 58.1943 244.327 58.2081C244.361 58.2208 244.395 58.2336 244.43 58.2452C244.467 58.2579 244.504 58.2692 244.541 58.2806C244.575 58.291 244.608 58.3015 244.642 58.3108C244.679 58.3211 244.715 58.3298 244.752 58.3388C244.785 58.3468 244.818 58.3551 244.851 58.3621C244.887 58.3698 244.923 58.3759 244.959 58.3823C244.992 58.3881 245.024 58.3942 245.057 58.3989C245.093 58.404 245.128 58.4076 245.164 58.4114C245.195 58.4148 245.227 58.4187 245.259 58.421C245.294 58.4237 245.329 58.4245 245.365 58.4257C245.395 58.4268 245.426 58.4285 245.457 58.4285C245.492 58.4285 245.527 58.4266 245.562 58.4251C245.591 58.4239 245.621 58.4234 245.65 58.4211C245.685 58.4183 245.719 58.4136 245.754 58.4094Z" stroke="black" stroke-linecap="round" stroke-linejoin="round"/>
<path d="M244.079 42.5663L244.601 41.8022L245.761 46.0426L246.263 45.3097L246.851 46.3919L246.158 47.4057L246.496 48.0294L247.192 47.0105L247.78 48.0927L247.083 49.1124L247.9 50.6158L247.42 51.3153L246.605 49.8111L245.908 50.8308L245.321 49.7479L246.017 48.7289L245.679 48.1052L244.983 49.1241L244.396 48.042L244.898 47.3069L242.469 44.9209L243.008 44.1329L245.234 46.4545L244.079 42.5663V42.5663Z" fill="#FDD504" stroke="black" stroke-linecap="round" stroke-linejoin="round"/>
<path d="M239.576 49.4941C239.78 50.3286 240.241 51.0406 240.868 51.4871" stroke="black" stroke-linecap="round" stroke-linejoin="round"/>
<path d="M248.652 49.3892C248.663 49.6688 248.72 49.943 248.821 50.1958" stroke="black" stroke-linecap="round" stroke-linejoin="round"/>
<ellipse cx="0.56423" cy="5.91306" rx="0.56423" ry="5.91306" transform="matrix(0.427019 -0.904243 0.831747 0.555155 279.749 72.832)" fill="#1A80FD" stroke="black" stroke-linecap="round" stroke-linejoin="round"/>
<path d="M291.968 65.3998L291.764 65.3588C291.764 65.3588 294.352 40.9474 280.665 25.1284C280.665 25.1284 293.992 37.8228 291.968 65.3998Z" fill="#190000"/>
<path d="M315.277 52.751C315.277 52.751 300.388 46.4359 289.285 62.311L289.851 63.2766C289.851 63.2766 306.2 66.5048 315.277 52.751Z" fill="#1AB995"/>
<mask id="mask2_763_1773" style="mask-type:luminance" maskUnits="userSpaceOnUse" x="289" y="51" width="27" height="13">
<path fill-rule="evenodd" clip-rule="evenodd" d="M315.277 52.751C315.277 52.751 300.388 46.4359 289.285 62.311L289.851 63.2766C289.851 63.2766 306.2 66.5048 315.277 52.751Z" fill="white"/>
</mask>
<g mask="url(#mask2_763_1773)">
<path d="M290.363 57.5424C297.384 56.9402 304.605 74.6444 304.124 61.743C303.643 48.8417 308.525 80.4063 308.525 80.4063L287.497 62.5019" fill="#0FA379"/>
</g>
<path fill-rule="evenodd" clip-rule="evenodd" d="M315.277 52.751C315.277 52.751 300.388 46.4359 289.285 62.311L289.851 63.2766C289.851 63.2766 306.2 66.5048 315.277 52.751Z" stroke="black" stroke-linecap="round" stroke-linejoin="round"/>
<path fill-rule="evenodd" clip-rule="evenodd" d="M313.551 53.187C311.613 53.2824 309.172 53.9035 306.593 54.7849L306.593 54.7849C306.601 54.7925 308.456 56.6677 310.845 57.1416C308.406 56.9829 306.05 54.9833 306.042 54.9763L306.042 54.9763C303.117 56.0097 300.05 57.3501 297.362 58.6209C297.433 58.6921 299.824 61.0609 302.912 61.6501C300.006 61.4814 297.202 59.3289 296.708 58.9318C292.571 60.9139 289.481 62.6451 289.481 62.6451L289.285 62.3109C289.285 62.3109 294.824 59.1828 300.969 56.5883C301.035 55.8988 301.292 54.312 302.294 52.7803C301.359 54.5225 301.373 56.0281 301.394 56.4104C305.791 54.5804 310.439 53.064 313.551 53.187ZM306.56 54.7962L306.138 54.9428C306.279 54.8932 306.42 54.8444 306.56 54.7962Z" fill="#0FA379"/>
<path d="M317 28.0093C317 28.0093 295.402 31.2591 291.076 60.6092V60.6092C291.076 60.6092 313.906 53.0187 317 28.0093Z" fill="#1AB995"/>
<mask id="mask3_763_1773" style="mask-type:luminance" maskUnits="userSpaceOnUse" x="291" y="28" width="26" height="33">
<path fill-rule="evenodd" clip-rule="evenodd" d="M317 28.0093C317 28.0093 295.402 31.2591 291.076 60.6092V60.6092C291.076 60.6092 313.906 53.0187 317 28.0093Z" fill="white"/>
</mask>
<g mask="url(#mask3_763_1773)">
<path d="M305.293 29.4608C307.214 43.1027 288.198 58.1551 308.825 49.0689C329.453 39.9828 297.151 68.1488 297.151 68.1488C297.151 68.1488 277.443 64.5164 278.136 62.6287C278.828 60.7411 287.399 26.3852 287.399 26.3852L296.14 20.5498" fill="#0FA379"/>
</g>
<path fill-rule="evenodd" clip-rule="evenodd" d="M317 28.0093C317 28.0093 295.402 31.2591 291.076 60.6092V60.6092C291.076 60.6092 313.906 53.0187 317 28.0093Z" stroke="black" stroke-linecap="round" stroke-linejoin="round"/>
<path fill-rule="evenodd" clip-rule="evenodd" d="M307.675 37.3834C307.682 37.3856 310.999 38.4075 314.159 37.1793C311.119 38.8591 307.126 38.0612 307.119 38.0598C304.177 41.673 301.24 45.7971 298.72 49.5384C298.964 49.6105 303.151 50.8024 307.157 49.2099C303.551 51.2358 298.933 50.5877 298.108 50.4503C294.246 56.2414 291.504 60.8948 291.504 60.8948L291.076 60.6091C291.076 60.6091 295.976 52.235 301.914 44.0904C301.599 43.1373 301.002 40.8629 301.335 38.0851C301.203 41.0869 302.081 43.0457 302.326 43.5291C306.59 37.7359 311.335 32.1596 315.165 29.9141C312.878 31.5375 310.285 34.2369 307.675 37.3834ZM307.214 37.9443C307.357 37.7688 307.5 37.5944 307.644 37.4213L307.214 37.9443Z" fill="#0FA379"/>
<path d="M298.93 34.0815C298.93 34.0815 285.686 42.1956 289.345 63.0955L290.326 63.3102C290.326 63.3102 302.431 51.7277 298.93 34.0815Z" fill="#1AB995"/>
<mask id="mask4_763_1773" style="mask-type:luminance" maskUnits="userSpaceOnUse" x="288" y="34" width="12" height="30">
<path fill-rule="evenodd" clip-rule="evenodd" d="M298.93 34.0815C298.93 34.0815 285.686 42.1956 289.345 63.0955L290.326 63.3102C290.326 63.3102 302.431 51.7277 298.93 34.0815Z" fill="white"/>
</mask>
<g mask="url(#mask4_763_1773)">
<path d="M298.93 34.0811C293.246 46.1458 279.427 32.5807 291.656 54.3407C300.429 69.9527 270.448 65.0231 270.448 65.0231C270.448 65.0231 257.001 47.4951 258.534 46.5402C260.067 45.5854 284.833 25.2017 284.833 25.2017L294.717 27.1721" fill="#0FA379"/>
</g>
<path fill-rule="evenodd" clip-rule="evenodd" d="M298.93 34.0815C298.93 34.0815 285.686 42.1956 289.345 63.0955L290.326 63.3102C290.326 63.3102 302.431 51.7277 298.93 34.0815Z" stroke="black" stroke-linecap="round" stroke-linejoin="round"/>
<path fill-rule="evenodd" clip-rule="evenodd" d="M291.85 53.5609C291.941 53.5516 294.958 53.2256 297.231 51.0231C295.336 53.3862 292.195 54.2134 291.656 54.341C290.433 59.2913 289.685 63.1696 289.685 63.1696L289.345 63.0953C289.345 63.0953 290.67 56.1254 292.717 49.0248C292.304 48.4712 291.417 47.1077 291.021 45.1507C291.596 47.203 292.595 48.2773 292.859 48.5348C294.341 43.473 296.181 38.4246 298.163 35.8647C297.042 37.583 295.96 40.1081 294.965 42.9381L294.965 42.9381C294.981 42.9365 297.343 42.7089 299.111 41.0203C297.521 42.9768 294.777 43.5405 294.754 43.5452L294.754 43.5452C293.648 46.7798 292.657 50.356 291.85 53.5609ZM294.788 43.4484C294.843 43.2877 294.898 43.128 294.954 42.9691L294.788 43.4484Z" fill="#0FA379"/>
<path d="M285.093 43.9971C285.093 43.9971 280.888 54.2694 290.759 64.2794L291.378 63.9716C291.378 63.9716 293.653 52.2695 285.093 43.9971Z" fill="#1AB995"/>
<mask id="mask5_763_1773" style="mask-type:luminance" maskUnits="userSpaceOnUse" x="284" y="43" width="8" height="22">
<path fill-rule="evenodd" clip-rule="evenodd" d="M285.093 43.9971C285.093 43.9971 280.888 54.2694 290.759 64.2794L291.378 63.9716C291.378 63.9716 293.653 52.2695 285.093 43.9971Z" fill="white"/>
</mask>
<g mask="url(#mask5_763_1773)">
<path d="M279.07 42.333C285.056 57.8409 288.936 54.6158 292.361 64.5676C295.786 74.5194 279.401 62.5707 279.401 62.5707L276.619 55.2506" fill="#0FA379"/>
</g>
<path fill-rule="evenodd" clip-rule="evenodd" d="M285.093 43.9971C285.093 43.9971 280.888 54.2694 290.759 64.2794L291.378 63.9716C291.378 63.9716 293.653 52.2695 285.093 43.9971Z" stroke="black" stroke-linecap="round" stroke-linejoin="round"/>
<path fill-rule="evenodd" clip-rule="evenodd" d="M288.731 58.4129C289.924 61.6937 290.973 64.1729 290.973 64.1729L290.759 64.2795C290.759 64.2795 288.864 59.8326 287.313 54.9996C286.441 54.7355 285.627 54.2538 284.925 53.5867C286.012 54.4761 286.964 54.6376 287.206 54.6653C286.113 51.2097 285.221 47.6055 285.344 45.3213C285.376 46.7632 285.734 48.6364 286.254 50.6406L286.254 50.6404C286.271 50.6235 287.472 49.4715 287.804 47.7709C287.669 49.5489 286.379 51.0551 286.367 51.0687C286.978 53.3475 287.78 55.7633 288.544 57.8947C288.593 57.8475 290.122 56.3533 290.538 54.1427C290.389 56.2799 288.979 58.107 288.731 58.4129ZM286.288 50.7747C286.291 50.7849 286.294 50.7951 286.296 50.8053L286.268 50.6966C286.275 50.7226 286.281 50.7486 286.288 50.7747Z" fill="#0FA379"/>
<path d="M295.888 66.0213V66.0213L290.97 62.7387L286.052 59.4561V59.4561C286.282 61.1173 285.651 62.412 284.292 62.9911C281.321 64.2573 277.567 67.3805 279.99 72.3225L284.908 75.6052L289.826 78.8878C294.632 78.7707 294.914 73.3297 294.271 69.6515C293.978 67.9693 294.577 66.6532 295.888 66.0213Z" fill="#1A80FD"/>
<mask id="mask6_763_1773" style="mask-type:luminance" maskUnits="userSpaceOnUse" x="279" y="59" width="17" height="20">
<path fill-rule="evenodd" clip-rule="evenodd" d="M295.888 66.0213V66.0213L290.97 62.7387L286.052 59.4561V59.4561C286.282 61.1173 285.651 62.412 284.292 62.9911C281.321 64.2573 277.567 67.3805 279.99 72.3225L284.908 75.6052L289.826 78.8878C294.632 78.7707 294.914 73.3297 294.271 69.6515C293.978 67.9693 294.577 66.6532 295.888 66.0213Z" fill="white"/>
</mask>
<g mask="url(#mask6_763_1773)">
<path d="M302.117 63.6665C284.625 61.0354 298.925 83.5525 283.143 74.9121C267.361 66.2717 291.145 86.5956 291.145 86.5956L293.596 87.5726L301.804 81.3499L299.578 69.769L297.5 66.0658L302.117 63.6665Z" fill="#1D62FC"/>
</g>
<path fill-rule="evenodd" clip-rule="evenodd" d="M295.888 66.0213V66.0213L290.97 62.7387L286.052 59.4561V59.4561C286.282 61.1173 285.651 62.412 284.292 62.9911C281.321 64.2573 277.567 67.3805 279.99 72.3225L284.908 75.6052L289.826 78.8878C294.632 78.7707 294.914 73.3297 294.271 69.6515C293.978 67.9693 294.577 66.6532 295.888 66.0213Z" stroke="black" stroke-linecap="round" stroke-linejoin="round"/>
<path d="M285.422 69.5444C285.915 70.7914 286.822 71.738 287.926 72.1568" stroke="black" stroke-linecap="round" stroke-linejoin="round"/>
<path d="M305.833 44.7788L304.888 45.2906" stroke="black" stroke-linecap="round" stroke-linejoin="round"/>
<path d="M253.589 32.9695V74.096C253.589 78.4246 256.537 81.9337 260.173 81.9337H295.257C298.893 81.9337 301.841 78.4246 301.841 74.096V32.9695C296.074 37.0303 287.408 39.6151 277.715 39.6151C268.022 39.6151 260.022 29.7816 253.589 32.9695Z" fill="#E43334"/>
<mask id="mask7_763_1773" style="mask-type:luminance" maskUnits="userSpaceOnUse" x="253" y="32" width="49" height="50">
<path fill-rule="evenodd" clip-rule="evenodd" d="M253.589 32.9695V74.096C253.589 78.4246 256.537 81.9337 260.173 81.9337H295.257C298.893 81.9337 301.841 78.4246 301.841 74.096V32.9695C296.074 37.0303 287.408 39.6151 277.715 39.6151C268.022 39.6151 260.022 29.7816 253.589 32.9695Z" fill="white"/>
</mask>
<g mask="url(#mask7_763_1773)">
<path d="M246.537 68.6056C275.446 91.8912 302.89 75.0738 307.509 66.9885C312.129 58.9032 310.814 83.8059 310.814 83.8059C310.814 83.8059 279.913 101.989 276.377 100.022C272.84 98.0551 246.537 92.8615 246.537 92.8615" fill="#C11F27"/>
</g>
<path fill-rule="evenodd" clip-rule="evenodd" d="M253.589 32.9695V74.096C253.589 78.4246 256.537 81.9337 260.173 81.9337H295.257C298.893 81.9337 301.841 78.4246 301.841 74.096V32.9695C296.074 37.0303 287.408 39.6151 277.715 39.6151C268.022 39.6151 260.022 29.7816 253.589 32.9695Z" stroke="black" stroke-linecap="round" stroke-linejoin="round"/>
<path d="M295.257 11.9072H260.173C256.537 11.9072 253.589 15.4159 253.589 19.7445V32.9698C259.356 37.0306 268.022 39.6154 277.715 39.6154C287.408 39.6154 296.074 37.0306 301.841 32.9698V19.7445C301.841 15.4159 298.893 11.9072 295.257 11.9072Z" fill="#FDD504" stroke="black" stroke-linecap="round" stroke-linejoin="round"/>
<path d="M295.257 9.72461H260.173C256.537 9.72461 253.589 13.2333 253.589 17.5619V30.7872C259.356 34.848 268.022 37.4328 277.715 37.4328C287.408 37.4328 296.074 34.848 301.841 30.7872V17.5619C301.841 13.2333 298.893 9.72461 295.257 9.72461Z" fill="#E43334"/>
<mask id="mask8_763_1773" style="mask-type:luminance" maskUnits="userSpaceOnUse" x="253" y="9" width="49" height="29">
<path fill-rule="evenodd" clip-rule="evenodd" d="M295.257 9.72461H260.173C256.537 9.72461 253.589 13.2333 253.589 17.5619V30.7872C259.356 34.848 268.022 37.4328 277.715 37.4328C287.408 37.4328 296.074 34.848 301.841 30.7872V17.5619C301.841 13.2333 298.893 9.72461 295.257 9.72461Z" fill="white"/>
</mask>
<g mask="url(#mask8_763_1773)">
<path d="M305.626 9.72412C303.595 45.7306 253.636 30.3982 253.636 30.3982L246.585 43.2927L304.749 48.4728L315.618 -0.453978L301.889 -1.31641" fill="#C11F27"/>
</g>
<path fill-rule="evenodd" clip-rule="evenodd" d="M295.257 9.72461H260.173C256.537 9.72461 253.589 13.2333 253.589 17.5619V30.7872C259.356 34.848 268.022 37.4328 277.715 37.4328C287.408 37.4328 296.074 34.848 301.841 30.7872V17.5619C301.841 13.2333 298.893 9.72461 295.257 9.72461Z" stroke="black" stroke-linecap="round" stroke-linejoin="round"/>
<ellipse cx="277.715" cy="39.6154" rx="8.88881" ry="10.5798" fill="#FCB006" stroke="black" stroke-linecap="round" stroke-linejoin="round"/>
<ellipse cx="277.715" cy="39.6154" rx="6.68171" ry="7.95281" fill="#FDD504"/>
<mask id="mask9_763_1773" style="mask-type:luminance" maskUnits="userSpaceOnUse" x="271" y="31" width="14" height="17">
<ellipse cx="277.715" cy="39.6154" rx="6.68171" ry="7.95281" fill="white"/>
</mask>
<g mask="url(#mask9_763_1773)">
<ellipse cx="276.301" cy="39.0768" rx="6.68171" ry="7.95281" fill="#FCB006"/>
</g>
<ellipse cx="277.715" cy="39.6154" rx="6.68171" ry="7.95281" stroke="black" stroke-linecap="round" stroke-linejoin="round"/>
<path d="M270.948 18.4048L268.291 21.4233" stroke="black" stroke-linecap="round" stroke-linejoin="round"/>
<path d="M292.09 60.3823C291.316 62.0021 290.183 63.3375 288.813 64.2419" stroke="black" stroke-linecap="round" stroke-linejoin="round"/>
<path d="M289.125 57.481V57.481H289.125H289.125V57.481Z" fill="#1A80FD" stroke="black" stroke-linecap="round" stroke-linejoin="round"/>
<path d="M289.125 57.4809H300.139C300.439 57.4797 300.726 57.3274 300.927 57.0616C301.128 56.7959 301.226 56.4414 301.195 56.0856C301.067 54.4992 300.718 52.9493 300.161 51.4995C300.037 51.175 299.803 50.9278 299.518 50.8188C299.233 50.7099 298.922 50.7492 298.662 50.9273L289.125 57.4809V57.4809Z" fill="#1A80FD"/>
<mask id="mask10_763_1773" style="mask-type:luminance" maskUnits="userSpaceOnUse" x="289" y="50" width="13" height="8">
<path fill-rule="evenodd" clip-rule="evenodd" d="M289.125 57.4809H300.139C300.439 57.4797 300.726 57.3274 300.927 57.0616C301.128 56.7959 301.226 56.4414 301.195 56.0856C301.067 54.4992 300.718 52.9493 300.161 51.4995C300.037 51.175 299.803 50.9278 299.518 50.8188C299.233 50.7099 298.922 50.7492 298.662 50.9273L289.125 57.4809V57.4809Z" fill="white"/>
</mask>
<g mask="url(#mask10_763_1773)">
<path d="M302.133 52.894C299.468 56.1248 292.299 55.3003 292.299 55.3003L292.979 57.4813L301.532 58.1718L302.133 54.1197" fill="#1D62FC"/>
</g>
<path fill-rule="evenodd" clip-rule="evenodd" d="M289.125 57.4809H300.139C300.439 57.4797 300.726 57.3274 300.927 57.0616C301.128 56.7959 301.226 56.4414 301.195 56.0856C301.067 54.4992 300.718 52.9493 300.161 51.4995C300.037 51.175 299.803 50.9278 299.518 50.8188C299.233 50.7099 298.922 50.7492 298.662 50.9273L289.125 57.4809V57.4809Z" stroke="black" stroke-linecap="round" stroke-linejoin="round"/>
<path d="M289.125 57.481H289.125H289.125V57.481V57.481V57.481Z" fill="#1A80FD" stroke="black" stroke-linecap="round" stroke-linejoin="round"/>
<path d="M289.125 57.481V57.481H289.125H289.125V57.481Z" fill="#1A80FD" stroke="black" stroke-linecap="round" stroke-linejoin="round"/>
<path d="M289.125 57.4808L298.66 50.9285C298.92 50.7489 299.104 50.4472 299.167 50.0976C299.23 49.748 299.166 49.3831 298.99 49.0928C298.212 47.7987 297.26 46.6656 296.172 45.739C295.929 45.5302 295.622 45.4537 295.328 45.5286C295.034 45.6034 294.781 45.8226 294.63 46.1319L289.125 57.4808V57.4808Z" fill="#1A80FD" stroke="black" stroke-linecap="round" stroke-linejoin="round"/>
<path d="M282.078 45.739C280.99 46.6656 280.038 47.7987 279.26 49.0928C279.085 49.3831 279.02 49.748 279.083 50.0976C279.146 50.4472 279.33 50.7489 279.59 50.9285L285.694 55.1232C286.635 55.7695 287.687 54.5167 287.144 53.3972L283.62 46.1319C283.47 45.8226 283.216 45.6034 282.922 45.5286C282.628 45.4537 282.322 45.5302 282.078 45.739Z" fill="#1A80FD"/>
<mask id="mask11_763_1773" style="mask-type:luminance" maskUnits="userSpaceOnUse" x="279" y="45" width="9" height="11">
<path fill-rule="evenodd" clip-rule="evenodd" d="M282.078 45.739C280.99 46.6656 280.038 47.7987 279.26 49.0928C279.085 49.3831 279.02 49.748 279.083 50.0976C279.146 50.4472 279.33 50.7489 279.59 50.9285L285.694 55.1232C286.635 55.7695 287.687 54.5167 287.144 53.3972L283.62 46.1319C283.47 45.8226 283.216 45.6034 282.922 45.5286C282.628 45.4537 282.322 45.5302 282.078 45.739Z" fill="white"/>
</mask>
<g mask="url(#mask11_763_1773)">
<path d="M281.925 43.8608C277.282 49.3693 285.694 55.1234 285.694 55.1234L277.318 54.1928L277.97 47.0153" fill="#1D62FC"/>
</g>
<path fill-rule="evenodd" clip-rule="evenodd" d="M282.078 45.739C280.99 46.6656 280.038 47.7987 279.26 49.0928C279.085 49.3831 279.02 49.748 279.083 50.0976C279.146 50.4472 279.33 50.7489 279.59 50.9285L285.694 55.1232C286.635 55.7695 287.687 54.5167 287.144 53.3972L283.62 46.1319C283.47 45.8226 283.216 45.6034 282.922 45.5286C282.628 45.4537 282.322 45.5302 282.078 45.739Z" stroke="black" stroke-linecap="round" stroke-linejoin="round"/>
<path d="M289.125 57.4809L279.588 50.9273C279.328 50.7492 279.017 50.7099 278.732 50.8188C278.447 50.9278 278.213 51.175 278.089 51.4995C277.533 52.9493 277.183 54.4992 277.055 56.0856C277.024 56.4414 277.122 56.7959 277.323 57.0616C277.524 57.3274 277.811 57.4797 278.112 57.4809H289.125Z" fill="#1A80FD" stroke="black" stroke-linecap="round" stroke-linejoin="round"/>
<ellipse cx="289.125" cy="57.4813" rx="3.85408" ry="4.58726" fill="#1A80FD" stroke="black" stroke-linecap="round" stroke-linejoin="round"/>
<path d="M302.485 83.8123H275.765C274.363 83.8123 273.225 82.4604 273.225 80.7927V60.0327H305.025V80.7927C305.025 82.4604 303.887 83.8123 302.485 83.8123Z" fill="#FCB006"/>
<mask id="mask12_763_1773" style="mask-type:luminance" maskUnits="userSpaceOnUse" x="273" y="60" width="33" height="24">
<path fill-rule="evenodd" clip-rule="evenodd" d="M302.485 83.8123H275.765C274.363 83.8123 273.225 82.4604 273.225 80.7927V60.0327H305.025V80.7927C305.025 82.4604 303.887 83.8123 302.485 83.8123Z" fill="white"/>
</mask>
<g mask="url(#mask12_763_1773)">
<rect width="42.8624" height="3.87622" transform="matrix(0.851358 -0.524585 0.399631 0.916676 260.04 74.5923)" fill="white" stroke="black" stroke-linecap="round" stroke-linejoin="round"/>
<rect width="42.8624" height="3.87622" transform="matrix(0.851358 -0.524585 0.399631 0.916676 265.035 79.9663)" fill="white" stroke="black" stroke-linecap="round" stroke-linejoin="round"/>
<rect width="42.8624" height="3.87622" transform="matrix(0.851358 -0.524585 0.399631 0.916676 270.595 84.5537)" fill="white" stroke="black" stroke-linecap="round" stroke-linejoin="round"/>
<rect width="42.8624" height="3.87622" transform="matrix(0.851358 -0.524585 0.399631 0.916676 276.627 88.2104)" fill="white" stroke="black" stroke-linecap="round" stroke-linejoin="round"/>
<rect width="42.8624" height="3.87622" transform="matrix(0.851358 -0.524585 0.399631 0.916676 280.875 93.2773)" fill="white" stroke="black" stroke-linecap="round" stroke-linejoin="round"/>
</g>
<path fill-rule="evenodd" clip-rule="evenodd" d="M302.485 83.8123H275.765C274.363 83.8123 273.225 82.4604 273.225 80.7927V60.0327H305.025V80.7927C305.025 82.4604 303.887 83.8123 302.485 83.8123Z" stroke="black" stroke-linecap="round" stroke-linejoin="round"/>
<rect x="270.882" y="55.165" width="36.4853" height="8.1673" rx="4.08365" fill="#FCB006"/>
<mask id="mask13_763_1773" style="mask-type:luminance" maskUnits="userSpaceOnUse" x="270" y="55" width="38" height="9">
<rect x="270.882" y="55.165" width="36.4853" height="8.1673" rx="4.08365" fill="white"/>
</mask>
<g mask="url(#mask13_763_1773)">
<rect x="269.865" y="53.7891" width="36.4853" height="8.1673" rx="4.08365" fill="#FDD506"/>
</g>
<rect x="270.882" y="55.165" width="36.4853" height="8.1673" rx="4.08365" stroke="black" stroke-linecap="round" stroke-linejoin="round"/>
<rect x="284.813" y="55.0181" width="8.6235" height="28.794" fill="white" stroke="black" stroke-linecap="round" stroke-linejoin="round"/>
<path d="M279.902 56.9409C279.203 57.7514 278.369 58.3806 277.455 58.789" stroke="black" stroke-linecap="round" stroke-linejoin="round"/>
<path d="M290.61 75.98C289.836 76.79 288.967 77.4623 288.031 77.9758" stroke="black" stroke-linecap="round" stroke-linejoin="round"/>
<path d="M301.703 56.6367L301.445 57.2508" stroke="black" stroke-linecap="round" stroke-linejoin="round"/>
<path d="M253.887 29.8006C253.887 29.8006 253.527 28.9115 252.774 28.5855C252.02 28.2595 251.685 27.7261 251.685 27.7261C251.685 27.7261 251.206 28.141 251.948 28.7633C251.948 28.7633 250.632 28.7278 250.129 28.3603C249.627 27.9928 249.196 28.7633 250.44 29.3264C251.685 29.8895 253.073 30.3637 253.48 31.3713C253.887 32.379 253.887 29.8006 253.887 29.8006Z" fill="#F9C1BB" stroke="black" stroke-linecap="round" stroke-linejoin="round"/>
<ellipse cx="247.962" cy="19.6217" rx="9.22474" ry="10.9796" fill="#FCB006"/>
<mask id="mask14_763_1773" style="mask-type:luminance" maskUnits="userSpaceOnUse" x="238" y="8" width="20" height="23">
<ellipse cx="247.962" cy="19.6217" rx="9.22474" ry="10.9796" fill="white"/>
</mask>
<g mask="url(#mask14_763_1773)">
<path d="M229.639 28.2573L258.241 39.6351Z" fill="#FDD504"/>
<path d="M229.639 28.2573L258.241 39.6351" stroke="black" stroke-linecap="round" stroke-linejoin="round"/>
<path d="M230.005 26.9551L258.607 38.3328Z" fill="#FDD504"/>
<path d="M230.005 26.9551L258.607 38.3328" stroke="black" stroke-linecap="round" stroke-linejoin="round"/>
<path d="M230.37 25.6528L258.973 37.0306Z" fill="#FDD504"/>
<path d="M230.37 25.6528L258.973 37.0306" stroke="black" stroke-linecap="round" stroke-linejoin="round"/>
<path d="M230.736 24.3506L259.338 35.7283Z" fill="#FDD504"/>
<path d="M230.736 24.3506L259.338 35.7283" stroke="black" stroke-linecap="round" stroke-linejoin="round"/>
<path d="M231.102 23.0483L259.704 34.4261Z" fill="#FDD504"/>
<path d="M231.102 23.0483L259.704 34.4261" stroke="black" stroke-linecap="round" stroke-linejoin="round"/>
<path d="M231.467 21.7466L260.07 33.1243Z" fill="#FDD504"/>
<path d="M231.467 21.7466L260.07 33.1243" stroke="black" stroke-linecap="round" stroke-linejoin="round"/>
<path d="M231.833 20.4438L260.435 31.8216Z" fill="#FDD504"/>
<path d="M231.833 20.4438L260.435 31.8216" stroke="black" stroke-linecap="round" stroke-linejoin="round"/>
<path d="M232.199 19.1416L260.801 30.5194Z" fill="#FDD504"/>
<path d="M232.199 19.1416L260.801 30.5194" stroke="black" stroke-linecap="round" stroke-linejoin="round"/>
<path d="M232.564 17.8398L261.167 29.2176Z" fill="#FDD504"/>
<path d="M232.564 17.8398L261.167 29.2176" stroke="black" stroke-linecap="round" stroke-linejoin="round"/>
<path d="M232.93 16.5371L261.532 27.9149Z" fill="#FDD504"/>
<path d="M232.93 16.5371L261.532 27.9149" stroke="black" stroke-linecap="round" stroke-linejoin="round"/>
<path d="M233.296 15.2354L261.898 26.6131Z" fill="#FDD504"/>
<path d="M233.296 15.2354L261.898 26.6131" stroke="black" stroke-linecap="round" stroke-linejoin="round"/>
<path d="M233.661 13.9331L262.264 25.3109Z" fill="#FDD504"/>
<path d="M233.661 13.9331L262.264 25.3109" stroke="black" stroke-linecap="round" stroke-linejoin="round"/>
<path d="M234.027 12.6313L262.629 24.0091Z" fill="#FDD504"/>
<path d="M234.027 12.6313L262.629 24.0091" stroke="black" stroke-linecap="round" stroke-linejoin="round"/>
<path d="M234.393 11.3286L262.995 22.7064Z" fill="#FDD504"/>
<path d="M234.393 11.3286L262.995 22.7064" stroke="black" stroke-linecap="round" stroke-linejoin="round"/>
<path d="M234.758 10.0269L263.361 21.4046Z" fill="#FDD504"/>
<path d="M234.758 10.0269L263.361 21.4046" stroke="black" stroke-linecap="round" stroke-linejoin="round"/>
<path d="M235.124 8.72412L263.726 20.1019Z" fill="#FDD504"/>
<path d="M235.124 8.72412L263.726 20.1019" stroke="black" stroke-linecap="round" stroke-linejoin="round"/>
<path d="M235.49 7.42236L264.092 18.8001Z" fill="#FDD504"/>
<path d="M235.49 7.42236L264.092 18.8001" stroke="black" stroke-linecap="round" stroke-linejoin="round"/>
<path d="M235.855 6.12012L264.458 17.4979Z" fill="#FDD504"/>
<path d="M235.855 6.12012L264.458 17.4979" stroke="black" stroke-linecap="round" stroke-linejoin="round"/>
<path d="M236.221 4.81738L264.823 16.1951Z" fill="#FDD504"/>
<path d="M236.221 4.81738L264.823 16.1951" stroke="black" stroke-linecap="round" stroke-linejoin="round"/>
<path d="M236.586 3.51562L265.189 14.8934Z" fill="#FDD504"/>
<path d="M236.586 3.51562L265.189 14.8934" stroke="black" stroke-linecap="round" stroke-linejoin="round"/>
<path d="M236.952 2.21338L265.554 13.5911Z" fill="#FDD504"/>
<path d="M236.952 2.21338L265.554 13.5911" stroke="black" stroke-linecap="round" stroke-linejoin="round"/>
<path d="M237.318 0.911133L265.92 12.2889Z" fill="#FDD504"/>
<path d="M237.318 0.911133L265.92 12.2889" stroke="black" stroke-linecap="round" stroke-linejoin="round"/>
<path d="M237.683 -0.391113L266.286 10.9866Z" fill="#FDD504"/>
<path d="M237.683 -0.391113L266.286 10.9866" stroke="black" stroke-linecap="round" stroke-linejoin="round"/>
</g>
<ellipse cx="247.962" cy="19.6217" rx="9.22474" ry="10.9796" stroke="black" stroke-linecap="round" stroke-linejoin="round"/>
<ellipse cx="246.348" cy="18.9796" rx="9.22474" ry="10.9796" fill="#FDD504" stroke="black" stroke-linecap="round" stroke-linejoin="round"/>
<ellipse cx="7.5258" cy="6.67928" rx="7.5258" ry="6.67928" transform="matrix(0.294486 -0.955656 0.916818 0.399306 237.981 23.6021)" fill="#FDD504"/>
<mask id="mask15_763_1773" style="mask-type:luminance" maskUnits="userSpaceOnUse" x="239" y="11" width="14" height="16">
<ellipse cx="7.5258" cy="6.67928" rx="7.5258" ry="6.67928" transform="matrix(0.294486 -0.955656 0.916818 0.399306 237.981 23.6021)" fill="white"/>
</mask>
<g mask="url(#mask15_763_1773)">
<ellipse cx="7.52557" cy="6.6791" rx="7.52557" ry="6.6791" transform="matrix(0.294496 -0.955653 0.916812 0.399319 236.558 23.731)" fill="#FCB006"/>
</g>
<ellipse cx="7.5258" cy="6.67928" rx="7.5258" ry="6.67928" transform="matrix(0.294486 -0.955656 0.916818 0.399306 237.981 23.6021)" stroke="black" stroke-linecap="round" stroke-linejoin="round"/>
<path d="M244.963 14.8467L246.073 15.2881L246.467 18.5568L248.433 16.2268L249.542 16.6681L247.133 19.3079L248.133 19.7058L247.961 20.3196L246.672 19.8067L246.661 19.8129L246.444 20.5849L247.742 21.1008L247.569 21.7147L246.272 21.1987L245.88 22.5938L244.896 22.2021L245.287 20.807L243.998 20.2942L244.171 19.6803L245.46 20.1932L245.677 19.4213L245.671 19.4089L244.39 18.8991L244.562 18.2853L245.555 18.68L244.963 14.8467Z" fill="#FCB006" stroke="black" stroke-linecap="round" stroke-linejoin="round"/>
<path d="M244.994 10.521L244.594 10.6505" stroke="black" stroke-linecap="round" stroke-linejoin="round"/>
<path d="M249.538 27.2124C249.106 27.4992 248.634 27.6945 248.146 27.7896" stroke="black" stroke-linecap="round" stroke-linejoin="round"/>
<path d="M258.029 16.866C256.814 16.3061 255.077 16.5944 254.444 17.64C254.124 18.1671 254.116 18.6233 254.271 19.0079C254.387 19.2985 254.598 19.5467 254.837 19.7546C254.913 21.3519 256.058 22.8688 257.502 22.8688C258.996 22.8688 260.206 21.5119 260.206 19.8381C260.206 18.3666 259.27 17.141 258.029 16.866Z" fill="#485065" stroke="black" stroke-linecap="round" stroke-linejoin="round"/>
<path d="M248.556 81.2162L246.487 80.2931L247.721 75.2666H250.151L248.556 81.2162V81.2162Z" fill="#F9C1BB"/>
<mask id="mask16_763_1773" style="mask-type:luminance" maskUnits="userSpaceOnUse" x="246" y="75" width="5" height="7">
<path fill-rule="evenodd" clip-rule="evenodd" d="M248.556 81.2162L246.487 80.2931L247.721 75.2666H250.151L248.556 81.2162V81.2162Z" fill="white"/>
</mask>
<g mask="url(#mask16_763_1773)">
<path d="M247.11 76.7715C244.896 77.3555 249.632 77.9141 249.591 79.4123C249.55 80.9104 249.981 76.6446 249.981 76.6446L248.319 76.0098" fill="#ED707B"/>
</g>
<path fill-rule="evenodd" clip-rule="evenodd" d="M248.556 81.2162L246.487 80.2931L247.721 75.2666H250.151L248.556 81.2162V81.2162Z" stroke="black" stroke-linecap="round" stroke-linejoin="round"/>
<path d="M241.093 82.5632V82.5632C241.35 81.6739 241.713 81.3815 242.44 81.2163C244.047 80.8515 246.487 80.2932 246.704 78.8892L249.143 79.1938L248.524 82.1542C248.474 82.3959 248.308 82.5632 248.118 82.5632H241.093Z" fill="#485065" stroke="black" stroke-linecap="round" stroke-linejoin="round"/>
<path d="M260.401 80.4467L258.409 80.6189L257.714 75.6411L260.138 75.4316L260.401 80.4467V80.4467Z" fill="#F9C1BB"/>
<mask id="mask17_763_1773" style="mask-type:luminance" maskUnits="userSpaceOnUse" x="257" y="75" width="4" height="6">
<path fill-rule="evenodd" clip-rule="evenodd" d="M260.401 80.4467L258.409 80.6189L257.714 75.6411L260.138 75.4316L260.401 80.4467V80.4467Z" fill="white"/>
</mask>
<g mask="url(#mask17_763_1773)">
<path d="M257.507 76.2134C256.481 78.3717 260.26 77.3306 260.739 78.3463C261.218 79.3619 260.89 77.0005 260.89 77.0005L257.835 76.5103" fill="#ED707B"/>
</g>
<path fill-rule="evenodd" clip-rule="evenodd" d="M260.401 80.4467L258.409 80.6189L257.714 75.6411L260.138 75.4316L260.401 80.4467V80.4467Z" stroke="black" stroke-linecap="round" stroke-linejoin="round"/>
<path d="M253.887 82.8948C253.802 82.0108 254.232 81.5991 254.894 81.3763C256.357 80.8842 258.013 80.144 258.087 79.2392L260.471 78.9048L260.736 81.6583C260.767 81.988 260.583 82.2851 260.332 82.3079L253.887 82.8948Z" fill="#485065" stroke="black" stroke-linecap="round" stroke-linejoin="round"/>
<path d="M255.307 22.0714L254.505 30.0778L257.855 29.1563V21.5176L255.307 22.0714V22.0714Z" fill="#F9C1BB"/>
<mask id="mask18_763_1773" style="mask-type:luminance" maskUnits="userSpaceOnUse" x="254" y="21" width="4" height="10">
<path fill-rule="evenodd" clip-rule="evenodd" d="M255.308 22.0714L254.505 30.0778L257.855 29.1563V21.5176L255.308 22.0714V22.0714Z" fill="white"/>
</mask>
<g mask="url(#mask18_763_1773)">
<path d="M253.869 26.0591C256.403 23.4917 256.94 21.8481 256.94 21.8481L254.982 21.913L253.869 26.0591Z" fill="#ED707B"/>
</g>
<path fill-rule="evenodd" clip-rule="evenodd" d="M255.307 22.0714L254.505 30.0778L257.855 29.1563V21.5176L255.307 22.0714V22.0714Z" stroke="black" stroke-linecap="round" stroke-linejoin="round"/>
<path d="M254.846 27.4183C254.846 27.4183 253.084 29.9538 255.051 26.6155C257.017 23.2772 259.032 23.7137 257.819 24.9254C256.796 25.947 256.384 26.2995 256.384 26.2995" fill="white"/>
<path d="M254.846 27.4183C254.846 27.4183 253.084 29.9538 255.051 26.6155C257.017 23.2772 259.032 23.7137 257.819 24.9254C256.796 25.947 256.384 26.2995 256.384 26.2995" stroke="black" stroke-linecap="round" stroke-linejoin="round"/>
<path d="M255.083 39.2602V39.2602C255.083 39.2602 255.588 76.5332 256.157 77.1257C256.727 77.7183 261.22 77.4211 261.22 77.4211C261.22 77.4211 260.094 48.3941 259.237 38.9014L255.083 39.2602Z" fill="#1AB995"/>
<mask id="mask19_763_1773" style="mask-type:luminance" maskUnits="userSpaceOnUse" x="255" y="38" width="7" height="40">
<path fill-rule="evenodd" clip-rule="evenodd" d="M255.083 39.2607V39.2607C255.083 39.2607 255.588 76.5337 256.157 77.1262C256.727 77.7188 261.22 77.4215 261.22 77.4215C261.22 77.4215 260.094 48.3946 259.237 38.9019L255.083 39.2607Z" fill="white"/>
</mask>
<g mask="url(#mask19_763_1773)">
<path d="M254.14 68.41C258.553 62.0452 256.007 54.8412 257.502 46.3771C258.723 39.4682 251.758 56.8233 251.758 56.8233V61.2326" fill="#0FA379"/>
</g>
<path fill-rule="evenodd" clip-rule="evenodd" d="M255.083 39.2602V39.2602C255.083 39.2602 255.588 76.5332 256.157 77.1257C256.727 77.7183 261.22 77.4211 261.22 77.4211C261.22 77.4211 260.094 48.3941 259.237 38.9014L255.083 39.2602Z" stroke="black" stroke-linecap="round" stroke-linejoin="round"/>
<path d="M259.532 37.4087L253.311 38.7206L253.182 40.3655C253.182 40.3655 245.792 75.772 246.344 76.7355C246.942 77.7766 251.071 78.2181 251.071 78.2181C251.071 78.2181 255.246 58.6251 257.748 46.4489" fill="#1AB995"/>
<path d="M259.532 37.4087L253.311 38.7206L253.182 40.3655C253.182 40.3655 245.792 75.772 246.344 76.7355C246.942 77.7766 251.071 78.2181 251.071 78.2181C251.071 78.2181 255.246 58.6251 257.748 46.4489" stroke="black" stroke-linecap="round" stroke-linejoin="round"/>
<path d="M251.916 41.0611L254.075 34.1409L253.064 31.6551C252.708 30.7775 252.82 29.7191 253.347 28.9852L255.051 26.6159L257.819 24.9258C257.819 24.9258 259.388 27.5615 259.701 29.3344C259.994 30.993 259.814 37.0608 260.291 38.7522C260.329 38.8873 261.099 39.9743 260.79 40.3403C259.908 41.3864 254.728 42.6269 251.916 41.0611Z" fill="#FDD504"/>
<mask id="mask20_763_1773" style="mask-type:luminance" maskUnits="userSpaceOnUse" x="251" y="24" width="10" height="18">
<path fill-rule="evenodd" clip-rule="evenodd" d="M251.916 41.0611L254.075 34.1409L253.064 31.6551C252.708 30.7775 252.82 29.7191 253.347 28.9852L255.051 26.6159L257.819 24.9258C257.819 24.9258 259.388 27.5615 259.701 29.3344C259.994 30.993 259.814 37.0608 260.291 38.7522C260.329 38.8873 261.099 39.9743 260.79 40.3403C259.908 41.3864 254.728 42.6269 251.916 41.0611Z" fill="white"/>
</mask>
<g mask="url(#mask20_763_1773)">
<path d="M256.007 32.9712C252.532 38.2478 253.657 42.0654 258.036 41.5101C261.085 41.1234 250.731 46.1154 250.731 46.1154L247.497 40.6355L250.731 33.2797L254.741 31.6055" fill="#FCB006"/>
</g>
<path fill-rule="evenodd" clip-rule="evenodd" d="M251.916 41.0611L254.075 34.1409L253.064 31.6551C252.708 30.7775 252.82 29.7191 253.347 28.9852L255.051 26.6159L257.819 24.9258C257.819 24.9258 259.388 27.5615 259.701 29.3344C259.994 30.993 259.814 37.0608 260.291 38.7522C260.329 38.8873 261.099 39.9743 260.79 40.3403C259.908 41.3864 254.728 42.6269 251.916 41.0611Z" stroke="black" stroke-linecap="round" stroke-linejoin="round"/>
<path d="M257.021 21.9969L257.054 21.6356L256.152 20.7717C256.152 20.7717 254.673 20.0109 254.271 19.0078C253.844 19.9898 253.426 21.4688 253.635 22.4021C253.989 23.984 255.39 23.9271 256.245 23.5425" fill="#F9C1BB"/>
<path d="M257.021 21.9969L257.054 21.6356L256.152 20.7717C256.152 20.7717 254.673 20.0109 254.271 19.0078C253.844 19.9898 253.426 21.4688 253.635 22.4021C253.989 23.984 255.39 23.9271 256.245 23.5425" stroke="black" stroke-linecap="round" stroke-linejoin="round"/>
<ellipse cx="258.202" cy="22.2408" rx="1.32973" ry="1.30138" fill="#485065" stroke="black" stroke-linecap="round" stroke-linejoin="round"/>
<path d="M255.772 20.9453C255.818 20.8693 255.868 20.7973 255.923 20.7299C256.367 20.1793 256.985 20.0513 257.302 20.444C257.619 20.8367 257.516 21.6013 257.071 22.1519C256.996 22.2454 256.913 22.3293 256.823 22.4025" fill="#F9C1BB"/>
<path d="M255.772 20.9453C255.818 20.8693 255.868 20.7973 255.923 20.7299C256.367 20.1793 256.985 20.0513 257.302 20.444C257.619 20.8367 257.516 21.6013 257.071 22.1519C256.996 22.2454 256.913 22.3293 256.823 22.4025" stroke="black" stroke-linecap="round" stroke-linejoin="round"/>
<ellipse cx="260.206" cy="18.0363" rx="1.50647" ry="1.8654" fill="#485065"/>
<mask id="mask21_763_1773" style="mask-type:luminance" maskUnits="userSpaceOnUse" x="258" y="16" width="4" height="4">
<ellipse cx="260.206" cy="18.0363" rx="1.50647" ry="1.8654" fill="white"/>
</mask>
<g mask="url(#mask21_763_1773)">
<path d="M258.941 16.4692C258.7 18.0357 260.176 20.2955 260.176 20.2955L258.332 19.8376L258.431 16.6378L258.941 16.4692Z" fill="#FDD504" stroke="black" stroke-linecap="round" stroke-linejoin="round"/>
</g>
<ellipse cx="260.206" cy="18.0363" rx="1.50647" ry="1.8654" stroke="black" stroke-linecap="round" stroke-linejoin="round"/>
<path d="M245.971 29.9611C245.971 29.9611 245.488 28.8097 244.478 28.3875C243.468 27.9653 243.018 27.2744 243.018 27.2744C243.018 27.2744 242.376 27.8118 243.371 28.6178C243.371 28.6178 241.606 28.5717 240.932 28.0958C240.258 27.6198 239.681 28.6178 241.349 29.347C243.018 30.0763 244.88 30.6904 245.425 31.9954C245.971 33.3003 245.971 29.9611 245.971 29.9611Z" fill="#F9C1BB"/>
<mask id="mask22_763_1773" style="mask-type:luminance" maskUnits="userSpaceOnUse" x="240" y="27" width="6" height="6">
<path fill-rule="evenodd" clip-rule="evenodd" d="M245.971 29.9611C245.971 29.9611 245.488 28.8097 244.478 28.3875C243.468 27.9653 243.018 27.2744 243.018 27.2744C243.018 27.2744 242.376 27.8118 243.371 28.6178C243.371 28.6178 241.606 28.5717 240.932 28.0958C240.258 27.6198 239.681 28.6178 241.349 29.347C243.018 30.0763 244.88 30.6904 245.425 31.9954C245.971 33.3003 245.971 29.9611 245.971 29.9611Z" fill="white"/>
</mask>
<g mask="url(#mask22_763_1773)">
<path d="M243.303 30.6021C244.137 30.8221 244.458 28.7596 245.049 28.7371C245.641 28.7146 245.128 30.0942 245.128 30.0942L244.041 31.3892L243.522 30.9745" fill="#ED707B"/>
</g>
<path fill-rule="evenodd" clip-rule="evenodd" d="M245.971 29.9611C245.971 29.9611 245.488 28.8097 244.478 28.3875C243.468 27.9653 243.018 27.2744 243.018 27.2744C243.018 27.2744 242.376 27.8118 243.371 28.6178C243.371 28.6178 241.606 28.5717 240.932 28.0958C240.258 27.6198 239.681 28.6178 241.349 29.347C243.018 30.0763 244.88 30.6904 245.425 31.9954C245.971 33.3003 245.971 29.9611 245.971 29.9611Z" stroke="black" stroke-linecap="round" stroke-linejoin="round"/>
<path d="M246.315 74.814L246.01 76.913C246.01 76.913 248.855 78.5883 251.386 78.2415L251.642 76.3375C250.248 76.8114 246.315 74.814 246.315 74.814Z" fill="#1AB995" stroke="black" stroke-linecap="round" stroke-linejoin="round"/>
<path d="M255.725 75.0933L255.732 77.2234C255.732 77.2234 258.777 78.2855 261.22 77.421L261.194 75.493C259.891 76.2477 255.725 75.0933 255.725 75.0933Z" fill="#1AB995" stroke="black" stroke-linecap="round" stroke-linejoin="round"/>
<path d="M256.755 18.0044L256.969 18.1314" stroke="black" stroke-linecap="round" stroke-linejoin="round"/>
<path d="M258.128 71.7329L259.607 72.1392" stroke="black" stroke-linecap="round" stroke-linejoin="round"/>
<path d="M245.318 79.0859L246.026 79.8933L243.822 79.5928" stroke="black" stroke-linecap="round" stroke-linejoin="round"/>
<path d="M256.785 79.2563L257.575 79.864C256.736 80.1291 255.866 80.2288 255 80.1592" stroke="black" stroke-linecap="round" stroke-linejoin="round"/>
<path d="M254.253 28.3408L250.475 32.6805L245.049 28.7371C244.31 29.4174 244.089 31.7137 244.089 31.7137L249.323 37.1172C250.375 38.2044 251.961 38.1067 252.913 36.8963L256.007 32.971" fill="#FDD504"/>
<mask id="mask23_763_1773" style="mask-type:luminance" maskUnits="userSpaceOnUse" x="244" y="28" width="13" height="10">
<path fill-rule="evenodd" clip-rule="evenodd" d="M254.253 28.3408L250.475 32.6805L245.049 28.7371C244.31 29.4174 244.089 31.7137 244.089 31.7137L249.323 37.1172C250.375 38.2044 251.961 38.1067 252.913 36.8963L256.007 32.971" fill="white"/>
</mask>
<g mask="url(#mask23_763_1773)">
<ellipse cx="250.668" cy="37.9222" rx="1.6365" ry="1.10583" fill="#FCB006"/>
</g>
<path d="M254.253 28.3408L250.475 32.6805L245.049 28.7371C244.31 29.4174 244.089 31.7137 244.089 31.7137L249.323 37.1172C250.375 38.2044 251.961 38.1067 252.913 36.8963L256.007 32.971" stroke="black" stroke-linecap="round" stroke-linejoin="round"/>
<path d="M250.519 32.5962C250.526 32.8954 250.488 33.1937 250.405 33.4766" stroke="black" stroke-linecap="round" stroke-linejoin="round"/>
<path d="M243.777 32.0036C243.777 32.0036 244.373 28.7202 245.049 28.7369L246.283 29.5455C246.283 29.5455 244.915 31.6143 245.008 32.9685L243.777 32.0036Z" fill="#FDD504" stroke="black" stroke-linecap="round" stroke-linejoin="round"/>
<ellipse cx="244.424" cy="31.6049" rx="0.128303" ry="0.152712" fill="#FDD504" stroke="black" stroke-linecap="round" stroke-linejoin="round"/>
<path d="M276.564 60.3702C276.512 60.4575 276.466 60.5488 276.425 60.6435C285.091 55.2401 281.96 64.3259 276.239 61.9534C276.453 62.8185 277.584 63.5847 281.458 62.8853C288.708 61.5764 285.627 49.7439 276.564 60.3702Z" fill="#FCB006"/>
<mask id="mask24_763_1773" style="mask-type:luminance" maskUnits="userSpaceOnUse" x="276" y="55" width="10" height="9">
<path fill-rule="evenodd" clip-rule="evenodd" d="M276.564 60.3702C276.512 60.4575 276.466 60.5488 276.425 60.6435C285.091 55.2401 281.96 64.3259 276.239 61.9534C276.453 62.8185 277.584 63.5847 281.458 62.8853C288.708 61.5764 285.627 49.7439 276.564 60.3702Z" fill="white"/>
</mask>
<g mask="url(#mask24_763_1773)">
<path d="M278.374 59.5695C284.192 56.821 282.687 60.7787 281.533 62.1743C280.379 63.5699 278.301 62.1743 278.301 62.1743" fill="#FDD504"/>
</g>
<path fill-rule="evenodd" clip-rule="evenodd" d="M276.564 60.3702C276.512 60.4575 276.466 60.5488 276.425 60.6435C285.091 55.2401 281.96 64.3259 276.239 61.9534C276.453 62.8185 277.584 63.5847 281.458 62.8853C288.708 61.5764 285.627 49.7439 276.564 60.3702Z" stroke="black" stroke-linecap="round" stroke-linejoin="round"/>
<path d="M275.991 60.6435C275.95 60.5488 275.903 60.4575 275.852 60.3702C266.789 49.7439 263.708 61.5764 270.958 62.8853C274.832 63.5847 275.963 62.8185 276.176 61.9534C270.455 64.3259 267.325 55.2401 275.991 60.6435Z" fill="#FCB006"/>
<mask id="mask25_763_1773" style="mask-type:luminance" maskUnits="userSpaceOnUse" x="266" y="55" width="11" height="9">
<path fill-rule="evenodd" clip-rule="evenodd" d="M275.991 60.6435C275.95 60.5488 275.903 60.4575 275.852 60.3702C266.789 49.7439 263.708 61.5764 270.958 62.8853C274.832 63.5847 275.963 62.8185 276.176 61.9534C270.455 64.3259 267.325 55.2401 275.991 60.6435Z" fill="white"/>
</mask>
<g mask="url(#mask25_763_1773)">
<path d="M276.012 60.4511C266.68 56.8205 270.337 63.1587 270.337 63.1587L275.26 62.9125L276.012 60.4511" fill="#FDD504"/>
</g>
<path fill-rule="evenodd" clip-rule="evenodd" d="M275.991 60.6435C275.95 60.5488 275.903 60.4575 275.852 60.3702C266.789 49.7439 263.708 61.5764 270.958 62.8853C274.832 63.5847 275.963 62.8185 276.176 61.9534C270.455 64.3259 267.325 55.2401 275.991 60.6435Z" stroke="black" stroke-linecap="round" stroke-linejoin="round"/>
<path d="M276.404 60.4507C276.404 60.4507 276.368 60.5661 276.327 60.7514C281.094 54.8056 279.372 64.8035 276.225 62.1928C276.343 63.1449 276.965 63.9879 279.095 63.2183C283.083 61.778 281.388 48.7575 276.404 60.4507Z" fill="#FCB006" stroke="black" stroke-linecap="round" stroke-linejoin="round"/>
<path d="M276.089 60.7514C276.048 60.5661 276.012 60.4507 276.012 60.4507C271.027 48.7575 269.333 61.778 273.32 63.2183C275.451 63.9879 276.073 63.1449 276.191 62.1928C273.044 64.8035 271.322 54.8056 276.089 60.7514Z" fill="#FCB006" stroke="black" stroke-linecap="round" stroke-linejoin="round"/>
<ellipse cx="276.208" cy="61.0792" rx="1.78238" ry="1.54451" fill="#FCB006"/>
<mask id="mask26_763_1773" style="mask-type:luminance" maskUnits="userSpaceOnUse" x="274" y="59" width="4" height="4">
<ellipse cx="276.208" cy="61.0792" rx="1.78238" ry="1.54451" fill="white"/>
</mask>
<g mask="url(#mask26_763_1773)">
<path d="M277.188 58.7544C278.735 62.5109 275.234 62.1353 274.425 62.1738C273.617 62.2123 277.99 63.9443 277.99 63.9443L279.438 60.3541L277.631 58.8079" fill="#FDD504"/>
</g>
<ellipse cx="276.208" cy="61.0792" rx="1.78238" ry="1.54451" stroke="black" stroke-linecap="round" stroke-linejoin="round"/>
<path d="M285.574 84.0002H266.841C265.805 84.0002 264.964 83.0009 264.964 81.7682V65.6289H287.452V81.7682C287.452 82.3602 287.254 82.9279 286.902 83.3464C286.55 83.765 286.072 84.0002 285.574 84.0002Z" fill="#1A80FD"/>
<mask id="mask27_763_1773" style="mask-type:luminance" maskUnits="userSpaceOnUse" x="264" y="65" width="24" height="19">
<path fill-rule="evenodd" clip-rule="evenodd" d="M285.574 84.0002H266.841C265.805 84.0002 264.964 83.0009 264.964 81.7682V65.6289H287.452V81.7682C287.452 82.3602 287.254 82.9279 286.902 83.3464C286.55 83.765 286.072 84.0002 285.574 84.0002Z" fill="white"/>
</mask>
<g mask="url(#mask27_763_1773)">
<ellipse cx="263.762" cy="81.3681" rx="1.03006" ry="1.22601" fill="white" stroke="black" stroke-linecap="round" stroke-linejoin="round"/>
<ellipse cx="266.075" cy="84.121" rx="1.03006" ry="1.22601" fill="white" stroke="black" stroke-linecap="round" stroke-linejoin="round"/>
<ellipse cx="266.327" cy="78.3159" rx="1.03006" ry="1.22601" fill="white" stroke="black" stroke-linecap="round" stroke-linejoin="round"/>
<ellipse cx="270.953" cy="83.8217" rx="1.03006" ry="1.22601" fill="white" stroke="black" stroke-linecap="round" stroke-linejoin="round"/>
<ellipse cx="264.014" cy="75.5629" rx="1.03006" ry="1.22601" fill="white" stroke="black" stroke-linecap="round" stroke-linejoin="round"/>
<ellipse cx="268.64" cy="81.0688" rx="1.03006" ry="1.22601" fill="white" stroke="black" stroke-linecap="round" stroke-linejoin="round"/>
<ellipse cx="268.892" cy="75.2631" rx="1.03006" ry="1.22601" fill="white" stroke="black" stroke-linecap="round" stroke-linejoin="round"/>
<ellipse cx="264.266" cy="69.7573" rx="1.03006" ry="1.22601" fill="white" stroke="black" stroke-linecap="round" stroke-linejoin="round"/>
<ellipse cx="273.517" cy="80.7685" rx="1.03006" ry="1.22601" fill="white" stroke="black" stroke-linecap="round" stroke-linejoin="round"/>
<ellipse cx="266.579" cy="72.5102" rx="1.03006" ry="1.22601" fill="white" stroke="black" stroke-linecap="round" stroke-linejoin="round"/>
<ellipse cx="271.204" cy="78.0161" rx="1.03006" ry="1.22601" fill="white" stroke="black" stroke-linecap="round" stroke-linejoin="round"/>
<ellipse cx="275.83" cy="83.5224" rx="1.03006" ry="1.22601" fill="white" stroke="black" stroke-linecap="round" stroke-linejoin="round"/>
<ellipse cx="274.021" cy="69.1581" rx="1.03006" ry="1.22601" fill="white" stroke="black" stroke-linecap="round" stroke-linejoin="round"/>
<ellipse cx="278.647" cy="74.664" rx="1.03006" ry="1.22601" fill="white" stroke="black" stroke-linecap="round" stroke-linejoin="round"/>
<ellipse cx="283.272" cy="80.1703" rx="1.03006" ry="1.22601" fill="white" stroke="black" stroke-linecap="round" stroke-linejoin="round"/>
<ellipse cx="271.708" cy="66.4057" rx="1.03006" ry="1.22601" fill="white" stroke="black" stroke-linecap="round" stroke-linejoin="round"/>
<ellipse cx="276.334" cy="71.9106" rx="1.03006" ry="1.22601" fill="white" stroke="black" stroke-linecap="round" stroke-linejoin="round"/>
<ellipse cx="285.585" cy="82.9228" rx="1.03006" ry="1.22601" fill="white" stroke="black" stroke-linecap="round" stroke-linejoin="round"/>
<ellipse cx="280.96" cy="77.4174" rx="1.03006" ry="1.22601" fill="white" stroke="black" stroke-linecap="round" stroke-linejoin="round"/>
<ellipse cx="287.898" cy="85.6757" rx="1.03006" ry="1.22601" fill="white" stroke="black" stroke-linecap="round" stroke-linejoin="round"/>
<ellipse cx="264.517" cy="63.9521" rx="1.03006" ry="1.22601" fill="white" stroke="black" stroke-linecap="round" stroke-linejoin="round"/>
<ellipse cx="271.456" cy="72.2109" rx="1.03006" ry="1.22601" fill="white" stroke="black" stroke-linecap="round" stroke-linejoin="round"/>
<ellipse cx="266.83" cy="66.705" rx="1.03006" ry="1.22601" fill="white" stroke="black" stroke-linecap="round" stroke-linejoin="round"/>
<ellipse cx="276.082" cy="77.7167" rx="1.03006" ry="1.22601" fill="white" stroke="black" stroke-linecap="round" stroke-linejoin="round"/>
<ellipse cx="280.708" cy="83.2221" rx="1.03006" ry="1.22601" fill="white" stroke="black" stroke-linecap="round" stroke-linejoin="round"/>
<ellipse cx="269.143" cy="69.4579" rx="1.03006" ry="1.22601" fill="white" stroke="black" stroke-linecap="round" stroke-linejoin="round"/>
<ellipse cx="273.769" cy="74.9638" rx="1.03006" ry="1.22601" fill="white" stroke="black" stroke-linecap="round" stroke-linejoin="round"/>
<ellipse cx="278.395" cy="80.4697" rx="1.03006" ry="1.22601" fill="white" stroke="black" stroke-linecap="round" stroke-linejoin="round"/>
<ellipse cx="276.585" cy="66.1064" rx="1.03006" ry="1.22601" fill="white" stroke="black" stroke-linecap="round" stroke-linejoin="round"/>
<ellipse cx="281.211" cy="71.6118" rx="1.03006" ry="1.22601" fill="white" stroke="black" stroke-linecap="round" stroke-linejoin="round"/>
<ellipse cx="285.837" cy="77.1171" rx="1.03006" ry="1.22601" fill="white" stroke="black" stroke-linecap="round" stroke-linejoin="round"/>
<ellipse cx="278.898" cy="68.8588" rx="1.03006" ry="1.22601" fill="white" stroke="black" stroke-linecap="round" stroke-linejoin="round"/>
<ellipse cx="288.15" cy="79.8705" rx="1.03006" ry="1.22601" fill="white" stroke="black" stroke-linecap="round" stroke-linejoin="round"/>
<ellipse cx="283.524" cy="74.3642" rx="1.03006" ry="1.22601" fill="white" stroke="black" stroke-linecap="round" stroke-linejoin="round"/>
<ellipse cx="283.776" cy="68.559" rx="1.03006" ry="1.22601" fill="white" stroke="black" stroke-linecap="round" stroke-linejoin="round"/>
<ellipse cx="288.402" cy="74.0644" rx="1.03006" ry="1.22601" fill="white" stroke="black" stroke-linecap="round" stroke-linejoin="round"/>
<ellipse cx="281.463" cy="65.8066" rx="1.03006" ry="1.22601" fill="white" stroke="black" stroke-linecap="round" stroke-linejoin="round"/>
<ellipse cx="286.089" cy="71.312" rx="1.03006" ry="1.22601" fill="white" stroke="black" stroke-linecap="round" stroke-linejoin="round"/>
<ellipse cx="286.34" cy="65.5068" rx="1.03006" ry="1.22601" fill="white" stroke="black" stroke-linecap="round" stroke-linejoin="round"/>
<ellipse cx="288.653" cy="68.2592" rx="1.03006" ry="1.22601" fill="white" stroke="black" stroke-linecap="round" stroke-linejoin="round"/>
</g>
<path fill-rule="evenodd" clip-rule="evenodd" d="M285.574 84.0002H266.841C265.805 84.0002 264.964 83.0009 264.964 81.7682V65.6289H287.452V81.7682C287.452 82.3602 287.254 82.9279 286.902 83.3464C286.55 83.765 286.072 84.0002 285.574 84.0002Z" stroke="black" stroke-linecap="round" stroke-linejoin="round"/>
<rect x="263.307" y="61.8682" width="25.8016" height="5.05518" rx="2.52759" fill="#1A80FD"/>
<mask id="mask28_763_1773" style="mask-type:luminance" maskUnits="userSpaceOnUse" x="263" y="61" width="27" height="6">
<rect x="263.307" y="61.8682" width="25.8016" height="5.05518" rx="2.52759" fill="white"/>
</mask>
<g mask="url(#mask28_763_1773)">
<path d="M289.109 61.0791C288.972 67.7664 277.314 66.9727 277.314 66.9727L286.563 69.3559L289.875 66.223L289.624 61.0791" fill="#1D62FC"/>
</g>
<rect x="263.307" y="61.8682" width="25.8016" height="5.05518" rx="2.52759" stroke="black" stroke-linecap="round" stroke-linejoin="round"/>
<rect x="273.159" y="61.7817" width="6.09833" height="22.2187" fill="#FCB006"/>
<mask id="mask29_763_1773" style="mask-type:luminance" maskUnits="userSpaceOnUse" x="273" y="61" width="7" height="24">
<rect x="273.159" y="61.7817" width="6.09833" height="22.2187" fill="white"/>
</mask>
<g mask="url(#mask29_763_1773)">
<path d="M269.339 83.9992C279.257 83.9992 279.419 80.7484 279.257 71.9832C279.095 63.218 281.884 91.1617 281.884 91.1617L280.863 91.4006L271.553 87.2199" fill="#FDD504"/>
</g>
<rect x="273.159" y="61.7817" width="6.09833" height="22.2187" stroke="black" stroke-linecap="round" stroke-linejoin="round"/>
<path d="M283.977 64.2656L283.38 64.8698" stroke="black" stroke-linecap="round" stroke-linejoin="round"/>
<path d="M276.362 78.4985C276.023 79.0561 275.577 79.5088 275.061 79.8183" stroke="black" stroke-linecap="round" stroke-linejoin="round"/>
</g>
<rect x="0.5" y="0.5" width="326" height="94" rx="19.5" stroke="#2E2E2E" stroke-opacity="0.3"/>
<defs>
<clipPath id="clip0_763_1773">
<rect width="327" height="95" rx="20" fill="white"/>
</clipPath>
</defs>
</svg>
