<svg width="22" height="21" viewBox="0 0 22 21" fill="none" xmlns="http://www.w3.org/2000/svg">
<path d="M16.2 19.9C17.473 19.9 18.6939 19.3943 19.5941 18.4941C20.4943 17.5939 21 16.373 21 15.1C21 13.827 20.4943 12.6061 19.5941 11.7059C18.6939 10.8057 17.473 10.3 16.2 10.3C14.927 10.3 13.7061 10.8057 12.8059 11.7059C11.9057 12.6061 11.4 13.827 11.4 15.1C11.4 16.373 11.9057 17.5939 12.8059 18.4941C13.7061 19.3943 14.927 19.9 16.2 19.9ZM17.99 15.16H14.41H17.99ZM16.2 13.41V17V13.41Z" fill="#8A86F1"/>
<path d="M21 6.59C21 8.56 20.49 10.3 19.69 11.81C19.242 11.3336 18.7013 10.9538 18.1011 10.6942C17.5009 10.4345 16.854 10.3003 16.2 10.3C13.55 10.3 11.4 12.45 11.4 15.1C11.4 16.33 11.87 17.45 12.63 18.3C12.26 18.47 11.92 18.61 11.62 18.71C11.28 18.83 10.72 18.83 10.38 18.71C7.48 17.72 1 13.59 1 6.59C1 3.5 3.49 1 6.56 1C8.37 1 9.99 1.88 11 3.23C11.5159 2.53881 12.1857 1.97739 12.9565 1.59029C13.7272 1.2032 14.5775 1.00109 15.44 1C18.51 1 21 3.5 21 6.59Z" fill="#8A86F1"/>
<path d="M16.2 10.3C17.473 10.3 18.6939 10.8057 19.5941 11.7059C20.4943 12.6061 21 13.827 21 15.1C21 16.373 20.4943 17.5939 19.5941 18.4941C18.6939 19.3943 17.473 19.9 16.2 19.9C14.927 19.9 13.7061 19.3943 12.8059 18.4941C11.9057 17.5939 11.4 16.373 11.4 15.1M16.2 10.3C14.927 10.3 13.7061 10.8057 12.8059 11.7059C11.9057 12.6061 11.4 13.827 11.4 15.1M16.2 10.3C16.854 10.3003 17.5009 10.4345 18.1011 10.6942C18.7013 10.9538 19.242 11.3336 19.69 11.81C20.49 10.3 21 8.56 21 6.59C21 3.5 18.51 1 15.44 1C14.5775 1.00109 13.7272 1.2032 12.9565 1.59029C12.1857 1.97739 11.5159 2.53881 11 3.23C9.99 1.88 8.37 1 6.56 1C3.49 1 1 3.5 1 6.59C1 13.59 7.48 17.72 10.38 18.71C10.72 18.83 11.28 18.83 11.62 18.71C11.92 18.61 12.26 18.47 12.63 18.3C11.87 17.45 11.4 16.33 11.4 15.1M16.2 10.3C13.55 10.3 11.4 12.45 11.4 15.1M17.99 15.16H14.41M16.2 13.41V17" stroke="white" stroke-linecap="round" stroke-linejoin="round"/>
</svg>
