<svg width="20" height="20" viewBox="0 0 20 20" fill="none" xmlns="http://www.w3.org/2000/svg">
<path d="M10.176 4.864C10.4213 4.864 10.608 4.944 10.736 5.104C10.8747 5.264 10.944 5.472 10.944 5.728C10.944 5.97333 10.8427 6.18133 10.64 6.352C10.4373 6.512 10.2133 6.592 9.968 6.592C9.73333 6.592 9.54667 6.512 9.408 6.352C9.28 6.192 9.216 5.99467 9.216 5.76C9.216 5.51467 9.31733 5.30667 9.52 5.136C9.72267 4.95467 9.94133 4.864 10.176 4.864ZM11.936 16H8.704V15.552H8.96C9.248 15.552 9.42933 15.504 9.504 15.408C9.58933 15.312 9.632 15.1573 9.632 14.944V10.144C9.632 9.94133 9.56267 9.79733 9.424 9.712C9.296 9.616 9.056 9.568 8.704 9.568V9.12C8.91733 9.12 9.23733 9.04533 9.664 8.896C10.1013 8.736 10.432 8.58667 10.656 8.448L10.944 8.384V14.848C10.944 15.0187 10.9493 15.1413 10.96 15.216C10.9813 15.2907 11.0453 15.3653 11.152 15.44C11.2587 15.5147 11.424 15.552 11.648 15.552H11.936V16Z" fill="#8A86F1"/>
<rect x="1" y="1" width="18" height="18" rx="9" stroke="#8A86F1" stroke-width="2"/>
</svg>
