<svg width="14" height="14" viewBox="0 0 14 14" fill="none" xmlns="http://www.w3.org/2000/svg">
<path d="M3.91457 4.39837V3.81613C3.91457 2.46556 5.1556 1.139 6.69831 1.01294C7.12696 0.976074 7.55968 1.01818 7.96863 1.13656C8.37757 1.25493 8.75367 1.44695 9.07272 1.70026C9.39177 1.95357 9.64671 2.26255 9.82113 2.60732C9.99555 2.95209 10.0856 3.32501 10.0854 3.70208V4.53043M9.39635 6.99747H9.40321M4.59679 6.99747H4.60228M4.94305 13H9.05695C11.8133 13 12.3069 12.0336 12.4509 10.8571L12.9652 7.25558C13.1503 5.79096 12.6703 4.59645 9.7426 4.59645H4.25739C1.32966 4.59645 0.849707 5.79096 1.03483 7.25558L1.54907 10.8571C1.69306 12.0336 2.18673 13 4.94305 13Z" stroke="#2E2E2E" stroke-opacity="0.7" stroke-linecap="round" stroke-linejoin="round"/>
</svg>
