<svg width="8" height="10" viewBox="0 0 8 10" fill="none" xmlns="http://www.w3.org/2000/svg">
<path d="M5.43333 10C5.34444 10 5.25822 9.98611 5.17467 9.95833C5.09111 9.93055 5.01622 9.88889 4.95 9.83333L0.933335 6.34722C0.855557 6.28241 0.791557 6.19444 0.741335 6.08333C0.691113 5.97222 0.666224 5.87037 0.666669 5.77778C0.666669 5.56482 0.758446 5.38185 0.942002 5.22889C1.12556 5.07593 1.34489 4.99963 1.6 5H3C3.58889 5 4.09733 4.84019 4.52533 4.52056C4.95333 4.20093 5.21155 3.80519 5.3 3.33333H0.666669C0.47778 3.33333 0.319336 3.28 0.191336 3.17333C0.0633357 3.06667 -0.000442137 2.93482 2.3068e-06 2.77778C2.3068e-06 2.62037 0.0640023 2.48833 0.192002 2.38167C0.320002 2.275 0.478224 2.22185 0.666669 2.22222H5.1C4.91111 1.89815 4.63044 1.63185 4.258 1.42333C3.88556 1.21482 3.46622 1.11074 3 1.11111H0.666669C0.47778 1.11111 0.319336 1.05778 0.191336 0.951113C0.0633357 0.844446 -0.000442137 0.712594 2.3068e-06 0.555557C2.3068e-06 0.39815 0.0640023 0.266113 0.192002 0.159446C0.320002 0.0527796 0.478224 -0.000368448 0.666669 1.92234e-06H7.33333C7.52222 1.92234e-06 7.68066 0.0533353 7.80866 0.160002C7.93666 0.266669 8.00044 0.39852 8 0.555557C8 0.712965 7.936 0.845002 7.808 0.951668C7.68 1.05833 7.52178 1.11148 7.33333 1.11111H5.83333C5.98889 1.26852 6.12778 1.43982 6.25 1.625C6.37222 1.81019 6.46667 2.00926 6.53333 2.22222H7.33333C7.52222 2.22222 7.68066 2.27556 7.80866 2.38222C7.93666 2.48889 8.00044 2.62074 8 2.77778C8 2.93519 7.936 3.06722 7.808 3.17389C7.68 3.28056 7.52178 3.3337 7.33333 3.33333H6.65C6.56111 4.12037 6.17222 4.78019 5.48333 5.31278C4.79444 5.84537 3.96667 6.11148 3 6.11111H2.51667L5.91667 9.05555C6.11667 9.23148 6.15844 9.43296 6.042 9.66C5.92555 9.88704 5.72267 10.0004 5.43333 10Z" fill="#FB8315"/>
</svg>
