<svg width="12" height="12" viewBox="0 0 12 12" fill="none" xmlns="http://www.w3.org/2000/svg">
<path d="M10.1667 10.1667L9.25 9.25M5.35417 9.70833C5.92596 9.70833 6.49216 9.59571 7.02043 9.37689C7.54871 9.15807 8.02871 8.83735 8.43303 8.43303C8.83735 8.02871 9.15807 7.54871 9.37689 7.02043C9.59571 6.49216 9.70833 5.92596 9.70833 5.35417C9.70833 4.78237 9.59571 4.21617 9.37689 3.6879C9.15807 3.15963 8.83735 2.67963 8.43303 2.27531C8.02871 1.87098 7.54871 1.55026 7.02043 1.33144C6.49216 1.11262 5.92596 1 5.35417 1C4.19937 1 3.09187 1.45874 2.27531 2.27531C1.45874 3.09187 1 4.19937 1 5.35417C1 6.50896 1.45874 7.61646 2.27531 8.43303C3.09187 9.24959 4.19937 9.70833 5.35417 9.70833Z" stroke="black" stroke-opacity="0.65" stroke-width="1.5" stroke-linecap="round" stroke-linejoin="round"/>
</svg>
