<svg width="20" height="20" viewBox="0 0 20 20" fill="none" xmlns="http://www.w3.org/2000/svg">
<path d="M3.3335 15V9.1667M6.66683 15V9.1667M10.0002 15V9.1667M13.3335 15V9.1667M16.6668 15V9.1667M0.833496 18.3334H19.1668M10.3085 1.7917L17.8085 4.7917C18.1002 4.90837 18.3335 5.25837 18.3335 5.5667V8.33337C18.3335 8.7917 17.9585 9.1667 17.5002 9.1667H2.50016C2.04183 9.1667 1.66683 8.7917 1.66683 8.33337V5.5667C1.66683 5.25837 1.90016 4.90837 2.19183 4.7917L9.69183 1.7917C9.8585 1.72503 10.1418 1.72503 10.3085 1.7917ZM18.3335 18.3334H1.66683V15.8334C1.66683 15.375 2.04183 15 2.50016 15H17.5002C17.9585 15 18.3335 15.375 18.3335 15.8334V18.3334Z" stroke="#2E2E2E" stroke-opacity="0.7" stroke-width="1.5" stroke-miterlimit="10" stroke-linecap="round" stroke-linejoin="round"/>
</svg>
