<svg width="22" height="22" viewBox="0 0 22 22" fill="none" xmlns="http://www.w3.org/2000/svg">
<path d="M7.672 13.33C7.672 14.62 8.662 15.66 9.892 15.66H12.402C13.472 15.66 14.342 14.75 14.342 13.63C14.342 12.41 13.812 11.98 13.022 11.7L8.992 10.3C8.202 10.02 7.672 9.59 7.672 8.37C7.672 7.25 8.542 6.34 9.612 6.34H12.122C13.352 6.34 14.342 7.38 14.342 8.67M11 5V17M11 21C16.523 21 21 16.523 21 11C21 5.477 16.523 1 11 1C5.477 1 1 5.477 1 11C1 16.523 5.477 21 11 21Z" stroke="#2E2E2E" stroke-opacity="0.7" stroke-width="1.5" stroke-linecap="round" stroke-linejoin="round"/>
</svg>
