<svg width="20" height="20" viewBox="0 0 20 20" fill="none" xmlns="http://www.w3.org/2000/svg">
<path d="M14.1335 5.14154C15.8002 6.29987 16.9502 8.14154 17.1835 10.2665M2.9085 10.3082C3.01327 9.28918 3.33525 8.30446 3.85275 7.42039C4.37026 6.53632 5.07125 5.77346 5.9085 5.1832M6.82516 17.4499C7.79183 17.9415 8.89183 18.2165 10.0502 18.2165C11.1668 18.2165 12.2168 17.9665 13.1585 17.5082M10.0502 6.41654C10.6646 6.41654 11.2538 6.17246 11.6883 5.738C12.1228 5.30354 12.3668 4.71429 12.3668 4.09987C12.3668 3.48545 12.1228 2.8962 11.6883 2.46174C11.2538 2.02728 10.6646 1.7832 10.0502 1.7832C9.43574 1.7832 8.84649 2.02728 8.41203 2.46174C7.97757 2.8962 7.7335 3.48545 7.7335 4.09987C7.7335 4.71429 7.97757 5.30354 8.41203 5.738C8.84649 6.17246 9.43574 6.41654 10.0502 6.41654ZM4.02516 16.5999C4.63958 16.5999 5.22883 16.3558 5.66329 15.9213C6.09775 15.4869 6.34183 14.8976 6.34183 14.2832C6.34183 13.6688 6.09775 13.0795 5.66329 12.6451C5.22883 12.2106 4.63958 11.9665 4.02516 11.9665C3.41074 11.9665 2.82149 12.2106 2.38703 12.6451C1.95257 13.0795 1.7085 13.6688 1.7085 14.2832C1.7085 14.8976 1.95257 15.4869 2.38703 15.9213C2.82149 16.3558 3.41074 16.5999 4.02516 16.5999ZM15.9752 16.5999C16.5896 16.5999 17.1788 16.3558 17.6133 15.9213C18.0478 15.4869 18.2918 14.8976 18.2918 14.2832C18.2918 13.6688 18.0478 13.0795 17.6133 12.6451C17.1788 12.2106 16.5896 11.9665 15.9752 11.9665C15.3607 11.9665 14.7715 12.2106 14.337 12.6451C13.9026 13.0795 13.6585 13.6688 13.6585 14.2832C13.6585 14.8976 13.9026 15.4869 14.337 15.9213C14.7715 16.3558 15.3607 16.5999 15.9752 16.5999Z" stroke="#2E2E2E" stroke-opacity="0.7" stroke-width="1.5" stroke-linecap="round" stroke-linejoin="round"/>
</svg>
